# Exported from Wings 3D 2.2.6.1
mtllib Vase 1.mtl
o Cube1
#64 vertices, 58 faces
v -0.75000000 0.75000000 -0.79200000
v -0.75000000 -0.75000000 -0.79200000
v -0.99000000 0.99000000 -0.35466667
v -0.99000000 -0.99000000 -0.35466667
v 0.75000000 0.75000000 -0.79200000
v 0.75000000 -0.75000000 -0.79200000
v 0.99000000 0.99000000 -0.35466667
v 0.99000000 -0.99000000 -0.35466667
v -1.00000000 -4.8496013e-17 -0.79200000
v 0.0000000e+0 1.00000000 -0.79200000
v 0.0000000e+0 -1.00000000 -0.79200000
v 1.00000000 -4.8496013e-17 -0.79200000
v -1.32000000 -2.1717070e-17 -0.35466667
v 0.0000000e+0 1.32000000 -0.35466667
v 0.0000000e+0 -1.32000000 -0.35466667
v 1.32000000 -2.1717070e-17 -0.35466667
v 0.0000000e+0 1.51008000 0.13422222
v -1.13256000 1.13256000 0.13422222
v -1.51008000 8.2187407e-18 0.13422222
v -1.13256000 -1.13256000 0.13422222
v 0.0000000e+0 -1.51008000 0.13422222
v 1.13256000 -1.13256000 0.13422222
v 1.51008000 8.2187407e-18 0.13422222
v 1.13256000 1.13256000 0.13422222
v -1.5432100e-17 1.10772220 1.11211378
v -0.83079165 0.83079165 1.11211378
v -1.10772220 6.8097329e-17 1.11211378
v -0.83079165 -0.83079165 1.11211378
v -1.5432100e-17 -1.10772220 1.11211378
v 0.83079165 -0.83079165 1.11211378
v 1.10772220 6.8097329e-17 1.11211378
v 0.83079165 0.83079165 1.11211378
v -1.3307113e-17 0.64532351 1.64049778
v -0.48399263 0.48399263 1.64049778
v -0.64532351 1.0351851e-16 1.64049778
v -0.48399263 -0.48399263 1.64049778
v -1.3307113e-17 -0.64532351 1.64049778
v 0.48399263 -0.48399263 1.64049778
v 0.64532351 1.0351851e-16 1.64049778
v 0.48399263 0.48399263 1.64049778
v -7.8438237e-18 0.45559840 2.73167218
v -0.34169880 0.34169880 2.73167218
v -0.45559840 2.3069208e-16 2.73167218
v -0.34169880 -0.34169880 2.73167218
v -7.8438237e-18 -0.45559840 2.73167218
v 0.34169880 -0.34169880 2.73167218
v 0.45559840 2.3069208e-16 2.73167218
v 0.34169880 0.34169880 2.73167218
v -8.6358337e-18 0.78824172 3.24285298
v -0.59118129 0.59118129 3.24285298
v -0.78824172 2.5677919e-16 3.24285298
v -0.59118129 -0.59118129 3.24285298
v -8.6358337e-18 -0.78824172 3.24285298
v 0.59118129 -0.59118129 3.24285298
v 0.78824172 2.5677919e-16 3.24285298
v 0.59118129 0.59118129 3.24285298
v -8.8886911e-18 0.36473521 3.04716353
v -0.27355141 0.27355141 3.04716353
v -0.36473521 2.4690909e-16 3.04716353
v -0.27355141 -0.27355141 3.04716353
v -8.8886911e-18 -0.36473521 3.04716353
v 0.27355141 -0.27355141 3.04716353
v 0.36473521 2.4690909e-16 3.04716353
v 0.27355141 0.27355141 3.04716353
vt 0.12347119 0.40899697
vt 0.14210959 0.40857519
vt 0.14965602 0.48755145
vt 0.14965602 0.33044249
vt 0.16374944 0.47253865
vt 0.16424854 0.34464758
vt 0.19099336 0.40878817
vt 0.20025673 0.43645370
vt 0.20042037 0.38124276
vt 0.22745678 0.49492128
vt 0.22781259 0.44603834
vt 0.22807361 0.37213689
vt 0.22821050 0.51373628
vt 0.22821050 0.30425766
vt 0.22842943 0.32325395
vt 0.25546583 0.43693248
vt 0.25562947 0.38172154
vt 0.26489284 0.40938706
vt 0.29163766 0.47352765
vt 0.29213676 0.34563659
vt 0.30676499 0.48755145
vt 0.30676499 0.33044249
vt 0.31377661 0.40960004
vt 0.33294981 0.40899697
vt 0.37738765 0.61294437
vt 0.38693818 0.58429279
vt 0.38693818 0.64159596
vt 0.41558977 0.57474226
vt 0.41558977 0.65114649
vt 0.44424136 0.58429279
vt 0.44424136 0.64159596
vt 0.45379188 0.61294437
vt 0.53541737 0.32553198
vt 0.53565291 0.32511743
vt 0.54394756 0.27103122
vt 0.54455191 0.27009802
vt 0.55972513 0.43091395
vt 0.55987213 0.42998585
vt 0.56210884 0.21555454
vt 0.56395489 0.21488426
vt 0.57091669 0.69551546
vt 0.57299996 0.69497508
vt 0.59093221 0.50218649
vt 0.59243542 0.50311588
vt 0.61018469 0.64148442
vt 0.61144192 0.64178140
vt 0.63219986 0.72552616
vt 0.63344377 0.72533032
vt 0.64067289 0.32234797
vt 0.64143907 0.32258945
vt 0.64242624 0.27967240
vt 0.64326267 0.27998041
vt 0.64474096 0.41393818
vt 0.64523590 0.41425566
vt 0.64654614 0.22644406
vt 0.64806015 0.22671160
vt 0.65332917 0.49201422
vt 0.65450644 0.49256796
vt 0.65582343 0.64789150
vt 0.65695731 0.64793195
vt 0.70388193 0.73990857
vt 0.70500077 0.73993659
vt 0.70967651 0.65296678
vt 0.71072497 0.65290729
vt 0.72027255 0.49398360
vt 0.72115053 0.49439961
vt 0.72542830 0.41662675
vt 0.72624679 0.41691740
vt 0.73153237 0.32504116
vt 0.73226821 0.32536921
vt 0.73449432 0.28060011
vt 0.73518959 0.28095323
vt 0.73824656 0.22430152
vt 0.73886572 0.22506236
vt 0.76372679 0.65508314
vt 0.76468108 0.65501730
vt 0.77683866 0.73516617
vt 0.77785443 0.73482868
vt 0.78688519 0.50091558
vt 0.78746039 0.50131277
vt 0.80575877 0.42466983
vt 0.80690840 0.42488939
vt 0.80981213 0.65478936
vt 0.81060996 0.65488133
vt 0.82194563 0.33442959
vt 0.82267896 0.33451019
vt 0.82587118 0.29189880
vt 0.82645199 0.29202937
vt 0.82867298 0.23859110
vt 0.82885156 0.23859451
vt 0.84156245 0.71355369
vt 0.84175345 0.71265187
vt 0.84738031 0.51927846
vt 0.84761511 0.51989988
vt 0.88774728 0.45183836
vt 0.88950060 0.45260435
vt 0.91360282 0.23788174
vt 0.91398716 0.23900683
vt 0.92462560 0.29640298
vt 0.92560675 0.29516123
vt 0.92584763 0.35155371
vt 0.92722265 0.35087225
vn -0.40021380 0.40021380 -0.82441363
vn -0.40021380 -0.40021380 -0.82441363
vn -0.61109175 0.61109175 -0.50312398
vn -0.61109175 -0.61109175 -0.50312398
vn 0.40021380 0.40021380 -0.82441363
vn 0.40021380 -0.40021380 -0.82441363
vn 0.61109175 0.61109175 -0.50312398
vn 0.61109175 -0.61109175 -0.50312398
vn -0.58865077 -4.1929502e-17 -0.80838745
vn 0.0000000e+0 0.58865077 -0.80838745
vn 0.0000000e+0 -0.58865077 -0.80838745
vn 0.58865077 -4.1929502e-17 -0.80838745
vn -0.87663021 -1.4574997e-17 -0.48116471
vn 0.0000000e+0 0.87663021 -0.48116471
vn 0.0000000e+0 -0.87663021 -0.48116471
vn 0.87663021 -1.4574997e-17 -0.48116471
vn 0.0000000e+0 0.99995099 9.9002521e-3
vn -0.70706780 0.70706780 1.0500739e-2
vn -0.99995099 0.0000000e+0 9.9002521e-3
vn -0.70706780 -0.70706780 1.0500739e-2
vn 0.0000000e+0 -0.99995099 9.9002521e-3
vn 0.70706780 -0.70706780 1.0500739e-2
vn 0.99995099 0.0000000e+0 9.9002521e-3
vn 0.70706780 0.70706780 1.0500739e-2
vn 0.0000000e+0 0.84945090 0.52766766
vn -0.59046506 0.59046506 0.55018362
vn -0.84945090 -7.3054334e-18 0.52766766
vn -0.59046506 -0.59046506 0.55018362
vn 0.0000000e+0 -0.84945090 0.52766766
vn 0.59046506 -0.59046506 0.55018362
vn 0.84945090 -7.3054334e-18 0.52766766
vn 0.59046506 0.59046506 0.55018362
vn 0.0000000e+0 0.90113054 0.43354786
vn -0.62983929 0.62983929 0.45453816
vn -0.90113054 0.0000000e+0 0.43354786
vn -0.62983929 -0.62983929 0.45453816
vn 0.0000000e+0 -0.90113054 0.43354786
vn 0.62983929 -0.62983929 0.45453816
vn 0.90113054 0.0000000e+0 0.43354786
vn 0.62983929 0.62983929 0.45453816
vn 0.0000000e+0 0.97905099 -0.20361525
vn -0.69050666 0.69050666 -0.21540914
vn -0.97905099 -1.5587903e-17 -0.20361525
vn -0.69050666 -0.69050666 -0.21540914
vn 0.0000000e+0 -0.97905099 -0.20361525
vn 0.69050666 -0.69050666 -0.21540914
vn 0.97905099 -1.5587903e-17 -0.20361525
vn 0.69050666 0.69050666 -0.21540914
vn 0.0000000e+0 0.72362922 0.69018893
vn -0.49709726 0.49709726 0.71118818
vn -0.72362922 0.0000000e+0 0.69018893
vn -0.49709726 -0.49709726 0.71118818
vn 0.0000000e+0 -0.72362922 0.69018893
vn 0.49709726 -0.49709726 0.71118818
vn 0.72362922 0.0000000e+0 0.69018893
vn 0.49709726 0.49709726 0.71118818
vn -9.5092242e-17 -0.28464706 0.95863239
vn 0.19062471 -0.19062471 0.96297686
vn 0.28464706 1.9018448e-17 0.95863239
vn 0.19062471 0.19062471 0.96297686
vn -9.5092242e-17 0.28464706 0.95863239
vn -0.19062471 0.19062471 0.96297686
vn -0.28464706 1.9018448e-17 0.95863239
vn -0.19062471 -0.19062471 0.96297686
g Cube1_Cube1_auv
usemtl Cube1_auv
s 1
f 1/21/1 10/13/10 5/3/5 12/1/12 6/4/6 11/14/11 2/22/2 9/24/9
f 2/56/2 11/74/11 15/72/15 4/52/4
f 3/87/3 14/71/14 10/73/10 1/90/1
f 3/87/3 18/85/18 17/69/17 14/71/14
f 4/52/4 13/36/13 9/40/9 2/56/2
f 4/52/4 20/50/20 19/34/19 13/36/13
f 5/55/5 7/51/7 16/35/16 12/39/12
f 5/55/5 10/73/10 14/71/14 7/51/7
f 6/89/6 12/97/12 16/100/16 8/88/8
f 7/51/7 24/49/24 23/33/23 16/35/16
f 8/88/8 15/72/15 11/74/11 6/89/6
f 8/88/8 22/86/22 21/70/21 15/72/15
f 9/98/9 13/99/13 3/87/3 1/90/1
f 13/99/13 19/101/19 18/85/18 3/87/3
f 14/71/14 17/69/17 24/49/24 7/51/7
f 15/72/15 21/70/21 20/50/20 4/52/4
f 16/100/16 23/102/23 22/86/22 8/88/8
f 17/69/17 25/67/25 32/53/32 24/49/24
f 18/85/18 26/81/26 25/67/25 17/69/17
f 19/101/19 27/95/27 26/81/26 18/85/18
f 20/50/20 28/54/28 27/37/27 19/34/19
f 21/70/21 29/68/29 28/54/28 20/50/20
f 22/86/22 30/82/30 29/68/29 21/70/21
f 23/102/23 31/96/31 30/82/30 22/86/22
f 24/49/24 32/53/32 31/38/31 23/33/23
f 25/67/25 33/65/33 40/57/40 32/53/32
f 26/81/26 34/79/34 33/65/33 25/67/25
f 27/95/27 35/93/35 34/79/34 26/81/26
f 28/54/28 36/58/36 35/44/35 27/37/27
f 29/68/29 37/66/37 36/58/36 28/54/28
f 30/82/30 38/80/38 37/66/37 29/68/29
f 31/96/31 39/94/39 38/80/38 30/82/30
f 32/53/32 40/57/40 39/43/39 31/38/31
f 33/65/33 41/63/41 48/59/48 40/57/40
f 34/79/34 42/75/42 41/63/41 33/65/33
f 35/93/35 43/83/43 42/75/42 34/79/34
f 36/58/36 44/60/44 43/46/43 35/44/35
f 37/66/37 45/64/45 44/60/44 36/58/36
f 38/80/38 46/76/46 45/64/45 37/66/37
f 39/94/39 47/84/47 46/76/46 38/80/38
f 40/57/40 48/59/48 47/45/47 39/43/39
f 41/63/41 49/61/49 56/47/56 48/59/48
f 42/75/42 50/77/50 49/61/49 41/63/41
f 43/83/43 51/91/51 50/77/50 42/75/42
f 44/60/44 52/48/52 51/42/51 43/46/43
f 45/64/45 53/62/53 52/48/52 44/60/44
f 46/76/46 54/78/54 53/62/53 45/64/45
f 47/84/47 55/92/55 54/78/54 46/76/46
f 48/59/48 56/47/56 55/41/55 47/45/47
f 49/10/49 57/11/57 64/16/64 56/19/56
f 50/5/50 58/8/58 57/11/57 49/10/49
f 51/2/51 59/7/59 58/8/58 50/5/50
f 52/6/52 60/9/60 59/7/59 51/2/51
f 53/15/53 61/12/61 60/9/60 52/6/52
f 54/20/54 62/17/62 61/12/61 53/15/53
f 55/23/55 63/18/63 62/17/62 54/20/54
f 56/19/56 64/16/64 63/18/63 55/23/55
f 58/27/58 59/25/59 60/26/60 61/28/61 62/30/62 63/32/63 64/31/64 57/29/57
