# Exported from Wings 3D 2.2.6.1
mtllib Chair.mtl
o Cube1
#118 vertices, 100 faces
v -1.00000000 1.00000000 -0.14000000
v -1.25000000 -1.14404707 -0.14000000
v -1.00000000 1.00000000 0.14000000
v -1.25000000 -1.14404707 0.14000000
v 1.00000000 1.00000000 -0.14000000
v 1.25000000 -1.14404707 -0.14000000
v 1.00000000 1.00000000 0.14000000
v 1.25000000 -1.14404707 0.14000000
v 1.00000000 0.74522601 0.14000000
v -1.00000000 0.74522601 0.14000000
v -0.65000000 0.74522601 0.14000000
v -0.65000000 1.00000000 0.14000000
v 0.65000000 1.00000000 0.14000000
v 0.65000000 0.74522601 0.14000000
v 0.25000000 1.00000000 0.14000000
v 0.25000000 0.74522601 0.14000000
v -0.25000000 1.00000000 0.14000000
v -0.25000000 0.74522601 0.14000000
v 0.25000000 1.00000000 1.83931333
v -0.25000000 1.00000000 1.83931333
v -0.25000000 0.76783901 1.83931333
v 0.25000000 0.76783901 1.83931333
v 0.65000000 1.00000000 1.83931333
v 0.65000000 0.76783901 1.83931333
v 1.22817639 0.76783901 1.83344982
v 1.22817639 1.00000000 1.83344982
v -0.65000000 0.76783901 1.83931333
v -0.65000000 1.00000000 1.83931333
v -1.22817639 1.00000000 1.83344982
v -1.22817639 0.76783901 1.83344982
v 0.29600000 1.00000000 2.80367092
v -0.29600000 1.00000000 2.80367092
v -0.29600000 0.76783901 2.80367092
v 0.29600000 0.76783901 2.80367092
v 0.60400000 1.00000000 2.80367092
v 0.60400000 0.76783901 2.80367092
v 1.34881362 0.76783901 2.80367092
v 1.34881362 1.00000000 2.80367092
v -0.60400000 0.76783901 2.80367092
v -0.60400000 1.00000000 2.80367092
v -1.34881362 1.00000000 2.80367092
v -1.34881362 0.76783901 2.80367092
v 0.29650000 1.00000000 3.11176439
v -0.29650000 1.00000000 3.11176439
v -0.29650000 0.76783901 3.11176439
v 0.29650000 0.76783901 3.11176439
v 0.77090000 1.00000000 3.11176439
v 0.77090000 0.76783901 3.11176439
v 1.22837347 0.76783901 2.99132424
v 1.22837347 1.00000000 2.99132424
v -0.77090000 0.76783901 3.11176439
v -0.77090000 1.00000000 3.11176439
v -1.22837347 1.00000000 2.99132424
v -1.22837347 0.76783901 2.99132424
v -1.11924958 -1.65153598 0.14000000
v -1.25000000 -1.52078556 0.14000000
v -1.11924958 -1.65153598 -0.14000000
v -1.25000000 -1.52078556 -0.14000000
v 1.11924958 -1.65153598 -0.14000000
v 1.25000000 -1.52078556 -0.14000000
v 1.11924958 -1.65153598 0.14000000
v 1.25000000 -1.52078556 0.14000000
v 0.83594800 -1.23594800 -2.51250826
v 0.83594800 -1.56405200 -2.51250826
v 0.83594800 -1.23594800 -8.4404257e-2
v 0.83594800 -1.56405200 -8.4404257e-2
v 1.16405200 -1.23594800 -2.51250826
v 1.16405200 -1.56405200 -2.51250826
v 1.16405200 -1.23594800 -8.4404257e-2
v 1.16405200 -1.56405200 -8.4404257e-2
v -1.16405200 -1.23594800 -2.51250826
v -1.16405200 -1.56405200 -2.51250826
v -1.16405200 -1.23594800 -8.4404257e-2
v -1.16405200 -1.56405200 -8.4404257e-2
v -0.83594800 -1.23594800 -2.51250826
v -0.83594800 -1.56405200 -2.51250826
v -0.83594800 -1.23594800 -8.4404257e-2
v -0.83594800 -1.56405200 -8.4404257e-2
v -0.96405200 0.96405200 -2.51250826
v -0.96405200 0.63594800 -2.51250826
v -0.96405200 0.96405200 -8.4404257e-2
v -0.96405200 0.63594800 -8.4404257e-2
v -0.63594800 0.96405200 -2.51250826
v -0.63594800 0.63594800 -2.51250826
v -0.63594800 0.96405200 -8.4404257e-2
v -0.63594800 0.63594800 -8.4404257e-2
v 0.63594800 0.96405200 -2.51250826
v 0.63594800 0.63594800 -2.51250826
v 0.63594800 0.96405200 -8.4404257e-2
v 0.63594800 0.63594800 -8.4404257e-2
v 0.96405200 0.96405200 -2.51250826
v 0.96405200 0.63594800 -2.51250826
v 0.96405200 0.96405200 -8.4404257e-2
v 0.96405200 0.63594800 -8.4404257e-2
v -1.16554500 -1.09018064 0.14000000
v 1.16554500 -1.09018064 0.14000000
v -1.16554500 -1.44146517 0.14000000
v -1.04362860 -1.56338157 0.14000000
v 1.04362860 -1.56338157 0.14000000
v 1.16554500 -1.44146517 0.14000000
v 0.93243600 0.67144559 0.14000000
v 0.60608340 0.67144559 0.14000000
v 0.23310900 0.67144559 0.14000000
v -0.23310900 0.67144559 0.14000000
v -0.60608340 0.67144559 0.14000000
v -0.93243600 0.67144559 0.14000000
v -1.05132159 -1.01732755 0.26800390
v 1.05132159 -1.01732755 0.26800390
v 0.84105727 0.57165931 0.26800390
v 0.54668723 0.57165931 0.26800390
v 0.21026432 0.57165931 0.26800390
v -0.21026432 0.57165931 0.26800390
v -0.54668723 0.57165931 0.26800390
v -0.84105727 0.57165931 0.26800390
v -1.05132159 -1.33418620 0.26800390
v -0.94135300 -1.44415479 0.26800390
v 0.94135300 -1.44415479 0.26800390
v 1.05132159 -1.33418620 0.26800390
vt 0.0000000e+0 0.78760032
vt 1.1017417e-2 0.80476615
vt 1.1035445e-2 0.69884811
vt 3.1908172e-2 0.51832426
vt 3.1908172e-2 0.54393762
vt 5.2865387e-2 0.81578357
vt 6.3924869e-2 0.54393762
vt 6.3924869e-2 0.69938448
vt 6.8132778e-2 0.78760032
vt 9.6261733e-2 0.81578357
vt 9.6307472e-2 0.78760032
vt 0.10051538 0.69938448
vt 0.10051538 0.54393762
vt 0.14625352 0.54393762
vt 0.14625352 0.69938448
vt 0.15046143 0.78760032
vt 0.15050717 0.81578357
vt 0.17863612 0.78760032
vt 0.18284403 0.54393762
vt 0.18284403 0.69938448
vt 0.19390351 0.81578357
vt 0.21190000 0.85008512
vt 0.21190000 0.87799694
vt 0.21190000 0.89958986
vt 0.21190000 0.95371546
vt 0.21192140 0.93276820
vt 0.21194013 0.82694444
vt 0.21197828 0.85234293
vt 0.21303793 0.87806765
vt 0.21486073 0.54393762
vt 0.21486073 0.51832426
vt 0.23524264 0.87806765
vt 0.23573346 0.69884811
vt 0.23575148 0.80476615
vt 0.24045254 0.90109936
vt 0.24161034 0.87960819
vt 0.24676890 0.78760032
vt 0.24827637 0.39765290
vt 0.25223622 0.16834524
vt 0.25223623 0.31463886
vt 0.25326890 0.53115149
vt 0.25326890 0.56561413
vt 0.26264347 0.42417429
vt 0.26522946 0.51919093
vt 0.27613797 0.76174357
vt 0.28236500 0.16834524
vt 0.29858556 0.42190536
vt 0.29900657 0.93281709
vt 0.29901101 0.95380431
vt 0.30200694 0.31413416
vt 0.30202382 0.41380657
vt 0.31239159 0.39765296
vt 0.31295258 0.39538394
vt 0.32976696 0.90589729
vt 0.33093088 0.88447521
vt 0.33942296 0.42190521
vt 0.33946590 0.39538383
vt 0.34342481 0.16607615
vt 0.34342537 0.31236977
vt 0.36711798 0.85039468
vt 0.36712488 0.82923244
vt 0.38646592 0.16607599
vt 0.38646648 0.31236961
vt 0.39042658 0.39538364
vt 0.39046972 0.42190501
vt 0.40974790 0.85173995
vt 0.40984124 0.87738938
vt 0.41693991 0.39538354
vt 0.41722484 0.39375296
vt 0.42759261 0.40990657
vt 0.42760949 0.31023416
vt 0.43130713 0.42190485
vt 0.44426465 0.85165375
vt 0.44431522 0.87727954
vt 0.44725142 0.16444524
vt 0.45278286 0.93061018
vt 0.45282425 0.95372321
vt 0.45679206 0.82895957
vt 0.45680060 0.85027273
vt 0.45909053 0.76174357
vt 0.46120146 0.85164543
vt 0.46120939 0.87724834
vt 0.46697295 0.42027429
vt 0.46999903 0.51919093
vt 0.47726143 0.85032497
vt 0.47738020 0.31073886
vt 0.47738020 0.16444524
vt 0.47745843 0.82901706
vt 0.48134005 0.39375290
vt 0.48195960 0.53115149
vt 0.48195960 0.56561413
vt 0.48633189 0.91438120
vt 0.48761057 0.89096345
vt 0.48926183 0.93026389
vt 0.48944731 0.95371546
vt 0.52063823 0.85102320
vt 0.52095227 0.82972189
vt 0.52282750 0.91621906
vt 0.52410734 0.89314209
vt 0.53376643 0.12685986
vt 0.53376643 0.34897378
vt 0.54313689 0.56788505
vt 0.54504939 0.52816769
vt 0.55260257 5.1123207e-2
vt 0.55260257 8.1136940e-2
vt 0.56131228 0.51285439
vt 0.56142721 0.57502471
vt 0.56188985 0.54183881
vt 0.56378017 0.12685986
vt 0.56378017 0.34897378
vt 0.56421728 0.85163113
vt 0.56434890 0.83036800
vt 0.56956969 0.75206902
vt 0.57272361 0.53082970
vt 0.58261630 5.1123207e-2
vt 0.58261630 8.1136940e-2
vt 0.58433570 0.73986360
vt 0.59379390 0.12685986
vt 0.59379390 0.34897378
vt 0.60633646 0.75769264
vt 0.61263004 5.1123207e-2
vt 0.61263004 8.1136940e-2
vt 0.61263004 5.1123207e-2
vt 0.61263004 8.1136940e-2
vt 0.61455627 0.74084599
vt 0.61851523 0.83038293
vt 0.61864075 0.85163081
vt 0.62380763 0.12685986
vt 0.62380763 0.34897378
vt 0.64264377 5.1123207e-2
vt 0.64264377 8.1136940e-2
vt 0.64605009 0.93091284
vt 0.64625506 0.95236480
vt 0.64728229 0.75851713
vt 0.64984314 0.74110209
vt 0.65382136 0.12685986
vt 0.65382136 0.34897378
vt 0.66180065 0.82979202
vt 0.66210724 0.85099387
vt 0.66586516 0.87722793
vt 0.66586878 0.85163113
vt 0.67265750 5.1123207e-2
vt 0.67265750 8.1136940e-2
vt 0.67637943 0.92471654
vt 0.67754723 0.90376327
vt 0.68274004 0.87723358
vt 0.68278654 0.85165942
vt 0.69409795 0.74099994
vt 0.69663933 0.75840935
vt 0.70502074 0.82911816
vt 0.70520788 0.85029853
vt 0.71711254 0.87731462
vt 0.71720212 0.85176382
vt 0.72533735 0.85023959
vt 0.72535615 0.82908679
vt 0.72962099 0.74066740
vt 0.73547003 0.92992254
vt 0.73570995 0.95144071
vt 0.73721197 0.75851713
vt 0.75989014 0.0000000e+0
vt 0.75989014 0.22211392
vt 0.75989014 0.22211392
vt 0.75989014 0.44422783
vt 0.75995669 0.73976550
vt 0.76332728 0.92956074
vt 0.76404712 0.92956074
vt 0.76431980 0.95110150
vt 0.76450257 0.90865090
vt 0.76909326 0.52989019
vt 0.77524921 0.75166417
vt 0.78019383 0.51180064
vt 0.78020725 0.54088470
vt 0.78106086 0.57389575
vt 0.78658206 3.7651492e-2
vt 0.78990387 0.0000000e+0
vt 0.78990387 0.22211392
vt 0.78990387 0.22211392
vt 0.78990387 0.44422783
vt 0.79493334 4.2418122e-2
vt 0.79578230 0.35757458
vt 0.79639682 0.52602339
vt 0.79720327 4.3816953e-3
vt 0.79948369 0.56669396
vt 0.80021872 1.3362852e-2
vt 0.80526009 0.41603454
vt 0.80754373 0.35632891
vt 0.81016756 0.40819125
vt 0.81027971 1.3903970e-2
vt 0.81448481 0.85055250
vt 0.81448905 0.82925627
vt 0.81584526 5.7743297e-3
vt 0.81776333 0.27597278
vt 0.81991760 0.0000000e+0
vt 0.81991760 0.22211392
vt 0.81991760 0.44422783
vt 0.82655405 0.21837331
vt 0.82754909 0.28156893
vt 0.83078089 0.43037225
vt 0.83244901 0.21174781
vt 0.83639002 0.43792170
vt 0.83761554 0.22866242
vt 0.84386653 0.23418479
vt 0.84502724 0.25790991
vt 0.84993134 0.0000000e+0
vt 0.84993134 0.22211392
vt 0.84993134 0.22211392
vt 0.84993134 0.44422783
vt 0.85030360 0.21270459
vt 0.85037133 0.18845002
vt 0.85366024 0.25244399
vt 0.85943451 0.19254965
vt 0.86190689 0.20663564
vt 0.87994507 0.0000000e+0
vt 0.87994507 0.22211392
vt 0.87994507 0.22211392
vt 0.87994507 0.44422783
vt 0.87994507 0.0000000e+0
vt 0.87994507 0.22211392
vt 0.89098794 0.87796360
vt 0.90995880 0.0000000e+0
vt 0.90995880 0.22211392
vt 0.91415266 0.85234293
vt 0.91423324 0.87789040
vt 0.93997253 0.0000000e+0
vt 0.93997253 0.22211392
vt 0.96998627 0.0000000e+0
vt 0.96998627 0.22211392
vt 0.97175990 0.82694444
vt 0.97179014 0.85039625
vt 1.00000000 0.0000000e+0
vt 1.00000000 0.22211392
vn -0.56100366 0.63100210 -0.53582762
vn -0.71443579 4.1482800e-2 -0.69847024
vn -0.68358519 0.72933751 -2.7894235e-2
vn -0.69584321 4.0403245e-2 0.71705635
vn 0.56100366 0.63100210 -0.53582762
vn 0.71443579 4.1482800e-2 -0.69847024
vn 0.68358519 0.72933751 -2.7894235e-2
vn 0.69584321 4.0403245e-2 0.71705635
vn 0.68224175 -0.30422002 0.66482808
vn -0.68224175 -0.30422002 0.66482808
vn 0.30039870 -0.30039732 0.90527459
vn 0.40824829 0.81649658 0.40824829
vn -0.40824829 0.81649658 0.40824829
vn -0.30039870 -0.30039732 0.90527459
vn 0.40824829 0.81649658 0.40824829
vn 0.30042311 -0.30039651 0.90526675
vn -0.40824829 0.81649658 0.40824829
vn -0.30042311 -0.30039651 0.90526675
vn 0.70680559 0.70720719 -1.6847788e-2
vn -0.70680559 0.70720719 -1.6847788e-2
vn -0.70686945 -0.70723978 -1.2143848e-2
vn 0.70686945 -0.70723978 -1.2143848e-2
vn -0.70680559 0.70720719 -1.6847788e-2
vn -0.70685466 -0.70725467 -1.2137976e-2
vn 0.70156643 -0.70737585 -8.6162321e-2
vn 0.70124328 0.70711141 -9.0836815e-2
vn 0.70685466 -0.70725467 -1.2137976e-2
vn 0.70680559 0.70720719 -1.6847788e-2
vn -0.70124328 0.70711141 -9.0836815e-2
vn -0.70156643 -0.70737585 -8.6162321e-2
vn 0.29987283 0.90064136 -0.31451777
vn -0.29987283 0.90064136 -0.31451777
vn -0.29987283 -0.90064136 -0.31451777
vn 0.29987283 -0.90064136 -0.31451777
vn -0.29987283 0.90064136 -0.31451777
vn -0.29987283 -0.90064136 -0.31451777
vn 0.66801217 -0.72850244 0.15180230
vn 0.66801217 0.72850244 0.15180230
vn 0.29987283 -0.90064136 -0.31451777
vn 0.29987283 0.90064136 -0.31451777
vn -0.66801217 0.72850244 0.15180230
vn -0.66801217 -0.72850244 0.15180230
vn 0.0000000e+0 0.70710678 0.70710678
vn 0.0000000e+0 0.70710678 0.70710678
vn 0.0000000e+0 -0.70710678 0.70710678
vn 0.0000000e+0 -0.70710678 0.70710678
vn 9.0386672e-2 0.71003754 0.69833870
vn 9.0386672e-2 -0.71003754 0.69833870
vn 0.51828516 -0.47281409 0.71262005
vn 0.51828516 0.47281409 0.71262005
vn -9.0386672e-2 -0.71003754 0.69833870
vn -9.0386672e-2 0.71003754 0.69833870
vn -0.51828516 0.47281409 0.71262005
vn -0.51828516 -0.47281409 0.71262005
vn -0.25968834 -0.62694312 0.73450956
vn -0.62694312 -0.25968834 0.73450956
vn -0.33655677 -0.81251992 -0.47596315
vn -0.81251992 -0.33655677 -0.47596315
vn 0.33655677 -0.81251992 -0.47596315
vn 0.81251992 -0.33655677 -0.47596315
vn 0.25968834 -0.62694312 0.73450956
vn 0.62694312 -0.25968834 0.73450956
vn -0.57735027 0.57735027 -0.57735027
vn -0.57735027 -0.57735027 -0.57735027
vn -0.70710678 0.70710678 -6.4663312e-17
vn -0.70710678 -0.70710678 6.4663312e-17
vn 0.57735027 0.57735027 -0.57735027
vn 0.57735027 -0.57735027 -0.57735027
vn 0.70710678 0.70710678 -6.4663312e-17
vn 0.70710678 -0.70710678 6.4663312e-17
vn -0.57735027 0.57735027 -0.57735027
vn -0.57735027 -0.57735027 -0.57735027
vn -0.70710678 0.70710678 -6.4663312e-17
vn -0.70710678 -0.70710678 6.4663312e-17
vn 0.57735027 0.57735027 -0.57735027
vn 0.57735027 -0.57735027 -0.57735027
vn 0.70710678 0.70710678 -6.4663312e-17
vn 0.70710678 -0.70710678 6.4663312e-17
vn -0.57735027 0.57735027 -0.57735027
vn -0.57735027 -0.57735027 -0.57735027
vn -0.70710678 0.70710678 -3.2331656e-17
vn -0.70710678 -0.70710678 3.2331656e-17
vn 0.57735027 0.57735027 -0.57735027
vn 0.57735027 -0.57735027 -0.57735027
vn 0.70710678 0.70710678 -3.2331656e-17
vn 0.70710678 -0.70710678 3.2331656e-17
vn -0.57735027 0.57735027 -0.57735027
vn -0.57735027 -0.57735027 -0.57735027
vn -0.70710678 0.70710678 -3.2331656e-17
vn -0.70710678 -0.70710678 3.2331656e-17
vn 0.57735027 0.57735027 -0.57735027
vn 0.57735027 -0.57735027 -0.57735027
vn 0.70710678 0.70710678 -3.2331656e-17
vn 0.70710678 -0.70710678 3.2331656e-17
vn -0.41789802 2.8091202e-2 0.90805954
vn 0.41789802 2.8091202e-2 0.90805954
vn -0.32534616 -0.12196856 0.93769587
vn -0.12163175 -0.32053923 0.93939359
vn 0.12163175 -0.32053923 0.93939359
vn 0.32534616 -0.12196856 0.93769587
vn 0.22320732 0.25804918 0.93999421
vn 0.0000000e+0 0.43885400 0.89855838
vn 0.0000000e+0 0.43885400 0.89855838
vn 0.0000000e+0 0.43885400 0.89855838
vn 0.0000000e+0 0.43885400 0.89855838
vn -0.22320732 0.25804918 0.93999421
vn -0.55088180 3.7030403e-2 0.83376135
vn 0.55088180 3.7030403e-2 0.83376135
vn 0.30396178 0.35140912 0.88550487
vn 0.0000000e+0 0.57753533 0.81636569
vn 0.0000000e+0 0.57753533 0.81636569
vn 0.0000000e+0 0.57753533 0.81636569
vn 0.0000000e+0 0.57753533 0.81636569
vn -0.30396178 0.35140912 0.88550487
vn -0.43356019 -0.16253676 0.88634494
vn -0.16207658 -0.42712451 0.88954811
vn 0.16207658 -0.42712451 0.88954811
vn 0.43356019 -0.16253676 0.88634494
g Cube1_Cube1_auv
usemtl Cube1_auv
s 1
f 1/80/1 5/45/5 6/42/6 2/91/2
f 2/66/2 4/67/4 10/32/10 3/23/3 1/28/1
f 2/66/2 58/73/58 56/74/56 4/67/4
f 3/30/3 12/19/12 17/14/17 15/13/15 13/7/13 7/5/7 5/4/5 1/31/1
f 3/30/3 29/33/29 28/20/28 12/19/12
f 4/174/4 56/182/56 97/184/97 95/179/95
f 5/222/5 7/223/7 9/219/9 8/152/8 6/153/6
f 6/42/6 60/41/60 59/44/59 57/84/57 58/90/58 2/91/2
f 7/229/7 26/189/26 25/190/25 9/228/9
f 8/152/8 62/146/62 60/147/60 6/153/6
f 8/210/8 96/203/96 100/208/100 62/212/62
f 9/46/9 25/50/25 24/40/24 14/39/14
f 9/200/9 101/198/101 96/203/96 8/210/8
f 10/27/10 30/61/30 29/60/29 3/22/3
f 10/196/10 106/199/106 105/202/105 11/201/11
f 11/87/11 27/86/27 30/71/30 10/75/10
f 11/201/11 105/202/105 104/197/104 18/192/18
f 12/92/12 28/54/28 27/55/27 11/93/11
f 13/95/13 15/77/15 16/76/16 14/94/14
f 13/7/13 23/8/23 26/3/26 7/5/7
f 14/94/14 24/132/24 23/133/23 13/95/13
f 14/185/14 102/187/102 101/198/101 9/200/9
f 15/77/15 19/49/19 22/48/22 16/76/16
f 16/62/16 22/63/22 21/59/21 18/58/18
f 16/180/16 103/186/103 102/187/102 14/185/14
f 17/14/17 20/15/20 19/12/19 15/13/15
f 18/99/18 17/98/17 12/92/12 11/93/11
f 18/99/18 21/145/21 20/144/20 17/98/17
f 18/192/18 104/197/104 103/186/103 16/180/16
f 19/49/19 31/25/31 34/26/34 22/48/22
f 20/15/20 32/16/32 31/11/31 19/12/19
f 21/145/21 33/168/33 32/165/32 20/144/20
f 22/63/22 34/64/34 33/57/33 21/59/21
f 23/8/23 35/9/35 38/1/38 26/3/26
f 24/132/24 36/157/36 35/158/35 23/133/23
f 25/50/25 37/52/37 36/38/36 24/40/24
f 26/189/26 38/154/38 37/155/37 25/190/25
f 27/86/27 39/89/39 42/69/42 30/71/30
f 28/54/28 40/35/40 39/36/39 27/55/27
f 29/33/29 41/37/41 40/18/40 28/20/28
f 30/61/30 42/78/42 41/79/41 29/60/29
f 31/167/31 35/158/35 36/157/36 34/166/34
f 32/16/32 40/18/40 52/21/52 44/17/44
f 32/16/32 44/17/44 43/10/43 31/11/31
f 33/29/33 39/36/39 40/35/40 32/24/32
f 34/64/34 36/68/36 48/72/48 46/65/46
f 34/64/34 46/65/46 45/56/45 33/57/33
f 35/9/35 47/6/47 50/2/50 38/1/38
f 37/52/37 49/51/49 48/43/48 36/38/36
f 38/154/38 50/151/50 49/150/49 37/155/37
f 39/89/39 51/83/51 54/70/54 42/69/42
f 41/37/41 53/34/53 52/21/52 40/18/40
f 42/78/42 54/88/54 53/85/53 41/79/41
f 43/10/43 47/6/47 35/9/35 31/11/31
f 44/111/44 45/112/45 46/126/46 43/127/43
f 44/111/44 52/96/52 51/97/51 45/112/45
f 45/56/45 51/47/51 39/53/39 33/57/33
f 46/126/46 48/138/48 47/139/47 43/127/43
f 48/138/48 49/150/49 50/151/50 47/139/47
f 52/96/52 53/85/53 54/88/54 51/97/51
f 55/82/55 57/81/57 59/141/59 61/140/61
f 55/191/55 98/188/98 97/184/97 56/182/56
f 56/74/56 58/73/58 57/81/57 55/82/55
f 61/211/61 99/209/99 98/188/98 55/191/55
f 62/146/62 61/140/61 59/141/59 60/147/60
f 62/212/62 100/208/100 99/209/99 61/211/61
f 63/116/63 67/105/67 68/104/68 64/115/64
f 64/227/64 66/226/66 65/230/65 63/231/63
f 64/227/64 68/225/68 70/224/70 66/226/66
f 65/217/65 69/220/69 67/221/67 63/218/63
f 67/221/67 69/220/69 70/224/70 68/225/68
f 71/124/71 75/116/75 76/115/76 72/123/72
f 72/119/72 74/118/74 73/128/73 71/129/71
f 72/119/72 76/110/76 78/109/78 74/118/74
f 73/128/73 77/136/77 75/137/75 71/129/71
f 75/101/75 77/100/77 78/109/78 76/110/76
f 79/131/79 83/122/83 84/121/84 80/130/80
f 80/177/80 82/175/82 81/193/81 79/194/79
f 80/177/80 84/162/84 86/160/86 82/175/82
f 81/193/81 85/204/85 83/205/83 79/194/79
f 83/205/83 85/204/85 86/213/86 84/214/84
f 87/143/87 91/131/91 92/130/92 88/142/88
f 88/163/88 90/161/90 89/176/89 87/178/87
f 88/216/88 92/207/92 94/206/94 90/215/90
f 89/176/89 93/194/93 91/195/91 87/178/87
f 91/195/91 93/194/93 94/206/94 92/207/92
f 95/102/95 97/103/97 115/108/115 107/107/107
f 95/179/95 106/199/106 10/196/10 4/174/4
f 96/183/96 108/173/108 118/172/118 100/181/100
f 98/106/98 116/114/116 115/108/115 97/103/97
f 99/171/99 117/169/117 116/114/116 98/106/98
f 100/181/100 118/172/118 117/169/117 99/171/99
f 101/170/101 109/164/109 108/173/108 96/183/96
f 102/159/102 110/156/110 109/164/109 101/170/101
f 103/149/103 111/148/111 110/156/110 102/159/102
f 104/134/104 112/135/112 111/148/111 103/149/103
f 105/120/105 113/125/113 112/135/112 104/134/104
f 106/113/106 114/117/114 113/125/113 105/120/105
f 107/107/107 114/117/114 106/113/106 95/102/95
f 109/164/109 110/156/110 111/148/111 112/135/112 113/125/113 114/117/114 107/107/107 115/108/115 116/114/116 117/169/117 118/172/118 108/173/108
