# Exported from Wings 3D 2.1.6
mtllib MilkCarton.mtl
o Cube1
#42 vertices, 39 faces
v -0.40600000 0.40600000 -0.82336800
v -0.40600000 -0.40600000 -0.82336800
v -0.40600000 0.40600000 0.82336800
v -0.40600000 -0.40600000 0.82336800
v 0.40600000 0.40600000 -0.82336800
v 0.40600000 -0.40600000 -0.82336800
v 0.40600000 0.40600000 0.82336800
v 0.40600000 -0.40600000 0.82336800
v 0.40600000 8.0616753e-17 1.31657148
v -0.40600000 8.0616753e-17 1.31657148
v -0.33210800 5.5983286e-17 0.91427644
v 0.33210800 5.5983286e-17 0.91427644
v -0.11646641 -0.27935947 0.94935696
v 0.11646641 -0.27935947 0.94935696
v 0.11646641 -0.12664053 1.10129015
v -0.11646641 -0.12664053 1.10129015
v 0.0000000e+0 -0.30481262 0.92403477
v 0.15528854 -0.20300000 1.02532356
v 0.0000000e+0 -0.10118738 1.12661234
v -0.15528854 -0.20300000 1.02532356
v 0.0000000e+0 -0.40600000 0.82336800
v 0.40600000 -0.20300000 1.02532356
v 0.0000000e+0 8.0616753e-17 1.31657148
v -0.40600000 -0.20300000 1.02532356
v -0.15528854 -0.27229198 1.09497389
v -0.11646641 -0.34865144 1.01900730
v -2.2550444e-18 -0.37410460 0.99368510
v 0.11646641 -0.34865144 1.01900730
v 0.15528854 -0.27229198 1.09497389
v 0.11646641 -0.19593251 1.17094048
v -2.2550444e-18 -0.17047936 1.19626268
v -0.11646641 -0.19593251 1.17094048
v 0.36550898 -2.1296957e-2 1.20965967
v 0.40600000 -4.1640528e-2 1.19372352
v 0.39506861 7.2313819e-17 1.18097429
v 0.40600000 4.4031454e-2 1.19372352
v -0.36550898 -2.1296957e-2 1.20965967
v -0.40600000 -4.1640528e-2 1.19372352
v -0.39506861 7.2313819e-17 1.18097429
v -0.40600000 4.4031454e-2 1.19372352
v 0.0000000e+0 -4.1640528e-2 1.19372352
v 0.0000000e+0 4.4031454e-2 1.19372352
vt 1.2802614e-2 0.69691425
vt 1.2802614e-2 0.91286778
vt 0.22875615 0.69691425
vt 0.22875615 0.91286778
vt 0.25432504 5.2483928e-2
vt 0.25435503 0.56668835
vt 0.25438368 0.62873733
vt 0.25440342 0.49048882
vt 0.25452793 0.62825593
vt 0.25452793 0.49052830
vt 0.25452793 0.66296289
vt 0.25452793 5.2574539e-2
vt 0.25458244 0.66405377
vt 0.26533751 0.63515867
vt 0.31615406 0.72342223
vt 0.31669630 0.76731585
vt 0.31703813 0.76474367
vt 0.31756505 0.72084987
vt 0.32116116 0.56665942
vt 0.33147612 0.53790211
vt 0.33150036 0.59537680
vt 0.36236293 0.52835739
vt 0.36238697 0.60504830
vt 0.36240584 0.49049169
vt 0.36241895 0.62898990
vt 0.36246632 0.66349517
vt 0.36250470 0.62825593
vt 0.36250470 0.66296289
vt 0.37060368 0.72274958
vt 0.37114592 0.76664320
vt 0.37148798 0.76539732
vt 0.37201490 0.72150351
vt 0.39329070 0.59538047
vt 0.39333390 0.53800533
vt 0.40365653 0.56662464
vt 0.42175569 0.72211766
vt 0.42229793 0.76601128
vt 0.42264020 0.76601138
vt 0.42316713 0.72211757
vt 0.45947938 0.63512521
vt 0.47030261 5.2457973e-2
vt 0.47030261 0.66398063
vt 0.47038571 0.49046211
vt 0.47039082 0.56646645
vt 0.47042747 0.62865778
vt 0.47048147 0.49052830
vt 0.47048147 0.62825593
vt 0.47048147 0.66296289
vt 0.47048147 5.2574539e-2
vt 0.47290770 0.72148575
vt 0.47344994 0.76537937
vt 0.47379243 0.76662543
vt 0.47431936 0.72273163
vt 0.52735732 0.72081310
vt 0.52789956 0.76470672
vt 0.52824228 0.76727908
vt 0.52876921 0.72338527
vt 0.55461826 0.76583506
vt 0.57196400 0.71770968
vt 0.57196400 0.81396045
vt 0.62400124 0.70166789
vt 0.62400124 0.83000224
vt 0.67483028 5.0675385e-2
vt 0.67603848 0.71770968
vt 0.67603848 0.81396045
vt 0.67636389 0.48680908
vt 0.67647804 0.48851741
vt 0.67664984 4.8835254e-2
vt 0.69338422 0.76583506
vt 0.76894981 0.59209919
vt 0.76947872 0.59375536
vt 0.77975473 0.62663145
vt 0.78123080 0.62886222
vt 0.78138013 0.58899023
vt 0.78237679 0.59030409
vt 0.78422174 0.51677629
vt 0.78443502 0.51806430
vt 0.79330049 0.59329194
vt 0.79440818 0.59450307
vt 0.84086479 0.54687273
vt 0.84131497 0.54774808
vt 0.89071660 4.9952075e-2
vt 0.89212339 0.48701732
vt 0.89218347 0.48776955
vt 0.89260005 4.9070295e-2
vn -0.57735027 0.57735027 -0.57735027
vn -0.57735027 -0.57735027 -0.57735027
vn -0.82536992 0.45330109 0.33657483
vn -0.69095005 -0.55503935 0.46316234
vn 0.57735027 0.57735027 -0.57735027
vn 0.57735027 -0.57735027 -0.57735027
vn 0.82536992 0.45330109 0.33657483
vn 0.69095005 -0.55503935 0.46316234
vn 0.81218686 -0.45067661 0.37046336
vn -0.81218686 -0.45067661 0.37046336
vn -0.99743989 1.4100166e-3 7.1496035e-2
vn 0.99743989 1.4100166e-3 7.1496035e-2
vn -0.46031426 -0.86760586 0.18807139
vn 0.46031426 -0.86760586 0.18807139
vn 0.46291526 -0.19803634 0.86399715
vn -0.46291526 -0.19803634 0.86399715
vn 2.0066354e-17 -0.99968079 2.5264948e-2
vn 0.68317516 -0.51734688 0.51538714
vn -4.0945844e-17 -4.0680364e-2 0.99917221
vn -0.68317516 -0.51734688 0.51538714
vn 0.0000000e+0 -0.86195312 0.50698799
vn 0.48643034 -0.61932874 0.61629330
vn -5.7946859e-18 -3.9768871e-2 0.99920891
vn -0.48643034 -0.61932874 0.61629330
vn -0.88302945 -0.33100063 0.33271245
vn -0.60262285 -0.79178498 -9.9610444e-2
vn 2.5734779e-17 -0.95510895 -0.29625477
vn 0.60262285 -0.79178498 -9.9610444e-2
vn 0.88302945 -0.33100063 0.33271245
vn 0.60262285 0.10369337 0.79126063
vn -5.1469558e-17 0.30117755 0.95356808
vn -0.60262285 0.10369337 0.79126063
vn -8.1846100e-2 -0.85860070 0.50606922
vn 0.75944902 -0.55495377 0.33950478
vn 0.98820693 4.0348228e-3 -0.15307117
vn 0.80309069 0.50943415 0.30906663
vn 8.1846100e-2 -0.85860070 0.50606922
vn -0.75944902 -0.55495377 0.33950478
vn -0.98820693 4.0348228e-3 -0.15307117
vn -0.80309069 0.50943415 0.30906663
vn -1.7871285e-18 -0.87453930 0.48495466
vn 0.0000000e+0 0.88400950 0.46746894
g Cube1_Cube1_auv
usemtl Cube1_auv
s 1
f 1/4/1 5/2/5 6/1/6 2/3/2
f 2/82/2 4/84/4 3/67/3 1/63/1
f 2/5/2 6/41/6 8/43/8 21/24/21 4/8/4
f 3/46/3 7/10/7 5/12/5 1/49/1
f 3/67/3 11/77/11 39/75/39 40/71/40
f 5/68/5 7/66/7 8/83/8 6/85/6
f 8/43/8 22/44/22 18/35/18 14/34/14
f 9/42/9 23/26/23 41/25/41 33/40/33
f 9/42/9 33/40/33 34/45/34
f 9/11/9 36/9/36 42/27/42 23/28/23
f 10/13/10 37/14/37 41/25/41 23/26/23
f 10/73/10 39/75/39 38/79/38
f 10/73/10 40/71/40 39/75/39
f 11/77/11 3/67/3 4/84/4
f 11/77/11 4/84/4 24/81/24 38/79/38 39/75/39
f 12/76/12 8/83/8 7/66/7
f 13/20/13 20/19/20 24/6/24 4/8/4
f 13/53/13 26/52/26 25/38/25 20/39/20
f 14/29/14 28/30/28 27/16/27 17/15/17
f 15/50/15 30/51/30 29/37/29 18/36/18
f 15/33/15 33/40/33 41/25/41 19/23/19
f 16/32/16 32/31/32 31/17/31 19/18/19
f 16/21/16 37/14/37 38/7/38 24/6/24 20/19/20
f 17/22/17 21/24/21 8/43/8 14/34/14
f 17/57/17 27/56/27 26/52/26 13/53/13
f 18/35/18 22/44/22 34/45/34 33/40/33 15/33/15
f 18/36/18 29/37/29 28/30/28 14/29/14
f 19/54/19 31/55/31 30/51/30 15/50/15
f 19/23/19 41/25/41 37/14/37 16/21/16
f 20/39/20 25/38/25 32/31/32 16/32/16
f 21/24/21 17/22/17 13/20/13 4/8/4
f 23/28/23 42/27/42 40/47/40 10/48/10
f 26/59/26 27/61/27 28/64/28 29/69/29 30/65/30 31/62/31 32/60/32 25/58/25
f 34/78/34 35/74/35 9/72/9
f 35/74/35 34/78/34 22/80/22 8/83/8 12/76/12
f 35/74/35 36/70/36 9/72/9
f 36/70/36 35/74/35 12/76/12 7/66/7
f 38/7/38 37/14/37 10/13/10
f 40/47/40 42/27/42 36/9/36 7/10/7 3/46/3
