# Exported from Wings 3D 2.2.6.1
mtllib Oven.mtl
o Cube1
#183 vertices, 110 faces
v -0.31454148 -0.87909814 0.67798937
v -0.31454148 -0.87909814 0.83806137
v 0.31454148 -0.87909814 0.67798937
v 0.31454148 -0.87909814 0.83806137
v -0.27996169 -1.03917014 0.67798937
v -0.31454148 -1.00459035 0.67798937
v -0.27996169 -1.03917014 0.83806137
v -0.31454148 -1.00459035 0.83806137
v 0.27996169 -1.03917014 0.67798937
v 0.31454148 -1.00459035 0.67798937
v 0.27996169 -1.03917014 0.83806137
v 0.31454148 -1.00459035 0.83806137
v -0.25977508 1.03877933 1.11767947
v -0.25977508 1.06632323 1.29437807
v -0.44879367 1.06632323 1.29437807
v -0.44879367 1.03877933 1.11767947
v -0.22827198 1.05255128 1.20602877
v -0.35428437 1.07091388 1.32382784
v -0.48029677 1.05255128 1.20602877
v -0.35428437 1.03418869 1.08822970
v -0.35428437 0.96833464 1.09849507
v -0.25977508 0.97292529 1.12794484
v -0.22827198 0.98669724 1.21629414
v -0.25977508 1.00046919 1.30464344
v -0.35428437 1.00505984 1.33409321
v -0.44879367 1.00046919 1.30464344
v -0.48029677 0.98669724 1.21629414
v -0.44879367 0.97292529 1.12794484
v 0.44022492 1.03877933 1.11767947
v 0.44022492 1.06632323 1.29437807
v 0.25120633 1.06632323 1.29437807
v 0.25120633 1.03877933 1.11767947
v 0.47172802 1.05255128 1.20602877
v 0.34571563 1.07091388 1.32382784
v 0.21970323 1.05255128 1.20602877
v 0.34571563 1.03418869 1.08822970
v 0.34571563 0.96833464 1.09849507
v 0.44022492 0.97292529 1.12794484
v 0.47172802 0.98669724 1.21629414
v 0.44022492 1.00046919 1.30464344
v 0.34571563 1.00505984 1.33409321
v 0.25120633 1.00046919 1.30464344
v 0.21970323 0.98669724 1.21629414
v 0.25120633 0.97292529 1.12794484
v 0.84022492 1.03877933 1.11767947
v 0.84022492 1.06632323 1.29437807
v 0.65120633 1.06632323 1.29437807
v 0.65120633 1.03877933 1.11767947
v 0.87172802 1.05255128 1.20602877
v 0.74571563 1.07091388 1.32382784
v 0.61970323 1.05255128 1.20602877
v 0.74571563 1.03418869 1.08822970
v 0.74571563 0.96833464 1.09849507
v 0.84022492 0.97292529 1.12794484
v 0.87172802 0.98669724 1.21629414
v 0.84022492 1.00046919 1.30464344
v 0.74571563 1.00505984 1.33409321
v 0.65120633 1.00046919 1.30464344
v 0.61970323 0.98669724 1.21629414
v 0.65120633 0.97292529 1.12794484
v -0.65977508 1.03877933 1.11767947
v -0.65977508 1.06632323 1.29437807
v -0.84879367 1.06632323 1.29437807
v -0.84879367 1.03877933 1.11767947
v -0.62827198 1.05255128 1.20602877
v -0.75428437 1.07091388 1.32382784
v -0.88029677 1.05255128 1.20602877
v -0.75428437 1.03418869 1.08822970
v -0.75428437 0.96833464 1.09849507
v -0.65977508 0.97292529 1.12794484
v -0.62827198 0.98669724 1.21629414
v -0.65977508 1.00046919 1.30464344
v -0.75428437 1.00505984 1.33409321
v -0.84879367 1.00046919 1.30464344
v -0.88029677 0.98669724 1.21629414
v -0.84879367 0.97292529 1.12794484
v 0.82783200 0.21339022 1.00000000
v 0.82783200 0.83372089 1.00000000
v 0.17216800 0.83372089 1.00000000
v 0.17216800 0.21339022 1.00000000
v 0.93710933 0.52355556 1.00000000
v 0.50000000 0.93710933 1.00000000
v 6.2890667e-2 0.52355556 1.00000000
v 0.50000000 0.11000178 1.00000000
v 0.50000000 0.11000178 1.03523215
v 0.82783200 0.21339022 1.03523215
v 0.93710933 0.52355556 1.03523215
v 0.82783200 0.83372089 1.03523215
v 0.50000000 0.93710933 1.03523215
v 0.17216800 0.83372089 1.03523215
v 6.2890667e-2 0.52355556 1.03523215
v 0.17216800 0.21339022 1.03523215
v -0.17216800 -0.68660978 1.00000000
v -0.17216800 -6.6279111e-2 1.00000000
v -0.82783200 -6.6279111e-2 1.00000000
v -0.82783200 -0.68660978 1.00000000
v -6.2890667e-2 -0.37644444 1.00000000
v -0.50000000 3.7109333e-2 1.00000000
v -0.93710933 -0.37644444 1.00000000
v -0.50000000 -0.78999822 1.00000000
v -0.50000000 -0.78999822 1.03523215
v -0.17216800 -0.68660978 1.03523215
v -6.2890667e-2 -0.37644444 1.03523215
v -0.17216800 -6.6279111e-2 1.03523215
v -0.50000000 3.7109333e-2 1.03523215
v -0.82783200 -6.6279111e-2 1.03523215
v -0.93710933 -0.37644444 1.03523215
v -0.82783200 -0.68660978 1.03523215
v 0.82783200 -0.68660978 1.00000000
v 0.82783200 -6.6279111e-2 1.00000000
v 0.17216800 -6.6279111e-2 1.00000000
v 0.17216800 -0.68660978 1.00000000
v 0.93710933 -0.37644444 1.00000000
v 0.50000000 3.7109333e-2 1.00000000
v 6.2890667e-2 -0.37644444 1.00000000
v 0.50000000 -0.78999822 1.00000000
v 0.50000000 -0.78999822 1.03523215
v 0.82783200 -0.68660978 1.03523215
v 0.93710933 -0.37644444 1.03523215
v 0.82783200 -6.6279111e-2 1.03523215
v 0.50000000 3.7109333e-2 1.03523215
v 0.17216800 -6.6279111e-2 1.03523215
v 6.2890667e-2 -0.37644444 1.03523215
v 0.17216800 -0.68660978 1.03523215
v -0.17216800 0.21339022 1.00000000
v -0.17216800 0.83372089 1.00000000
v -0.82783200 0.83372089 1.00000000
v -0.82783200 0.21339022 1.00000000
v -6.2890667e-2 0.52355556 1.00000000
v -0.50000000 0.93710933 1.00000000
v -0.93710933 0.52355556 1.00000000
v -0.50000000 0.11000178 1.00000000
v -0.50000000 0.11000178 1.03523215
v -0.17216800 0.21339022 1.03523215
v -6.2890667e-2 0.52355556 1.03523215
v -0.17216800 0.83372089 1.03523215
v -0.50000000 0.93710933 1.03523215
v -0.82783200 0.83372089 1.03523215
v -0.93710933 0.52355556 1.03523215
v -0.82783200 0.21339022 1.03523215
v -1.00000000 1.00000000 -1.00000000
v -1.00000000 -0.90577778 -1.00000000
v -1.00000000 1.00000000 1.00000000
v 1.00000000 1.00000000 -1.00000000
v 1.00000000 -0.90577778 -1.00000000
v 1.00000000 1.00000000 1.00000000
v -1.00000000 1.49636680 -1.00000000
v -1.00000000 1.49636680 1.00000000
v 1.00000000 1.49636680 1.00000000
v 1.00000000 1.49636680 -1.00000000
v 1.00000000 1.49636680 1.50261470
v -1.00000000 1.49636680 1.50261470
v -1.00000000 1.06411101 1.43850369
v 1.00000000 1.06411101 1.43850369
v -0.85400000 -0.90577778 0.53065563
v -0.85400000 -0.90577778 -0.82932229
v 0.85400000 -0.90577778 -0.82932229
v 0.85400000 -0.90577778 0.53065563
v -0.85400000 -0.83182222 0.53065563
v -0.85400000 -0.83182222 -0.82932229
v 0.85400000 -0.83182222 -0.82932229
v 0.85400000 -0.83182222 0.53065563
v 1.00000000 4.7111111e-2 1.00000000
v -1.00000000 4.7111111e-2 1.00000000
v 0.0000000e+0 1.00000000 1.00000000
v -1.00000000 -0.42933333 1.00000000
v 1.00000000 0.52355556 1.00000000
v 0.50000000 1.00000000 1.00000000
v 1.00000000 -0.42933333 1.00000000
v -0.50000000 1.00000000 1.00000000
v -1.00000000 0.52355556 1.00000000
v -0.98548204 -0.90577778 0.95332928
v -1.00000000 -0.90577778 0.95112335
v -1.00000000 -0.85690112 1.00000000
v 0.98548204 -0.90577778 0.95332928
v 1.00000000 -0.90577778 0.95112335
v 1.00000000 -0.85690112 1.00000000
v -0.50000000 -0.85690112 1.00000000
v 0.0000000e+0 -0.85690112 1.00000000
v 0.50000000 -0.85690112 1.00000000
v 0.50000000 -0.90577778 0.95112335
v 0.0000000e+0 -0.90577778 0.95112335
v -0.50000000 -0.90577778 0.95112335
vt 3.7420709e-2 0.36536783
vt 3.7420709e-2 0.29599724
vt 3.7420709e-2 1.9958396e-2
vt 3.8772670e-2 0.29704571
vt 3.8772670e-2 2.1006865e-2
vt 3.8772670e-2 0.36641630
vt 3.9732984e-2 0.59186663
vt 3.9732984e-2 0.40416327
vt 4.5854984e-2 0.78475502
vt 4.5854984e-2 0.84506734
vt 4.5854984e-2 0.72358957
vt 9.7080402e-2 0.35651926
vt 9.8432363e-2 0.35756773
vt 0.10592897 0.29599724
vt 0.10592897 1.9958396e-2
vt 0.10728093 0.29704571
vt 0.10728093 2.1006865e-2
vt 0.11486469 0.72358957
vt 0.17168755 0.29599724
vt 0.17303951 0.29704571
vt 0.18387440 0.72358957
vt 0.23744614 0.29599724
vt 0.23879810 0.29704571
vt 0.25288412 0.72358957
vt 0.27547015 0.40416327
vt 0.27547015 0.59186663
vt 0.30320473 0.29599724
vt 0.30455669 0.29704571
vt 0.31360692 0.69519644
vt 0.31360692 0.36291257
vt 0.31360692 0.42964708
vt 0.31413692 0.36269508
vt 0.31413692 0.62572942
vt 0.31413692 0.69423768
vt 0.32189383 0.84506734
vt 0.32189383 0.72358957
vt 0.32189383 0.78475502
vt 0.34821230 0.90251144
vt 0.34821230 0.93909752
vt 0.36221738 0.29599724
vt 0.36356935 0.29704571
vt 0.36896331 0.28925131
vt 0.36896331 1.9958396e-2
vt 0.37031527 2.1006865e-2
vt 0.37031527 0.29029978
vt 0.37689482 0.90251144
vt 0.37689482 0.93909752
vt 0.38807215 0.90251144
vt 0.38807215 0.93909752
vt 0.44521045 0.79474416
vt 0.45332164 0.84827527
vt 0.46357205 0.80206918
vt 0.46692905 0.75143739
vt 0.47089744 0.79839628
vt 0.47532733 0.83543457
vt 0.47532733 0.76870379
vt 0.47638936 0.82960962
vt 0.48193929 0.77044537
vt 0.50574124 0.86806172
vt 0.50779009 0.84178143
vt 0.51059318 0.75758199
vt 0.51059318 0.84655637
vt 0.51442728 0.76209200
vt 0.51604832 0.90251144
vt 0.51604832 0.93909752
vt 0.51647614 0.73581172
vt 0.52722565 0.90251144
vt 0.52722565 0.93909752
vt 0.54027809 0.83342807
vt 0.54582802 0.77426382
vt 0.54585903 0.83543457
vt 0.54585903 0.76870379
vt 0.55528833 0.85243604
vt 0.55529023 0.80547716
vt 0.55590817 0.90251144
vt 0.55590817 0.93909752
vt 0.55761431 0.80206918
vt 0.56889574 0.75559817
vt 0.58097723 0.80912928
vt 0.58964576 0.69519644
vt 0.58964576 0.36291257
vt 0.58964576 0.42964708
vt 0.59017576 0.62572942
vt 0.59017576 0.69423768
vt 0.59017576 0.36269508
vt 0.61704415 1.0043414e-2
vt 0.61706831 0.34093259
vt 0.61707062 0.35274983
vt 0.61953202 0.34129141
vt 0.64180591 3.8987229e-2
vt 0.64182260 0.26962406
vt 0.65618527 1.9403021e-2
vt 0.65618527 3.3703211e-2
vt 0.65751776 0.38878304
vt 0.65751776 0.44779570
vt 0.65751776 0.51355429
vt 0.65751776 0.57931287
vt 0.65751776 0.64507146
vt 0.67672357 0.86208225
vt 0.68503637 0.86402292
vt 0.68568317 0.86235945
vt 0.70172542 0.69126339
vt 0.70172542 0.73228245
vt 0.70181225 0.69087883
vt 0.70181225 0.73189788
vt 0.70185517 0.34092870
vt 0.70186230 0.35265120
vt 0.70535496 0.95036221
vt 0.71080674 0.77638744
vt 0.71158752 0.94410467
vt 0.71302835 0.67996046
vt 0.71311519 0.67957590
vt 0.71334984 0.94438594
vt 0.71334984 0.78365990
vt 0.71650652 0.78263651
vt 0.71680490 3.3703211e-2
vt 0.71680490 1.9403021e-2
vt 0.72652747 0.64507146
vt 0.72652747 0.38878304
vt 0.78664804 0.34092295
vt 0.78664852 0.35264421
vt 0.79293727 1.9403021e-2
vt 0.79293727 3.3703211e-2
vt 0.79553718 0.38878304
vt 0.79553718 0.64507146
vt 0.79688222 0.98124851
vt 0.79698767 0.97218567
vt 0.79829025 0.97117362
vt 0.79829025 0.75687222
vt 0.80214157 0.75661274
vt 0.80224702 0.74754990
vt 0.85355690 1.9403021e-2
vt 0.85355690 3.3703211e-2
vt 0.86454689 0.38878304
vt 0.86454689 0.64507146
vt 0.87143470 0.35264425
vt 0.87144088 0.34092177
vt 0.88262272 0.94616191
vt 0.88323066 0.78365990
vt 0.88323066 0.94438594
vt 0.88754172 0.78469374
vt 0.88832250 0.95241097
vt 0.89377428 0.77843620
vt 0.89604789 0.67996046
vt 0.89613472 0.67957590
vt 0.90735082 0.69126339
vt 0.90735082 0.73228245
vt 0.90743766 0.73189788
vt 0.90743766 0.69087883
vt 0.91154413 0.86402292
vt 0.91344607 0.86643896
vt 0.92240567 0.86671617
vt 0.92968927 1.9403021e-2
vt 0.92968927 3.3703211e-2
vt 0.93146664 3.8975593e-2
vt 0.93146771 0.26961230
vt 0.93355660 0.38878304
vt 0.93355660 0.44779570
vt 0.93355660 0.51355429
vt 0.93355660 0.57931287
vt 0.93355660 0.64507146
vt 0.95376384 0.34127788
vt 0.95622613 1.0029833e-2
vt 0.95622613 0.35273605
vt 0.95622751 0.34091888
vn -0.70710678 -4.9632691e-16 -0.70710678
vn -0.70710678 4.9632691e-16 0.70710678
vn 0.70710678 -4.9632691e-16 -0.70710678
vn 0.70710678 4.9632691e-16 0.70710678
vn -0.33655677 -0.81251992 -0.47596315
vn -0.81251992 -0.33655677 -0.47596315
vn -0.33655677 -0.81251992 0.47596315
vn -0.81251992 -0.33655677 0.47596315
vn 0.33655677 -0.81251992 -0.47596315
vn 0.81251992 -0.33655677 -0.47596315
vn 0.33655677 -0.81251992 0.47596315
vn 0.81251992 -0.33655677 0.47596315
vn 0.60689642 0.38542537 -0.69507123
vn 0.60689642 0.57869474 0.54478356
vn -0.60689642 0.57869474 0.54478356
vn -0.60689642 0.38542537 -0.69507123
vn 0.88352728 0.46279082 -7.2140133e-2
vn 0.0000000e+0 0.59520030 0.80357738
vn -0.88352728 0.46279082 -7.2140133e-2
vn 0.0000000e+0 0.32237990 -0.94661037
vn 2.5775530e-17 -0.59520030 -0.80357738
vn 0.60689642 -0.57869474 -0.54478356
vn 0.88352728 -0.46279082 7.2140133e-2
vn 0.60689642 -0.38542537 0.69507123
vn 2.5775530e-17 -0.32237990 0.94661037
vn -0.60689642 -0.38542537 0.69507123
vn -0.88352728 -0.46279082 7.2140133e-2
vn -0.60689642 -0.57869474 -0.54478356
vn 0.60689642 0.38542537 -0.69507123
vn 0.60689642 0.57869474 0.54478356
vn -0.60689642 0.57869474 0.54478356
vn -0.60689642 0.38542537 -0.69507123
vn 0.88352728 0.46279082 -7.2140133e-2
vn 0.0000000e+0 0.59520030 0.80357738
vn -0.88352728 0.46279082 -7.2140133e-2
vn 0.0000000e+0 0.32237990 -0.94661037
vn 2.5775530e-17 -0.59520030 -0.80357738
vn 0.60689642 -0.57869474 -0.54478356
vn 0.88352728 -0.46279082 7.2140133e-2
vn 0.60689642 -0.38542537 0.69507123
vn 2.5775530e-17 -0.32237990 0.94661037
vn -0.60689642 -0.38542537 0.69507123
vn -0.88352728 -0.46279082 7.2140133e-2
vn -0.60689642 -0.57869474 -0.54478356
vn 0.60689642 0.38542537 -0.69507123
vn 0.60689642 0.57869474 0.54478356
vn -0.60689642 0.57869474 0.54478356
vn -0.60689642 0.38542537 -0.69507123
vn 0.88352728 0.46279082 -7.2140133e-2
vn 0.0000000e+0 0.59520030 0.80357738
vn -0.88352728 0.46279082 -7.2140133e-2
vn 0.0000000e+0 0.32237990 -0.94661037
vn 2.5775530e-17 -0.59520030 -0.80357738
vn 0.60689642 -0.57869474 -0.54478356
vn 0.88352728 -0.46279082 7.2140133e-2
vn 0.60689642 -0.38542537 0.69507123
vn 2.5775530e-17 -0.32237990 0.94661037
vn -0.60689642 -0.38542537 0.69507123
vn -0.88352728 -0.46279082 7.2140133e-2
vn -0.60689642 -0.57869474 -0.54478356
vn 0.60689642 0.38542537 -0.69507123
vn 0.60689642 0.57869474 0.54478356
vn -0.60689642 0.57869474 0.54478356
vn -0.60689642 0.38542537 -0.69507123
vn 0.88352728 0.46279082 -7.2140133e-2
vn 0.0000000e+0 0.59520030 0.80357738
vn -0.88352728 0.46279082 -7.2140133e-2
vn 0.0000000e+0 0.32237990 -0.94661037
vn 2.5775530e-17 -0.59520030 -0.80357738
vn 0.60689642 -0.57869474 -0.54478356
vn 0.88352728 -0.46279082 7.2140133e-2
vn 0.60689642 -0.38542537 0.69507123
vn 2.5775530e-17 -0.32237990 0.94661037
vn -0.60689642 -0.38542537 0.69507123
vn -0.88352728 -0.46279082 7.2140133e-2
vn -0.60689642 -0.57869474 -0.54478356
vn 0.60689642 -0.62741393 -0.48788164
vn 0.60689642 0.62741393 -0.48788164
vn -0.60689642 0.62741393 -0.48788164
vn -0.60689642 -0.62741393 -0.48788164
vn 0.88352728 -3.1435206e-17 -0.46837970
vn -1.0310212e-16 0.88566192 -0.46433067
vn -0.88352728 -8.3435799e-17 -0.46837970
vn 0.0000000e+0 -0.88566192 -0.46433067
vn 0.0000000e+0 -0.88566192 0.46433067
vn 0.60689642 -0.62741393 0.48788164
vn 0.88352728 0.0000000e+0 0.46837970
vn 0.60689642 0.62741393 0.48788164
vn -1.0310212e-16 0.88566192 0.46433067
vn -0.60689642 0.62741393 0.48788164
vn -0.88352728 -5.2000593e-17 0.46837970
vn -0.60689642 -0.62741393 0.48788164
vn 0.60689642 -0.62741393 -0.48788164
vn 0.60689642 0.62741393 -0.48788164
vn -0.60689642 0.62741393 -0.48788164
vn -0.60689642 -0.62741393 -0.48788164
vn 0.88352728 -1.0400119e-16 -0.46837970
vn -1.0310212e-16 0.88566192 -0.46433067
vn -0.88352728 -1.5600178e-16 -0.46837970
vn 0.0000000e+0 -0.88566192 -0.46433067
vn -5.1551060e-17 -0.88566192 0.46433067
vn 0.60689642 -0.62741393 0.48788164
vn 0.88352728 -1.0400119e-16 0.46837970
vn 0.60689642 0.62741393 0.48788164
vn -1.5465318e-16 0.88566192 0.46433067
vn -0.60689642 0.62741393 0.48788164
vn -0.88352728 -1.5600178e-16 0.46837970
vn -0.60689642 -0.62741393 0.48788164
vn 0.60689642 -0.62741393 -0.48788164
vn 0.60689642 0.62741393 -0.48788164
vn -0.60689642 0.62741393 -0.48788164
vn -0.60689642 -0.62741393 -0.48788164
vn 0.88352728 -1.0400119e-16 -0.46837970
vn -1.0310212e-16 0.88566192 -0.46433067
vn -0.88352728 -1.5600178e-16 -0.46837970
vn 0.0000000e+0 -0.88566192 -0.46433067
vn -5.1551060e-17 -0.88566192 0.46433067
vn 0.60689642 -0.62741393 0.48788164
vn 0.88352728 -1.0400119e-16 0.46837970
vn 0.60689642 0.62741393 0.48788164
vn -1.5465318e-16 0.88566192 0.46433067
vn -0.60689642 0.62741393 0.48788164
vn -0.88352728 -1.5600178e-16 0.46837970
vn -0.60689642 -0.62741393 0.48788164
vn 0.60689642 -0.62741393 -0.48788164
vn 0.60689642 0.62741393 -0.48788164
vn -0.60689642 0.62741393 -0.48788164
vn -0.60689642 -0.62741393 -0.48788164
vn 0.88352728 -3.1435206e-17 -0.46837970
vn -1.0310212e-16 0.88566192 -0.46433067
vn -0.88352728 -8.3435799e-17 -0.46837970
vn 0.0000000e+0 -0.88566192 -0.46433067
vn 0.0000000e+0 -0.88566192 0.46433067
vn 0.60689642 -0.62741393 0.48788164
vn 0.88352728 0.0000000e+0 0.46837970
vn 0.60689642 0.62741393 0.48788164
vn -1.0310212e-16 0.88566192 0.46433067
vn -0.60689642 0.62741393 0.48788164
vn -0.88352728 -5.2000593e-17 0.46837970
vn -0.60689642 -0.62741393 0.48788164
vn -0.70710678 0.0000000e+0 -0.70710678
vn -0.40824829 -0.81649658 -0.40824829
vn -0.89286774 -0.29449175 0.34067846
vn 0.70710678 0.0000000e+0 -0.70710678
vn 0.40824829 -0.81649658 -0.40824829
vn 0.89286774 -0.29449175 0.34067846
vn -0.57735027 0.57735027 -0.57735027
vn -0.70710678 0.70710678 0.0000000e+0
vn 0.70710678 0.70710678 0.0000000e+0
vn 0.57735027 0.57735027 -0.57735027
vn 0.60784094 0.51866314 0.60126361
vn -0.60784094 0.51866314 0.60126361
vn -0.52877205 -0.60078707 0.59954568
vn 0.52877205 -0.60078707 0.59954568
vn 0.40824829 -0.81649658 -0.40824829
vn 0.40824829 -0.81649658 0.40824829
vn -0.40824829 -0.81649658 0.40824829
vn -0.40824829 -0.81649658 -0.40824829
vn 0.57735027 -0.57735027 -0.57735027
vn 0.57735027 -0.57735027 0.57735027
vn -0.57735027 -0.57735027 0.57735027
vn -0.57735027 -0.57735027 -0.57735027
vn 0.70710678 4.2277223e-17 0.70710678
vn -0.70710678 4.2277223e-17 0.70710678
vn -9.8788652e-18 -0.65396251 0.75652695
vn -0.70710678 4.2277223e-17 0.70710678
vn 0.70710678 4.2277223e-17 0.70710678
vn -9.8788652e-18 -0.65396251 0.75652695
vn 0.70710678 4.2277223e-17 0.70710678
vn -9.8788652e-18 -0.65396251 0.75652695
vn -0.70710678 4.2277223e-17 0.70710678
vn 2.0076218e-17 -0.96709484 0.25441613
vn -0.47639754 -0.81134485 0.33876971
vn -0.47553239 -0.33433904 0.81368689
vn -2.0076218e-17 -0.96709484 0.25441613
vn 0.47639754 -0.81134485 0.33876971
vn 0.47553239 -0.33433904 0.81368689
vn -8.0799348e-18 -0.38006107 0.92496140
vn -8.0799348e-18 -0.38006107 0.92496140
vn -8.0799348e-18 -0.38006107 0.92496140
vn 0.0000000e+0 -0.92279023 0.38530272
vn 0.0000000e+0 -0.92279023 0.38530272
vn 0.0000000e+0 -0.92279023 0.38530272
g Cube1_Cube1_auv
usemtl Cube1_auv
s 1
f 1/147/1 3/103/3 10/102/10 9/111/9 5/144/5 6/146/6
f 3/75/3 4/76/4 12/68/12 10/67/10
f 6/46/6 8/47/8 2/39/2 1/38/1
f 7/49/7 8/47/8 6/46/6 5/48/5
f 8/104/8 7/112/7 11/145/11 12/149/12 4/148/4 2/105/2
f 9/64/9 11/65/11 7/49/7 5/48/5
f 10/67/10 12/68/12 11/65/11 9/64/9
f 13/78/13 22/70/22 21/63/21 20/66/20
f 14/73/14 24/69/24 23/74/23 17/79/17
f 15/51/15 26/57/26 25/60/25 18/59/18
f 16/53/16 28/58/28 27/54/27 19/50/19
f 17/52/17 13/56/13 20/61/20 16/72/16 19/77/19 15/71/15 18/62/18 14/55/14
f 17/79/17 23/74/23 22/70/22 13/78/13
f 18/59/18 25/60/25 24/69/24 14/73/14
f 19/50/19 27/54/27 26/57/26 15/51/15
f 20/66/20 21/63/21 28/58/28 16/53/16
f 22/70/22 23/74/23 24/69/24 25/60/25 26/57/26 27/54/27 28/58/28 21/63/21
f 29/78/29 38/70/38 37/63/37 36/66/36
f 30/73/30 40/69/40 39/74/39 33/79/33
f 31/51/31 42/57/42 41/60/41 34/59/34
f 32/53/32 44/58/44 43/54/43 35/50/35
f 33/52/33 29/56/29 36/61/36 32/72/32 35/77/35 31/71/31 34/62/34 30/55/30
f 33/79/33 39/74/39 38/70/38 29/78/29
f 34/59/34 41/60/41 40/69/40 30/73/30
f 35/50/35 43/54/43 42/57/42 31/51/31
f 36/66/36 37/63/37 44/58/44 32/53/32
f 38/70/38 39/74/39 40/69/40 41/60/41 42/57/42 43/54/43 44/58/44 37/63/37
f 45/78/45 54/70/54 53/63/53 52/66/52
f 46/73/46 56/69/56 55/74/55 49/79/49
f 47/51/47 58/57/58 57/60/57 50/59/50
f 48/53/48 60/58/60 59/54/59 51/50/51
f 49/52/49 45/56/45 52/61/52 48/72/48 51/77/51 47/71/47 50/62/50 46/55/46
f 49/79/49 55/74/55 54/70/54 45/78/45
f 50/59/50 57/60/57 56/69/56 46/73/46
f 51/50/51 59/54/59 58/57/58 47/51/47
f 52/66/52 53/63/53 60/58/60 48/53/48
f 54/70/54 55/74/55 56/69/56 57/60/57 58/57/58 59/54/59 60/58/60 53/63/53
f 61/78/61 70/70/70 69/63/69 68/66/68
f 62/73/62 72/69/72 71/74/71 65/79/65
f 63/51/63 74/57/74 73/60/73 66/59/66
f 64/53/64 76/58/76 75/54/75 67/50/67
f 65/52/65 61/56/61 68/61/68 64/72/64 67/77/67 63/71/63 66/62/66 62/55/62
f 65/79/65 71/74/71 70/70/70 61/78/61
f 66/59/66 73/60/73 72/69/72 62/73/62
f 67/50/67 75/54/75 74/57/74 63/51/63
f 68/66/68 69/63/69 76/58/76 64/53/64
f 70/70/70 71/74/71 72/69/72 73/60/73 74/57/74 75/54/75 76/58/76 69/63/69
f 77/143/77 86/141/86 85/130/85 84/131/84
f 78/142/78 88/138/88 87/151/87 81/152/81
f 79/108/79 90/110/90 89/127/89 82/126/82
f 80/109/80 92/115/92 91/101/91 83/99/83
f 81/152/81 87/151/87 86/141/86 77/143/77
f 82/126/82 89/127/89 88/138/88 78/142/78
f 83/99/83 91/101/91 90/110/90 79/108/79
f 84/131/84 85/130/85 92/115/92 80/109/80
f 86/141/86 87/151/87 88/138/88 89/127/89 90/110/90 91/101/91 92/115/92 85/130/85
f 93/143/93 102/141/102 101/130/101 100/131/100
f 94/142/94 104/138/104 103/151/103 97/152/97
f 95/108/95 106/110/106 105/127/105 98/126/98
f 96/109/96 108/115/108 107/101/107 99/99/99
f 97/100/97 93/114/93 100/129/100 96/139/96 99/150/99 95/140/95 98/128/98 94/113/94
f 97/152/97 103/151/103 102/141/102 93/143/93
f 98/126/98 105/127/105 104/138/104 94/142/94
f 99/99/99 107/101/107 106/110/106 95/108/95
f 100/131/100 101/130/101 108/115/108 96/109/96
f 102/141/102 103/151/103 104/138/104 105/127/105 106/110/106 107/101/107 108/115/108 101/130/101
f 109/143/109 118/141/118 117/130/117 116/131/116
f 110/142/110 120/138/120 119/151/119 113/152/113
f 111/108/111 122/110/122 121/127/121 114/126/114
f 112/109/112 124/115/124 123/101/123 115/99/115
f 113/152/113 119/151/119 118/141/118 109/143/109
f 114/126/114 121/127/121 120/138/120 110/142/110
f 115/99/115 123/101/123 122/110/122 111/108/111
f 116/131/116 117/130/117 124/115/124 112/109/112
f 118/141/118 119/151/119 120/138/120 121/127/121 122/110/122 123/101/123 124/115/124 117/130/117
f 125/143/125 134/141/134 133/130/133 132/131/132
f 126/142/126 136/138/136 135/151/135 129/152/129
f 127/108/127 138/110/138 137/127/137 130/126/130
f 128/109/128 140/115/140 139/101/139 131/99/131
f 129/100/129 125/114/125 132/129/132 128/139/128 131/150/131 127/140/127 130/128/130 126/113/126
f 129/152/129 135/151/135 134/141/134 125/143/125
f 130/126/130 137/127/137 136/138/136 126/142/126
f 131/99/131 139/101/139 138/110/138 127/108/127
f 132/131/132 133/130/133 140/115/140 128/109/128
f 134/141/134 135/151/135 136/138/136 137/127/137 138/110/138 139/101/139 140/115/140 133/130/133
f 141/83/141 144/33/144 145/32/145 142/85/142
f 141/83/141 147/84/147 150/34/150 144/33/144
f 142/86/142 156/90/156 155/91/155 172/89/172 173/87/173
f 142/44/142 173/45/173 174/41/174 166/28/166 164/23/164 171/20/171 143/16/143 141/17/141
f 143/16/143 148/4/148 147/5/147 141/17/141
f 143/16/143 153/13/153 152/6/152 148/4/148
f 144/15/144 146/14/146 167/19/167 163/22/163 169/27/169 177/40/177 176/42/176 145/43/145
f 144/15/144 150/3/150 149/2/149 146/14/146
f 145/163/145 157/155/157 156/90/156 142/86/142
f 148/82/148 149/31/149 150/29/150 147/80/147
f 148/82/148 152/81/152 151/30/151 149/31/149
f 149/2/149 151/1/151 154/12/154 146/14/146
f 152/10/152 153/9/153 154/37/154 151/35/151
f 155/133/155 159/132/159 162/153/162 158/154/158
f 156/123/156 160/122/160 159/132/159 155/133/155
f 157/116/157 161/117/161 160/122/160 156/123/156
f 158/93/158 162/92/162 161/117/161 157/116/157
f 158/156/158 175/162/175 181/137/181 182/120/182 183/106/183 172/89/172 155/91/155
f 160/8/160 161/25/161 162/26/162 159/7/159
f 170/18/170 165/21/165 168/24/168 146/36/146 154/37/154 153/9/153 143/11/143
f 171/97/171 164/96/164 166/95/166 174/94/174 178/119/178 179/124/179 180/134/180 177/157/177 169/158/169 163/159/163 167/160/167 146/161/146 168/135/168 165/125/165 170/118/170 143/98/143
f 172/89/172 183/106/183 182/120/182 181/137/181 175/162/175 176/165/176 177/164/177 180/136/180 179/121/179 178/107/178 174/88/174 173/87/173
f 176/165/176 175/162/175 158/156/158 157/155/157 145/163/145
g Cube1_default
usemtl default
s 1
f 81/100/81 77/114/77 84/129/84 80/139/80 83/150/83 79/140/79 82/128/82 78/113/78
f 113/100/113 109/114/109 116/129/116 112/139/112 115/150/115 111/140/111 114/128/114 110/113/110
