# Exported from Wings 3D 2.1.6
mtllib Horn.mtl
o Cube4
#36 vertices, 33 faces
v -0.32000000 0.32000000 -0.32000000
v -0.32000000 -0.32000000 -0.32000000
v 2.9091012e-3 0.22656000 0.65864285
v 2.9091012e-3 -0.22656000 0.65864285
v 0.32000000 0.32000000 -0.32000000
v 0.32000000 -0.32000000 -0.32000000
v 0.43486666 0.22656000 0.52178378
v 0.43486666 -0.22656000 0.52178378
v 0.44408958 0.19257600 1.20961524
v 0.44408958 -0.19257600 1.20961524
v 0.81125350 -0.19257600 1.09328503
v 0.81125350 0.19257600 1.09328503
v 0.53892649 0.19257600 1.50894155
v 0.53892649 -0.19257600 1.50894155
v 0.90609041 -0.19257600 1.39261134
v 0.90609041 0.19257600 1.39261134
v 0.61309360 0.11477530 2.38665708
v 0.61309360 -0.11477530 2.38665708
v 0.83192330 -0.11477530 2.31732427
v 0.83192330 0.11477530 2.31732427
v 0.96863645 4.1548657e-2 3.26638660
v 0.96863645 -4.1548657e-2 3.26638660
v 1.04785280 -4.1548657e-2 3.24128813
v 1.04785280 4.1548657e-2 3.24128813
v -3.7873538e-2 -0.14674291 1.48553331
v -3.7873538e-2 0.14674291 1.48553331
v -0.14515418 0.14674291 1.27167187
v -0.14515418 -0.14674291 1.27167187
v -0.80893827 -7.3664942e-2 1.80567565
v -0.80893827 7.3664942e-2 1.80567565
v -0.86279316 7.3664942e-2 1.69831721
v -0.86279316 -7.3664942e-2 1.69831721
v -1.02344102 -4.0073728e-2 2.05015632
v -1.02344102 4.0073728e-2 2.05015632
v -1.05273808 4.0073728e-2 1.99175333
v -1.05273808 -4.0073728e-2 1.99175333
vt 7.7155802e-3 4.3606475e-2
vt 2.1236039e-2 0.16874633
vt 2.5958758e-2 0.31577001
vt 2.6047426e-2 0.26953038
vt 3.7154054e-2 0.45240645
vt 4.1161887e-2 0.66236660
vt 4.1860933e-2 0.65058444
vt 4.7669773e-2 0.59216024
vt 5.0767160e-2 0.66293649
vt 5.1466206e-2 0.65115433
vt 5.9907037e-2 0.59218371
vt 7.0958650e-2 0.45247127
vt 8.2677879e-2 0.31587878
vt 8.2766546e-2 0.26963914
vt 8.7964416e-2 0.16887428
vt 9.8286676e-2 0.67071136
vt 9.9571687e-2 0.64905298
vt 0.10196470 4.3787204e-2
vt 0.13925968 0.38626168
vt 0.14355952 0.39486940
vt 0.16754965 0.34297426
vt 0.17545378 0.35879728
vt 0.22038231 0.68873612
vt 0.22294209 0.64559194
vt 0.24825606 4.4910701e-2
vt 0.27375697 0.28011325
vt 0.28950224 0.31163321
vt 0.29587692 0.18965934
vt 0.30484542 0.70050885
vt 0.30820471 0.64388919
vt 0.34250307 4.4865810e-2
vt 0.35950995 0.16957662
vt 0.36079347 0.27099188
vt 0.37470985 0.31508658
vt 0.38564276 0.44484568
vt 0.41488155 0.25392157
vt 0.41787925 0.43467178
vt 0.42879793 0.29801628
vt 0.43501328 0.69675440
vt 0.43701542 0.66300908
vt 0.43798058 0.57485148
vt 0.44965019 0.57116853
vt 0.47950867 4.7862030e-2
vt 0.49323643 0.20556901
vt 0.49895370 0.31091691
vt 0.50652633 0.39525242
vt 0.51680086 0.50788569
vt 0.52168915 0.55420905
vt 0.53231525 0.55413344
vt 0.53656112 0.50782309
vt 0.54714824 0.39534123
vt 0.55519927 0.31111058
vt 0.56173232 0.20592879
vt 0.57514004 0.69426560
vt 0.57586482 0.68204979
vt 0.57728918 4.8646352e-2
vt 0.58735585 0.69499037
vt 0.58808062 0.68277457
vt 0.65954990 0.57078307
vt 0.67120556 0.57450985
vt 0.68142849 0.29771176
vt 0.69183350 0.43440701
vt 0.69551044 0.25366978
vt 0.72403145 0.44470196
vt 0.73545190 0.31498518
vt 0.74953386 0.27094319
vt 0.75119850 0.16953372
vt 0.76863083 4.4881964e-2
vt 0.81475545 0.18985538
vt 0.82067157 0.31184875
vt 0.83653560 0.28038848
vt 0.86287682 4.5272744e-2
vt 0.93454102 0.35944263
vt 0.94250476 0.34364957
vt 0.96629889 0.39563472
vt 0.97063116 0.38704330
vn -0.65633316 0.69696628 0.28890272
vn -0.65633316 -0.69696628 0.28890272
vn -0.59979505 0.70257556 0.38292751
vn -0.59979505 -0.70257556 0.38292751
vn 0.70986687 0.70387270 -2.5539190e-2
vn 0.70986687 -0.70387270 -2.5539190e-2
vn 0.66815556 0.71841763 -0.19350519
vn 0.66815556 -0.71841763 -0.19350519
vn -0.30021356 0.94943627 -9.1883555e-2
vn -0.30021356 -0.94943627 -9.1883555e-2
vn 0.64208922 -0.71137266 -0.28578030
vn 0.64208922 0.71137266 -0.28578030
vn -0.31950900 0.87952230 0.35263936
vn -0.31950900 -0.87952230 0.35263936
vn 0.70296640 -0.70957503 -4.8389225e-2
vn 0.70296640 0.70957503 -4.8389225e-2
vn -0.66798223 0.71074182 0.22055796
vn -0.66798223 -0.71074182 0.22055796
vn 0.71204509 -0.70212117 4.2020680e-3
vn 0.71204509 0.70212117 4.2020680e-3
vn -0.33024926 0.54713473 0.76914174
vn -0.33024926 -0.54713473 0.76914174
vn 0.71291360 -0.54713473 0.43863172
vn 0.71291360 0.54713473 0.43863172
vn 6.6370365e-2 -0.70560463 0.70549067
vn 6.6370365e-2 0.70560463 0.70549067
vn -0.27703691 0.71581127 -0.64098734
vn -0.27703691 -0.71581127 -0.64098734
vn 0.34583424 -0.71839841 0.60357468
vn 0.34583424 0.71839841 0.60357468
vn -0.53940875 0.70266622 -0.46400256
vn -0.53940875 -0.70266622 -0.46400256
vn -0.15613752 -0.64342096 0.74942014
vn -0.15613752 0.64342096 0.74942014
vn -0.87881683 0.47666339 -2.1748383e-2
vn -0.87881683 -0.47666339 -2.1748383e-2
g Cube4_Cube4_auv
usemtl Cube4_auv
s 1
f 2/56/2 4/53/4 3/44/3 1/43/1
f 2/25/2 6/31/6 8/32/8 4/28/4
f 3/69/3 7/67/7 5/68/5 1/72/1
f 3/69/3 9/66/9 12/63/12 7/67/7
f 4/53/4 10/52/10 9/45/9 3/44/3
f 5/18/5 7/15/7 8/2/8 6/1/6
f 7/15/7 12/14/12 11/4/11 8/2/8
f 8/32/8 11/36/11 10/33/10 4/28/4
f 9/66/9 13/65/13 16/61/16 12/63/12
f 9/66/9 27/71/27 26/70/26 13/65/13
f 10/52/10 28/51/28 27/46/27 9/45/9
f 11/36/11 15/38/15 14/34/14 10/33/10
f 12/14/12 16/13/16 15/3/15 11/4/11
f 13/65/13 17/64/17 20/62/20 16/61/16
f 13/29/13 26/23/26 25/24/25 14/30/14
f 14/30/14 18/40/18 17/39/17 13/29/13
f 14/34/14 25/27/25 28/26/28 10/33/10
f 15/38/15 19/37/19 18/35/18 14/34/14
f 16/13/16 20/12/20 19/5/19 15/3/15
f 17/64/17 21/60/21 24/59/24 20/62/20
f 18/40/18 22/55/22 21/54/21 17/39/17
f 19/37/19 23/42/23 22/41/22 18/35/18
f 20/12/20 24/11/24 23/8/23 19/5/19
f 22/55/22 23/58/23 24/57/24 21/54/21
f 25/27/25 29/22/29 32/21/32 28/26/28
f 26/23/26 30/16/30 29/17/29 25/24/25
f 27/71/27 31/74/31 30/73/30 26/70/26
f 28/51/28 32/50/32 31/47/31 27/46/27
f 29/22/29 33/20/33 36/19/36 32/21/32
f 30/16/30 34/9/34 33/10/33 29/17/29
f 31/74/31 35/76/35 34/75/34 30/73/30
f 32/50/32 36/49/36 35/48/35 31/47/31
f 34/9/34 35/6/35 36/7/36 33/10/33
