# Blender v2.83.5 OBJ File: ''
# www.blender.org
mtllib Coffee table.mtl
o Cube
v -1.386644 -1.000000 -1.386644
v -1.386644 -1.000000 1.386644
v 1.386644 -1.000000 -1.386644
v 1.386644 -1.000000 1.386644
v -1.386644 -1.000000 1.125635
v 1.386644 -1.000000 1.125635
v -1.257857 -1.000000 1.125635
v 1.257857 -1.000000 1.125635
v 1.078718 -1.000000 -1.386644
v 1.083997 -1.000000 1.386644
v 1.081910 -1.000000 -1.257857
v 1.081910 -1.000000 1.257857
v 1.081910 -1.000000 1.125635
v -1.075206 -1.002970 -1.386644
v -1.074822 -0.998015 -1.257857
v -1.074822 -0.998015 1.125635
v -1.075206 -1.002970 1.386644
v -1.074822 -0.998015 1.257857
v 1.386643 -1.003210 -1.105795
v 1.257857 -0.998391 -1.105436
v -1.386645 -1.003205 -1.105861
v -1.257856 -0.998387 -1.105495
v 1.081911 -0.998391 -1.105440
v -1.074822 -0.996414 -1.105343
v -1.648899 -2.998750 1.392551
v -1.648899 -2.998750 1.653560
v -1.337461 -3.001720 -1.696867
v -1.648899 -2.998750 -1.696867
v 1.357169 -2.998750 1.653560
v 1.659815 -2.998750 1.653560
v 1.659814 -3.001961 -1.416018
v 1.659815 -2.998750 -1.696867
v -1.520112 -2.998750 1.392551
v -1.520112 -2.998750 1.524773
v -1.337077 -2.996766 -1.568080
v -1.520112 -2.998750 -1.568080
v 1.355082 -2.998750 1.524773
v 1.531028 -2.998750 1.524773
v 1.531028 -2.997141 -1.415659
v 1.531028 -2.998750 -1.568080
v 1.659815 -2.998750 1.392551
v 1.531028 -2.998750 1.392551
v -1.337077 -2.996766 1.392551
v 1.351889 -2.998750 -1.696867
v 1.355082 -2.998750 -1.568080
v 1.355082 -2.998750 1.392551
v -1.337461 -3.001720 1.653560
v -1.337077 -2.996766 1.524773
v -1.648900 -3.001956 -1.416084
v -1.520111 -2.997137 -1.415719
v 1.355082 -2.997141 -1.415663
v -1.337077 -2.995164 -1.415566
v -1.300376 -0.465912 1.413635
v -1.413036 -0.465914 1.413635
v 1.410108 -0.465914 1.265236
v 1.410108 -0.465914 1.413635
v -1.413036 -0.465913 -1.289462
v -1.413036 -0.465914 -1.409509
v 1.317513 -0.465914 -1.409509
v 1.410108 -0.465914 -1.409509
v 1.410108 -0.465911 -1.289395
v -1.413036 -0.465914 1.265236
v 1.317513 -0.465914 1.265236
v 1.317513 -0.465914 1.413635
v -1.300376 -0.465912 -1.409509
v -1.300376 -0.465912 1.265236
v 1.317513 -0.465911 -1.289397
v -1.300376 -0.465911 -1.289460
v 1.501129 -0.621058 -1.500396
v 1.498796 -0.819146 -1.498264
v 1.501150 -0.621093 1.505460
v 1.498873 -0.819022 1.501994
v -1.504720 -0.621083 -1.500410
v -1.501438 -0.819059 -1.498317
v -1.504741 -0.621118 1.505475
v -1.501516 -0.818937 1.502048
v 1.498834 -0.819084 1.303712
v 1.501140 -0.621076 1.347446
v -1.504737 -0.621112 1.347466
v -1.501502 -0.818958 1.303836
v 1.402572 -0.621110 1.505470
v 1.326127 -0.818965 1.502030
v 1.324027 -0.819145 -1.498264
v 1.402543 -0.621058 -1.500396
v -1.312226 -0.819233 1.502518
v -1.384788 -0.621116 1.505475
v -1.312011 -0.819399 -1.498746
v -1.384759 -0.621064 -1.500400
v -1.501984 -0.819316 -1.314452
v -1.504731 -0.621100 -1.372603
v 1.499312 -0.819431 -1.314251
v 1.501133 -0.621061 -1.372512
vt 0.375000 0.750000
vt 0.537115 0.750000
vt 0.537167 0.875000
vt 0.375000 0.875000
vt 0.625000 1.000000
vt 0.625000 0.937500
vt 0.625000 0.937500
vt 0.625000 1.000000
vt 0.625000 0.250000
vt 0.625000 0.187500
vt 0.625000 0.187500
vt 0.625000 0.250000
vt 0.375000 0.000000
vt 0.375000 0.125000
vt 0.375000 0.125000
vt 0.375000 0.000000
vt 0.625000 0.750000
vt 0.625000 0.625000
vt 0.625000 0.625000
vt 0.625000 0.750000
vt 0.625000 0.500000
vt 0.625000 0.375000
vt 0.625000 0.375000
vt 0.625000 0.500000
vt 0.136610 0.568305
vt 0.125000 0.562500
vt 0.125000 0.562500
vt 0.136610 0.568305
vt 0.136610 0.625000
vt 0.193305 0.625000
vt 0.193305 0.625000
vt 0.136610 0.625000
vt 0.193305 0.738390
vt 0.187500 0.750000
vt 0.187500 0.750000
vt 0.193305 0.738390
vt 0.250000 0.511610
vt 0.250000 0.500000
vt 0.250000 0.500000
vt 0.250000 0.511610
vt 0.193305 0.511610
vt 0.193305 0.568305
vt 0.193305 0.568305
vt 0.193305 0.511610
vt 0.125000 0.625000
vt 0.537173 0.125000
vt 0.537852 0.187500
vt 0.375000 0.187500
vt 0.250000 0.568305
vt 0.363390 0.568305
vt 0.363390 0.625000
vt 0.250000 0.625000
vt 0.625000 0.125000
vt 0.625000 0.000000
vt 0.625000 0.000000
vt 0.625000 0.125000
vt 0.625000 0.562500
vt 0.625000 0.562500
vt 0.537853 0.937500
vt 0.375000 0.937500
vt 0.250000 0.738390
vt 0.250000 0.750000
vt 0.250000 0.738390
vt 0.250000 0.750000
vt 0.625000 0.875000
vt 0.625000 0.875000
vt 0.250000 0.568305
vt 0.363390 0.568305
vt 0.625000 0.312500
vt 0.625000 0.312500
vt 0.125000 0.625000
vt 0.375000 0.625000
vt 0.537060 0.625000
vt 0.187500 0.500000
vt 0.537192 0.000000
vt 0.537082 0.250000
vt 0.375000 0.250000
vt 0.537192 1.000000
vt 0.375000 1.000000
vt 0.375000 0.375000
vt 0.537005 0.375000
vt 0.537004 0.500000
vt 0.375000 0.500000
vt 0.375000 0.625000
vt 0.363390 0.625000
vt 0.375000 0.562500
vt 0.250000 0.625000
vt 0.363390 0.738390
vt 0.136610 0.738390
vt 0.125000 0.750000
vt 0.136610 0.511610
vt 0.125000 0.500000
vt 0.187500 0.500000
vt 0.375000 0.750000
vt 0.363390 0.511610
vt 0.375000 0.500000
vt 0.375000 0.562500
vt 0.375000 1.000000
vt 0.375000 0.937500
vt 0.375000 0.250000
vt 0.375000 0.187500
vt 0.375000 0.875000
vt 0.375000 0.312500
vt 0.375000 0.312500
vt 0.375000 0.375000
vt 0.812500 0.625000
vt 0.875000 0.625000
vt 0.875000 0.750000
vt 0.812500 0.750000
vt 0.812500 0.562500
vt 0.875000 0.562500
vt 0.750000 0.562500
vt 0.750000 0.625000
vt 0.750000 0.750000
vt 0.750000 0.500000
vt 0.812500 0.500000
vt 0.875000 0.500000
vt 0.537705 0.312500
vt 0.537751 0.562500
vn 0.0000 -0.5375 0.8433
vn -0.0000 0.5093 0.8606
vn -0.8609 0.5087 -0.0000
vn -0.9915 0.1301 0.0000
vn 0.8625 0.5060 0.0000
vn 0.0000 0.5055 -0.8628
vn 0.0029 -0.1537 0.9881
vn 0.0014 -0.1326 -0.9912
vn 0.9915 -0.1304 -0.0021
vn -0.9900 -0.1391 0.0245
vn 0.9915 -0.1303 0.0014
vn 0.0187 -0.9998 0.0004
vn -0.8458 -0.5335 0.0005
vn -0.0000 -1.0000 -0.0007
vn 0.0004 -0.5355 0.8446
vn -0.0009 -1.0000 -0.0007
vn 0.0002 -0.9998 -0.0192
vn -0.9909 -0.1333 0.0161
vn -0.0009 -1.0000 0.0000
vn -0.0000 -0.1534 0.9882
vn 0.0000 -0.1324 -0.9912
vn 0.0108 -0.9999 -0.0007
vn 0.8499 -0.5270 -0.0000
vn 0.0002 -0.9998 0.0192
vn -0.8444 -0.5357 0.0000
vn -0.8438 -0.5366 -0.0050
vn -0.9908 -0.1356 0.0014
vn -0.0009 -0.9999 0.0105
vn -0.0043 -0.5384 0.8427
vn 0.9915 -0.1301 0.0000
vn 0.0000 -0.5252 -0.8510
vn -0.0187 -0.9998 0.0004
vn 0.0000 -1.0000 0.0000
vn -0.0020 -0.9998 0.0202
vn -0.0206 -0.9998 -0.0037
vn 0.0108 -0.9999 0.0000
vn -0.0020 -0.9998 -0.0202
vn 0.0108 -0.9999 0.0105
vn -0.0000 -0.9999 0.0106
vn 0.0205 -0.9998 -0.0037
vn 0.0013 0.1322 0.9912
vn -0.9915 0.1299 0.0015
vn -0.0030 -0.1538 0.9881
vn -0.9908 -0.1354 0.0000
vn 0.0000 0.1324 0.9912
vn 0.9908 0.1354 0.0000
vn 0.0008 -0.1535 0.9882
vn 0.0015 0.1532 -0.9882
vn 0.9915 -0.1304 0.0021
vn 0.0000 0.1534 -0.9882
vn 0.9908 0.1352 0.0015
vn -0.0000 1.0000 0.0000
vn -0.0042 -0.5261 -0.8504
vn 0.8512 -0.5248 0.0005
vn 0.0004 -0.5232 -0.8522
vn -0.0015 -0.0164 0.9999
vn 0.9999 -0.0116 -0.0001
vn -0.9999 -0.0155 -0.0018
vn 0.0000 -0.0108 -0.9999
vn 0.9999 -0.0104 0.0001
vn -0.9999 -0.0163 -0.0000
vn 0.0002 -0.0175 0.9998
vn 0.0001 -0.0096 -1.0000
vn 0.0001 -0.0162 0.9999
vn -0.0014 -0.0097 -1.0000
vn -0.9999 -0.0151 0.0001
vn 0.9999 -0.0107 -0.0017
vn 0.8493 -0.5279 -0.0049
usemtl Material
s off
f 4/1/1 72/2/1 82/3/1 10/4/1
f 75/5/2 86/6/2 53/7/2 54/8/2
f 73/9/3 90/10/3 57/11/3 58/12/3
f 2/13/4 5/14/4 25/15/4 26/16/4
f 71/17/5 78/18/5 55/19/5 56/20/5
f 69/21/6 84/22/6 59/23/6 60/24/6
f 22/25/7 21/26/7 49/27/7 50/28/7
f 7/29/8 16/30/8 43/31/8 33/32/8
f 18/33/9 17/34/9 47/35/9 48/36/9
f 11/37/10 9/38/10 44/39/10 45/40/10
f 15/41/11 24/42/11 52/43/11 35/44/11
f 22/25/12 7/29/12 5/45/12 21/26/12
f 5/14/13 80/46/13 89/47/13 21/48/13
f 23/49/14 20/50/14 8/51/14 13/52/14
f 79/53/3 75/54/3 54/55/3 62/56/3
f 92/57/5 69/21/5 60/24/5 61/58/5
f 10/4/15 82/3/15 85/59/15 17/60/15
f 24/42/16 23/49/16 13/52/16 16/30/16
f 18/33/17 12/61/17 10/62/17 17/34/17
f 10/62/18 12/61/18 37/63/18 29/64/18
f 16/30/19 13/52/19 12/61/19 18/33/19
f 81/65/2 71/17/2 56/20/2 64/66/2
f 78/18/5 92/57/5 61/58/5 55/19/5
f 20/50/20 23/49/20 51/67/20 39/68/20
f 88/69/6 73/9/6 58/12/6 65/70/6
f 5/45/21 7/29/21 33/32/21 25/71/21
f 22/25/22 24/42/22 16/30/22 7/29/22
f 6/72/23 77/73/23 72/2/23 4/1/23
f 11/37/24 15/41/24 14/74/24 9/38/24
f 86/6/2 81/65/2 64/66/2 53/7/2
f 2/13/25 76/75/25 80/46/25 5/14/25
f 21/48/26 89/47/26 74/76/26 1/77/26
f 23/49/27 11/37/27 45/40/27 51/67/27
f 15/41/28 11/37/28 23/49/28 24/42/28
f 17/60/29 85/59/29 76/78/29 2/79/29
f 84/22/6 88/69/6 65/70/6 59/23/6
f 16/30/30 18/33/30 48/36/30 43/31/30
f 9/80/31 83/81/31 70/82/31 3/83/31
f 8/51/21 6/72/21 41/84/21 42/85/21
f 8/51/32 20/50/32 19/86/32 6/72/32
f 90/10/3 79/53/3 62/56/3 57/11/3
f 46/87/33 42/85/33 38/88/33 37/63/33
f 33/32/33 34/89/33 26/90/33 25/71/33
f 35/44/34 36/91/34 28/92/34 27/93/34
f 37/63/33 38/88/33 30/94/33 29/64/33
f 39/68/35 40/95/35 32/96/35 31/97/35
f 38/88/33 42/85/33 41/84/33 30/94/33
f 40/95/33 45/40/33 44/39/33 32/96/33
f 33/32/36 43/31/36 48/36/36 34/89/36
f 34/89/37 48/36/37 47/35/37 26/90/37
f 36/91/38 35/44/38 52/43/38 50/28/38
f 45/40/39 40/95/39 39/68/39 51/67/39
f 36/91/40 50/28/40 49/27/40 28/92/40
f 17/60/41 2/79/41 26/98/41 47/99/41
f 21/48/42 1/77/42 28/100/42 49/101/42
f 19/86/43 20/50/43 39/68/43 31/97/43
f 12/61/44 13/52/44 46/87/44 37/63/44
f 4/1/45 10/4/45 29/102/45 30/94/45
f 6/72/46 4/1/46 30/94/46 41/84/46
f 24/42/47 22/25/47 50/28/47 52/43/47
f 1/77/48 14/103/48 27/104/48 28/100/48
f 13/52/21 8/51/21 42/85/21 46/87/21
f 14/74/49 15/41/49 35/44/49 27/93/49
f 9/80/50 3/83/50 32/96/50 44/105/50
f 3/83/51 19/86/51 31/97/51 32/96/51
f 66/106/52 62/107/52 54/108/52 53/109/52
f 68/110/52 57/111/52 62/107/52 66/106/52
f 61/58/52 67/112/52 63/113/52 55/19/52
f 55/19/52 63/113/52 64/114/52 56/20/52
f 67/112/52 68/110/52 66/106/52 63/113/52
f 63/113/52 66/106/52 53/109/52 64/114/52
f 59/115/52 65/116/52 68/110/52 67/112/52
f 60/24/52 59/115/52 67/112/52 61/58/52
f 65/116/52 58/117/52 57/111/52 68/110/52
f 1/77/53 74/76/53 87/118/53 14/103/53
f 19/86/54 91/119/54 77/73/54 6/72/54
f 14/103/55 87/118/55 83/81/55 9/80/55
f 86/6/56 75/5/56 76/78/56 85/59/56
f 78/18/57 71/17/57 72/2/57 77/73/57
f 90/10/58 73/9/58 74/76/58 89/47/58
f 84/22/59 69/21/59 70/82/59 83/81/59
f 92/57/60 78/18/60 77/73/60 91/119/60
f 75/54/61 79/53/61 80/46/61 76/75/61
f 71/17/62 81/65/62 82/3/62 72/2/62
f 88/69/63 84/22/63 83/81/63 87/118/63
f 81/65/64 86/6/64 85/59/64 82/3/64
f 73/9/65 88/69/65 87/118/65 74/76/65
f 79/53/66 90/10/66 89/47/66 80/46/66
f 69/21/67 92/57/67 91/119/67 70/82/67
f 3/83/68 70/82/68 91/119/68 19/86/68
