# Blender v2.83.5 OBJ File: 'Floor.blend'
# www.blender.org
mtllib Floor.mtl
o Cube
v -17.090832 -0.732154 -21.753922
v -17.090832 -1.000000 -21.753922
v 15.971231 -0.732154 -21.819670
v 15.971231 -1.000000 -21.819670
v -16.999195 -0.732154 0.988793
v -16.999195 -1.000000 0.988793
v 16.062859 -0.732154 1.368740
v 16.062859 -1.000000 1.368740
v -5.732487 -1.000000 1.279630
v -5.526964 -0.732154 -21.776918
v -5.732487 -0.732154 1.279630
v -5.526964 -1.000000 -21.776918
v -16.967665 -0.732154 4.215279
v -16.967665 -1.000000 4.215279
v -5.700959 -0.732154 4.179193
v -5.700959 -1.000000 4.179193
v 11.587543 -1.000000 1.261587
v 10.678091 -0.732154 -21.809143
v 11.587543 -0.732154 1.261587
v 10.678091 -1.000000 -21.809143
v 11.598334 -1.000000 4.172668
v 16.073652 -1.000000 4.154624
v 16.073652 -0.732154 4.154624
v 11.598334 -0.732154 4.172668
vt 0.303620 0.000394
vt 0.296781 0.235053
vt 0.259311 0.236074
vt 0.259299 0.000389
vt 0.024883 0.171450
vt 0.022352 0.171444
vt 0.021578 0.026406
vt 0.024109 0.026413
vt 0.441805 0.234724
vt 0.536135 0.231977
vt 0.535960 0.258994
vt 0.441621 0.259004
vt 0.024450 0.930125
vt 0.259066 0.922905
vt 0.259143 0.967220
vt 0.023490 0.967591
vt 0.024753 0.221476
vt 0.022221 0.221469
vt 0.024972 0.620769
vt 0.022441 0.620763
vt 0.021692 0.475758
vt 0.024223 0.475765
vt 0.021978 0.366497
vt 0.024509 0.366503
vt 0.027135 0.690799
vt 0.259003 0.690421
vt 0.259143 0.787234
vt 0.024542 0.785120
vt 0.021919 0.930118
vt 0.022011 0.785114
vt 0.536135 0.000078
vt 0.439308 0.000096
vt 0.024614 0.757720
vt 0.022083 0.757713
vt 0.022362 0.651250
vt 0.024892 0.651256
vt 0.000266 0.785343
vt 0.000122 0.691017
vt 0.021646 0.000078
vt 0.024178 0.000084
vt 0.024266 0.999922
vt 0.021735 0.999916
vt 0.021846 0.957626
vt 0.024377 0.957633
vt 0.296771 0.259428
vt 0.259298 0.259401
vt 0.000166 0.967643
vt 0.000078 0.930175
vn 0.0000 1.0000 -0.0000
vn 1.0000 0.0000 -0.0040
vn 0.0000 -1.0000 0.0000
vn -0.0020 0.0000 -1.0000
vn -1.0000 0.0000 0.0040
vn 0.0010 0.0000 1.0000
vn 0.0032 0.0000 1.0000
vn 0.9999 0.0000 -0.0109
vn -1.0000 0.0000 0.0098
vn 1.0000 0.0000 -0.0039
vn 0.0040 0.0000 1.0000
vn -1.0000 0.0000 0.0037
usemtl Material
s off
f 18/1/1 19/2/1 7/3/1 3/4/1
f 4/5/2 3/6/2 7/7/2 8/8/2
f 11/9/1 5/10/1 13/11/1 15/12/1
f 17/13/3 20/14/3 4/15/3 8/16/3
f 20/17/4 18/18/4 3/6/4 4/5/4
f 6/19/5 5/20/5 1/21/5 2/22/5
f 2/22/4 1/21/4 10/23/4 12/24/4
f 6/25/3 2/26/3 12/27/3 9/28/3
f 17/13/6 19/29/6 11/30/6 9/28/6
f 1/31/1 5/10/1 11/9/1 10/32/1
f 16/33/7 15/34/7 13/35/7 14/36/7
f 9/28/8 11/30/8 15/34/8 16/33/8
f 5/20/9 6/19/9 14/36/9 13/35/9
f 6/25/3 9/28/3 16/37/3 14/38/3
f 8/8/10 7/7/10 23/39/10 22/40/10
f 12/24/4 10/23/4 18/18/4 20/17/4
f 9/28/3 12/27/3 20/14/3 17/13/3
f 10/32/1 11/9/1 19/2/1 18/1/1
f 22/41/11 23/42/11 24/43/11 21/44/11
f 19/29/12 17/13/12 21/44/12 24/43/12
f 7/3/1 19/2/1 24/45/1 23/46/1
f 17/13/3 8/16/3 22/47/3 21/48/3
