# Blender v2.83.5 OBJ File: 'Window.blend'
# www.blender.org
mtllib Window.mtl
o Cube
v -0.593406 0.974500 -1.611739
v -0.593406 -0.974500 -1.611739
v -0.593406 0.974500 1.611739
v -0.593406 -0.974500 1.611739
v -1.043651 0.974500 -1.611739
v -1.043651 -0.974500 -1.611739
v -1.043651 0.974500 1.611739
v -1.043651 -0.974500 1.611739
v -1.043651 -0.974500 0.243384
v -0.593406 0.974500 0.243384
v -1.043651 0.974500 0.243384
v -0.593406 -0.974500 0.243384
v -1.043651 0.974500 -0.185953
v -0.593406 -0.974500 -0.185953
v -1.043651 -0.974500 -0.185953
v -0.593406 0.974500 -0.185953
v -0.593406 -0.157980 -1.611739
v -1.043651 -0.157980 1.611739
v -0.593406 -0.157980 1.611739
v -1.043651 -0.157980 -1.611739
v -0.593406 -0.157980 0.243384
v -1.043651 -0.157980 0.243384
v -0.593406 -0.157980 -0.185953
v -1.043651 -0.157980 -0.185953
v -1.043651 0.211028 1.611739
v -0.593406 0.211028 -1.611739
v -0.593406 0.211028 1.611739
v -1.043651 0.211028 -1.611739
v -0.593406 0.211028 0.243384
v -1.043651 0.211028 0.243384
v -0.593406 0.211028 -0.185953
v -1.043651 0.211028 -0.185953
v -1.043651 -1.061417 0.099631
v -1.043651 -1.061417 1.755492
v -0.593406 -0.071063 -1.755492
v -0.593406 -1.061417 -1.755492
v -1.043651 0.124111 1.755492
v -1.043651 1.061417 1.755492
v -0.593406 -0.071063 1.755492
v -0.593406 -1.061417 1.755492
v -1.043651 -0.071063 -1.755492
v -1.043651 -1.061417 -1.755492
v -0.593406 1.061417 0.099631
v -0.593406 1.061417 1.755492
v -1.043651 1.061417 -0.042200
v -1.043651 1.061417 -1.755492
v -0.593406 -1.061417 -0.042200
v -1.043651 1.061417 0.099631
v -0.593406 -1.061417 0.099631
v -0.593406 -0.071063 0.099631
v -1.043651 -0.071063 0.099631
v -1.043651 -1.061417 -0.042200
v -0.593406 1.061417 -1.755492
v -0.593406 1.061417 -0.042200
v -0.593406 -0.071063 -0.042200
v -1.043651 -0.071063 -0.042200
v -1.043651 -0.071063 1.755492
v -0.593406 0.124111 -1.755492
v -0.593406 0.124111 1.755492
v -1.043651 0.124111 -1.755492
v -0.593406 0.124111 0.099631
v -1.043651 0.124111 0.099631
v -0.593406 0.124111 -0.042200
v -1.043651 0.124111 -0.042200
vt 0.304102 0.867852
vt 0.250183 0.867852
vt 0.250183 0.749963
vt 0.304102 0.749963
vt 0.304102 0.639596
vt 0.250183 0.639596
vt 0.250183 0.382111
vt 0.304102 0.382111
vt 0.304102 0.500000
vt 0.250183 0.500000
vt 0.250183 0.110441
vt 0.250183 0.000073
vt 0.304102 0.000073
vt 0.304102 0.110441
vt 0.122051 0.110441
vt 0.122051 0.000073
vt 0.132148 0.000073
vt 0.132148 0.110441
vt 0.250183 0.372014
vt 0.304102 0.372014
vt 0.304102 0.877950
vt 0.250183 0.877950
vt 0.304102 0.999927
vt 0.250183 0.999927
vt 0.250183 0.250037
vt 0.304102 0.250037
vt 0.117962 0.360551
vt 0.117962 0.250183
vt 0.128060 0.250183
vt 0.128060 0.360551
vt 0.117962 0.500146
vt 0.117962 0.383532
vt 0.128060 0.383532
vt 0.128060 0.500146
vt 0.122050 0.250036
vt 0.122051 0.133423
vt 0.132148 0.133423
vt 0.132148 0.250036
vt 0.250183 0.133423
vt 0.304102 0.133423
vt 0.304102 0.616614
vt 0.250183 0.616614
vt 0.000073 0.133422
vt 0.000073 0.110441
vt 0.000073 0.383532
vt 0.000073 0.360551
vt 0.250037 0.110441
vt 0.250037 0.133423
vt 0.250037 0.360551
vt 0.250037 0.383532
vt 0.010308 0.489912
vt 0.107728 0.489912
vt 0.000073 0.500146
vt 0.010308 0.143657
vt 0.010308 0.239802
vt 0.000073 0.250036
vt 0.010308 0.260417
vt 0.010308 0.350316
vt 0.000073 0.250183
vt 0.239802 0.239802
vt 0.239802 0.143657
vt 0.250037 0.250037
vt 0.239802 0.489912
vt 0.239802 0.393767
vt 0.250037 0.500146
vt 0.239802 0.010308
vt 0.142383 0.010308
vt 0.250037 0.000073
vt 0.239802 0.260418
vt 0.138294 0.260418
vt 0.250037 0.250183
vt 0.111816 0.239802
vt 0.107728 0.260417
vt 0.142383 0.239802
vt 0.142383 0.143657
vt 0.107728 0.393767
vt 0.138294 0.489912
vt 0.111816 0.010308
vt 0.010308 0.010308
vt 0.000073 0.000073
vt 0.111816 0.143657
vt 0.138294 0.393767
vt 0.010308 0.393767
vt 0.010308 0.100206
vt 0.239802 0.100206
vt 0.239802 0.350316
vt 0.142383 0.100206
vt 0.107728 0.350316
vt 0.111816 0.100206
vt 0.138294 0.350316
vn 0.0000 1.0000 0.0000
vn 0.0000 0.0000 1.0000
vn 0.0000 -1.0000 0.0000
vn 0.0000 0.0000 -1.0000
vn 1.0000 0.0000 0.0000
vn -1.0000 0.0000 0.0000
usemtl Material
s off
f 43/1/1 48/2/1 38/3/1 44/4/1
f 59/5/2 44/4/2 38/3/2 37/6/2
f 33/7/3 49/8/3 40/9/3 34/10/3
f 60/11/4 46/12/4 53/13/4 58/14/4
f 63/15/5 54/16/5 43/17/5 61/18/5
f 52/19/3 47/20/3 49/8/3 33/7/3
f 54/21/1 45/22/1 48/2/1 43/1/1
f 53/23/1 46/24/1 45/22/1 54/21/1
f 42/25/3 36/26/3 47/20/3 52/19/3
f 62/27/6 48/28/6 45/29/6 64/30/6
f 33/31/6 51/32/6 56/33/6 52/34/6
f 47/35/5 55/36/5 50/37/5 49/38/5
f 42/25/4 41/39/4 35/40/4 36/26/4
f 40/9/2 39/41/2 57/42/2 34/10/2
f 51/32/6 62/27/6 64/30/6 56/33/6
f 35/43/5 58/44/5 63/15/5 55/36/5
f 57/45/6 37/46/6 62/27/6 51/32/6
f 55/36/5 63/15/5 61/18/5 50/37/5
f 41/39/4 60/11/4 58/14/4 35/40/4
f 50/37/5 61/18/5 59/47/5 39/48/5
f 56/33/6 64/30/6 60/49/6 41/50/6
f 39/41/2 59/5/2 37/6/2 57/42/2
f 8/51/6 9/52/6 33/31/6 34/53/6
f 17/54/5 2/55/5 36/56/5 35/43/5
f 7/57/6 25/58/6 37/46/6 38/59/6
f 4/60/5 19/61/5 39/48/5 40/62/5
f 6/63/6 20/64/6 41/50/6 42/65/6
f 3/66/5 10/67/5 43/17/5 44/68/5
f 5/69/6 13/70/6 45/29/6 46/71/6
f 2/55/5 14/72/5 47/35/5 36/56/5
f 11/73/6 7/57/6 38/59/6 48/28/6
f 12/74/5 4/60/5 40/62/5 49/38/5
f 21/75/5 12/74/5 49/38/5 50/37/5
f 9/52/6 22/76/6 51/32/6 33/31/6
f 15/77/6 6/63/6 42/65/6 52/34/6
f 16/78/5 1/79/5 53/80/5 54/16/5
f 14/72/5 23/81/5 55/36/5 47/35/5
f 24/82/6 15/77/6 52/34/6 56/33/6
f 18/83/6 8/51/6 34/53/6 57/45/6
f 23/81/5 17/54/5 35/43/5 55/36/5
f 22/76/6 18/83/6 57/45/6 51/32/6
f 19/61/5 21/75/5 50/37/5 39/48/5
f 20/64/6 24/82/6 56/33/6 41/50/6
f 1/79/5 26/84/5 58/44/5 53/80/5
f 27/85/5 3/66/5 44/68/5 59/47/5
f 28/86/6 5/69/6 46/71/6 60/49/6
f 10/67/5 29/87/5 61/18/5 43/17/5
f 30/88/6 11/73/6 48/28/6 62/27/6
f 31/89/5 16/78/5 54/16/5 63/15/5
f 13/70/6 32/90/6 64/30/6 45/29/6
f 26/84/5 31/89/5 63/15/5 58/44/5
f 25/58/6 30/88/6 62/27/6 37/46/6
f 29/87/5 27/85/5 59/47/5 61/18/5
f 32/90/6 28/86/6 60/49/6 64/30/6
usemtl Material.001
f 32/90/6 13/70/6 5/69/6 28/86/6
f 29/87/5 10/67/5 3/66/5 27/85/5
f 25/58/6 7/57/6 11/73/6 30/88/6
f 26/84/5 1/79/5 16/78/5 31/89/5
f 2/55/5 17/54/5 23/81/5 14/72/5
f 8/51/6 18/83/6 22/76/6 9/52/6
f 12/74/5 21/75/5 19/61/5 4/60/5
f 15/77/6 24/82/6 20/64/6 6/63/6
