# Exported from Wings 3D 2.2.6.1
mtllib Carpet.mtl
o Cylinder1
#32 vertices, 17 faces
v 2.25722400 -1.5499662e-18 3.2312000e-2
v 2.08540305 -0.86380223 3.2312000e-2
v 1.59609840 -1.59609840 3.2312000e-2
v 0.86380223 -2.08540305 3.2312000e-2
v 1.9469046e-16 -2.25722400 3.2312000e-2
v -0.86380223 -2.08540305 3.2312000e-2
v -1.59609840 -1.59609840 3.2312000e-2
v -2.08540305 -0.86380223 3.2312000e-2
v -2.25722400 -2.7798018e-16 3.2312000e-2
v -2.08540305 0.86380223 3.2312000e-2
v -1.59609840 1.59609840 3.2312000e-2
v -0.86380223 2.08540305 3.2312000e-2
v -3.5816997e-16 2.25722400 3.2312000e-2
v 0.86380223 2.08540305 3.2312000e-2
v 1.59609840 1.59609840 3.2312000e-2
v 2.08540305 0.86380223 3.2312000e-2
v 2.30800000 -6.5165760e-18 -3.2312000e-2
v 2.13231396 -0.88323336 -3.2312000e-2
v 1.63200245 -1.63200245 -3.2312000e-2
v 0.88323336 -2.13231396 -3.2312000e-2
v 2.0031872e-16 -2.30800000 -3.2312000e-2
v -0.88323336 -2.13231396 -3.2312000e-2
v -1.63200245 -1.63200245 -3.2312000e-2
v -2.13231396 -0.88323336 -3.2312000e-2
v -2.30800000 -2.8916506e-16 -3.2312000e-2
v -2.13231396 0.88323336 -3.2312000e-2
v -1.63200245 1.63200245 -3.2312000e-2
v -0.88323336 2.13231396 -3.2312000e-2
v -3.6497825e-16 2.30800000 -3.2312000e-2
v 0.88323336 2.13231396 -3.2312000e-2
v 1.63200245 1.63200245 -3.2312000e-2
v 2.13231396 0.88323336 -3.2312000e-2
vt 0.10598178 0.49996931
vt 0.11987355 0.49996872
vt 0.13595773 0.34920369
vt 0.13597043 0.65073245
vt 0.14879273 0.35451817
vt 0.14880498 0.64541684
vt 0.22133564 0.22137826
vt 0.22136015 0.77855046
vt 0.23116175 0.23119914
vt 0.23118435 0.76872873
vt 0.34912608 0.13592235
vt 0.34915656 0.86397240
vt 0.35445042 0.14877797
vt 0.35447545 0.85113923
vt 0.49991155 0.89400000
vt 0.49991167 0.11989251
vt 0.49991642 0.88010749
vt 0.49991654 0.10600000
vt 0.64535265 0.14886077
vt 0.64537768 0.85122203
vt 0.65067154 0.13602760
vt 0.65070202 0.86407765
vt 0.76864375 0.23127127
vt 0.76866635 0.76880086
vt 0.77846795 0.22144954
vt 0.77849245 0.77862174
vt 0.85102312 0.35458316
vt 0.85103536 0.64548183
vt 0.86385766 0.34926755
vt 0.86387036 0.65079631
vt 0.87995455 0.50003128
vt 0.89384632 0.50003069
vn 0.57326073 2.2529159e-16 0.81937301
vn 0.52962386 -0.21937739 0.81937301
vn 0.40535655 -0.40535655 0.81937301
vn 0.21937739 -0.52962386 0.81937301
vn -1.0240527e-17 -0.57326073 0.81937301
vn -0.21937739 -0.52962386 0.81937301
vn -0.40535655 -0.40535655 0.81937301
vn -0.52962386 -0.21937739 0.81937301
vn -0.57326073 3.0721581e-17 0.81937301
vn -0.52962386 0.21937739 0.81937301
vn -0.40535655 0.40535655 0.81937301
vn -0.21937739 0.52962386 0.81937301
vn -1.3312685e-16 0.57326073 0.81937301
vn 0.21937739 0.52962386 0.81937301
vn 0.40535655 0.40535655 0.81937301
vn 0.52962386 0.21937739 0.81937301
vn 0.78631834 2.8093025e-16 0.61782155
vn 0.72646342 -0.30091100 0.61782155
vn 0.55601103 -0.55601103 0.61782155
vn 0.30091100 -0.72646342 0.61782155
vn -1.4046512e-17 -0.78631834 0.61782155
vn -0.30091100 -0.72646342 0.61782155
vn -0.55601103 -0.55601103 0.61782155
vn -0.72646342 -0.30091100 0.61782155
vn -0.78631834 1.4046512e-17 0.61782155
vn -0.72646342 0.30091100 0.61782155
vn -0.55601103 0.55601103 0.61782155
vn -0.30091100 0.72646342 0.61782155
vn -1.8260466e-16 0.78631834 0.61782155
vn 0.30091100 0.72646342 0.61782155
vn 0.55601103 0.55601103 0.61782155
vn 0.72646342 0.30091100 0.61782155
g Cylinder1_Cylinder1_auv
usemtl Cylinder1_auv
s 1
f 1/31/1 16/28/16 15/24/15 14/20/14 13/17/13 12/14/12 11/10/11 10/6/10 9/2/9 8/5/8 7/9/7 6/13/6 5/16/5 4/19/4 3/23/3 2/27/2
f 1/31/1 17/32/17 32/30/32 16/28/16
f 2/27/2 18/29/18 17/32/17 1/31/1
f 3/23/3 19/25/19 18/29/18 2/27/2
f 4/19/4 20/21/20 19/25/19 3/23/3
f 5/16/5 21/18/21 20/21/20 4/19/4
f 6/13/6 22/11/22 21/18/21 5/16/5
f 7/9/7 23/7/23 22/11/22 6/13/6
f 8/5/8 24/3/24 23/7/23 7/9/7
f 9/2/9 25/1/25 24/3/24 8/5/8
f 10/6/10 26/4/26 25/1/25 9/2/9
f 11/10/11 27/8/27 26/4/26 10/6/10
f 12/14/12 28/12/28 27/8/27 11/10/11
f 13/17/13 29/15/29 28/12/28 12/14/12
f 14/20/14 30/22/30 29/15/29 13/17/13
f 15/24/15 31/26/31 30/22/30 14/20/14
f 16/28/16 32/30/32 31/26/31 15/24/15
