# Exported from Wings 3D 2.2.6.1
mtllib Crate.mtl
o Cube_Cube.001
#56 vertices, 54 faces
v -1.00000000 -1.00000000 1.00000000
v -1.00000000 1.00000000 1.00000000
v -1.00000000 -1.00000000 -1.00000000
v -1.00000000 1.00000000 -1.00000000
v 1.00000000 -1.00000000 1.00000000
v 1.00000000 1.00000000 1.00000000
v 1.00000000 -1.00000000 -1.00000000
v 1.00000000 1.00000000 -1.00000000
v -1.00000000 -0.82267800 0.82267800
v -1.00000000 0.82267800 0.82267800
v -1.00000000 0.82267800 -0.82267800
v -1.00000000 -0.82267800 -0.82267800
v -0.82267800 -0.82267800 -1.00000000
v -0.82267800 0.82267800 -1.00000000
v 0.82267800 0.82267800 -1.00000000
v 0.82267800 -0.82267800 -1.00000000
v 1.00000000 -0.82267800 -0.82267800
v 1.00000000 0.82267800 -0.82267800
v 1.00000000 0.82267800 0.82267800
v 1.00000000 -0.82267800 0.82267800
v 0.82267800 -0.82267800 1.00000000
v 0.82267800 0.82267800 1.00000000
v -0.82267800 0.82267800 1.00000000
v -0.82267800 -0.82267800 1.00000000
v -0.82267800 -1.00000000 -0.82267800
v 0.82267800 -1.00000000 -0.82267800
v 0.82267800 -1.00000000 0.82267800
v -0.82267800 -1.00000000 0.82267800
v 0.82267800 1.00000000 -0.82267800
v -0.82267800 1.00000000 -0.82267800
v -0.82267800 1.00000000 0.82267800
v 0.82267800 1.00000000 0.82267800
v -0.93600700 -0.77003300 0.77003300
v -0.93600700 0.77003300 0.77003300
v -0.93600700 -0.77003300 -0.77003300
v -0.93600700 0.77003300 -0.77003300
v -0.77003300 0.77003300 -0.93600700
v -0.77003300 -0.77003300 -0.93600700
v 0.77003300 -0.77003300 -0.93600700
v 0.77003300 0.77003300 -0.93600700
v 0.93600700 0.77003300 -0.77003300
v 0.93600700 -0.77003300 -0.77003300
v 0.93600700 -0.77003300 0.77003300
v 0.93600700 0.77003300 0.77003300
v 0.77003300 0.77003300 0.93600700
v 0.77003300 -0.77003300 0.93600700
v -0.77003300 -0.77003300 0.93600700
v -0.77003300 0.77003300 0.93600700
v 0.77003300 -0.93600700 -0.77003300
v -0.77003300 -0.93600700 -0.77003300
v -0.77003300 -0.93600700 0.77003300
v 0.77003300 -0.93600700 0.77003300
v -0.77003300 0.93600700 -0.77003300
v 0.77003300 0.93600700 -0.77003300
v 0.77003300 0.93600700 0.77003300
v -0.77003300 0.93600700 0.77003300
vt 5.7191420e-3 7.0657261e-3
vt 8.1458771e-3 0.98965417
vt 8.1458771e-3 1.1158688e-2
vt 9.3562138e-3 0.98605061
vt 9.9317915e-3 0.98555214
vt 1.0172182e-2 3.8447947e-3
vt 1.0172182e-2 0.98234028
vt 1.0599612e-2 0.99291284
vt 1.0599612e-2 1.4417351e-2
vt 1.3247855e-2 0.98623494
vt 1.3247855e-2 7.7394489e-3
vt 1.3568863e-2 7.5641883e-3
vt 9.3053272e-2 9.4024669e-2
vt 9.5104820e-2 0.90306881
vt 9.5104820e-2 9.8492818e-2
vt 9.6517158e-2 0.89859320
vt 9.6690344e-2 0.89909166
vt 9.7131124e-2 0.89575491
vt 9.7131124e-2 9.1178925e-2
vt 9.7558554e-2 0.10100272
vt 9.7558554e-2 0.90557871
vt 0.10015423 9.4523131e-2
vt 0.10020680 9.4324815e-2
vt 0.10020680 0.89890081
vt 0.12607597 0.12690550
vt 0.12798565 0.87032924
vt 0.12798565 0.13151551
vt 0.12925673 0.86571237
vt 0.12971304 0.86621084
vt 0.13001195 0.12420162
vt 0.13001195 0.86301534
vt 0.13043938 0.13374229
vt 0.13043938 0.87255601
vt 0.13289380 0.12740396
vt 0.13308762 0.12706439
vt 0.13308762 0.86587811
vt 0.86488969 0.12690550
vt 0.86679253 0.87351000
vt 0.86679253 0.13469628
vt 0.86807045 0.86571237
vt 0.86852676 0.86621084
vt 0.86881883 0.12738238
vt 0.86881883 0.86619611
vt 0.86924626 0.13056153
vt 0.86924626 0.86937525
vt 0.87170753 0.12740396
vt 0.87189450 0.12388362
vt 0.87189450 0.86269735
vt 0.89762926 9.4024669e-2
vt 0.89967335 0.90653269
vt 0.89967335 0.10195670
vt 0.90109315 0.89859320
vt 0.90126633 0.89909166
vt 0.90169966 9.4642811e-2
vt 0.90169966 0.89921880
vt 0.90212709 9.7538832e-2
vt 0.90212709 0.90211482
vt 0.90473022 9.4523131e-2
vt 0.90477533 9.0860930e-2
vt 0.90477533 0.89543692
vt 0.98421463 7.0657261e-3
vt 0.98663230 1.5371337e-2
vt 0.98663230 0.99386682
vt 0.98785170 0.98605061
vt 0.98842728 0.98555214
vt 0.98865860 8.0574443e-3
vt 0.98865860 0.98655293
vt 0.98908603 1.0204702e-2
vt 0.98908603 0.98870019
vt 0.99173427 3.5267993e-3
vt 0.99173427 0.98202229
vt 0.99206435 7.5641883e-3
vn -1.00000000 0.0000000e+0 0.0000000e+0
vn -1.00000000 0.0000000e+0 0.0000000e+0
vn -3.1305281e-16 3.0455819e-17 1.00000000
vn 0.0000000e+0 0.0000000e+0 1.00000000
vn 0.0000000e+0 -1.00000000 6.2610563e-16
vn -3.1305281e-16 -1.00000000 3.0455819e-17
vn -1.00000000 0.0000000e+0 0.0000000e+0
vn -1.00000000 0.0000000e+0 0.0000000e+0
vn 0.0000000e+0 6.2610563e-16 1.00000000
vn -3.1305281e-16 3.0455819e-17 1.00000000
vn -3.1305281e-16 1.00000000 -3.0455819e-17
vn 0.0000000e+0 1.00000000 0.0000000e+0
vn -1.00000000 0.0000000e+0 0.0000000e+0
vn -1.00000000 0.0000000e+0 0.0000000e+0
vn -3.1305281e-16 -3.0455819e-17 -1.00000000
vn 0.0000000e+0 -6.2610563e-16 -1.00000000
vn 0.0000000e+0 -1.00000000 0.0000000e+0
vn -3.1305281e-16 -1.00000000 3.0455819e-17
vn -1.00000000 0.0000000e+0 0.0000000e+0
vn -1.00000000 0.0000000e+0 0.0000000e+0
vn -3.1305281e-16 -3.0455819e-17 -1.00000000
vn 0.0000000e+0 0.0000000e+0 -1.00000000
vn 0.0000000e+0 1.00000000 -6.2610563e-16
vn -3.1305281e-16 1.00000000 -3.0455819e-17
vn 1.00000000 0.0000000e+0 0.0000000e+0
vn 1.00000000 0.0000000e+0 0.0000000e+0
vn 3.1305281e-16 3.0455819e-17 1.00000000
vn 0.0000000e+0 0.0000000e+0 1.00000000
vn 3.1305281e-16 -1.00000000 3.0455819e-17
vn 0.0000000e+0 -1.00000000 6.2610563e-16
vn 1.00000000 0.0000000e+0 0.0000000e+0
vn 1.00000000 0.0000000e+0 0.0000000e+0
vn 3.1305281e-16 3.0455819e-17 1.00000000
vn 0.0000000e+0 6.2610563e-16 1.00000000
vn 0.0000000e+0 1.00000000 0.0000000e+0
vn 3.1305281e-16 1.00000000 -3.0455819e-17
vn 3.1305281e-16 -3.0455819e-17 -1.00000000
vn 0.0000000e+0 -6.2610563e-16 -1.00000000
vn 1.00000000 0.0000000e+0 0.0000000e+0
vn 1.00000000 0.0000000e+0 0.0000000e+0
vn 0.0000000e+0 -1.00000000 0.0000000e+0
vn 3.1305281e-16 -1.00000000 3.0455819e-17
vn 0.0000000e+0 0.0000000e+0 -1.00000000
vn 3.1305281e-16 -3.0455819e-17 -1.00000000
vn 1.00000000 0.0000000e+0 0.0000000e+0
vn 1.00000000 0.0000000e+0 0.0000000e+0
vn 0.0000000e+0 1.00000000 -6.2610563e-16
vn 3.1305281e-16 1.00000000 -3.0455819e-17
vn -0.63531082 0.77225654 0.0000000e+0
vn -0.63531082 0.0000000e+0 -0.77225654
vn -1.00000000 0.0000000e+0 0.0000000e+0
vn -1.00000000 0.0000000e+0 0.0000000e+0
vn -0.63531082 0.0000000e+0 -0.77225654
vn -1.00000000 0.0000000e+0 0.0000000e+0
vn -1.00000000 0.0000000e+0 0.0000000e+0
vn -0.63531082 -0.77225654 0.0000000e+0
vn -1.00000000 0.0000000e+0 0.0000000e+0
vn -1.00000000 0.0000000e+0 0.0000000e+0
vn -0.63531082 -0.77225654 0.0000000e+0
vn -0.63531082 0.0000000e+0 0.77225654
vn -0.63531082 0.77225654 0.0000000e+0
vn -1.00000000 0.0000000e+0 0.0000000e+0
vn -1.00000000 0.0000000e+0 0.0000000e+0
vn -0.63531082 0.0000000e+0 0.77225654
vn 0.0000000e+0 0.77225654 -0.63531082
vn 0.77225654 0.0000000e+0 -0.63531082
vn -3.1305281e-16 -3.0455819e-17 -1.00000000
vn 0.0000000e+0 -6.2610563e-16 -1.00000000
vn 0.77225654 0.0000000e+0 -0.63531082
vn -3.1305281e-16 -3.0455819e-17 -1.00000000
vn 0.0000000e+0 0.0000000e+0 -1.00000000
vn 0.0000000e+0 -0.77225654 -0.63531082
vn 0.0000000e+0 0.0000000e+0 -1.00000000
vn 3.1305281e-16 -3.0455819e-17 -1.00000000
vn 0.0000000e+0 -0.77225654 -0.63531082
vn -0.77225654 0.0000000e+0 -0.63531082
vn 0.0000000e+0 0.77225654 -0.63531082
vn 3.1305281e-16 -3.0455819e-17 -1.00000000
vn 0.0000000e+0 -6.2610563e-16 -1.00000000
vn -0.77225654 0.0000000e+0 -0.63531082
vn 0.63531082 0.0000000e+0 0.77225654
vn 1.00000000 0.0000000e+0 0.0000000e+0
vn 1.00000000 0.0000000e+0 0.0000000e+0
vn 0.63531082 0.77225654 0.0000000e+0
vn 0.63531082 0.0000000e+0 0.77225654
vn 1.00000000 0.0000000e+0 0.0000000e+0
vn 1.00000000 0.0000000e+0 0.0000000e+0
vn 0.63531082 -0.77225654 0.0000000e+0
vn 1.00000000 0.0000000e+0 0.0000000e+0
vn 1.00000000 0.0000000e+0 0.0000000e+0
vn 0.63531082 -0.77225654 0.0000000e+0
vn 0.63531082 0.0000000e+0 -0.77225654
vn 1.00000000 0.0000000e+0 0.0000000e+0
vn 1.00000000 0.0000000e+0 0.0000000e+0
vn 0.63531082 0.77225654 0.0000000e+0
vn 0.63531082 0.0000000e+0 -0.77225654
vn 3.1305281e-16 3.0455819e-17 1.00000000
vn 0.0000000e+0 0.0000000e+0 1.00000000
vn -0.77225654 0.0000000e+0 0.63531082
vn 0.0000000e+0 0.77225654 0.63531082
vn 3.1305281e-16 3.0455819e-17 1.00000000
vn 0.0000000e+0 6.2610563e-16 1.00000000
vn -0.77225654 0.0000000e+0 0.63531082
vn 0.0000000e+0 -0.77225654 0.63531082
vn 0.0000000e+0 6.2610563e-16 1.00000000
vn -3.1305281e-16 3.0455819e-17 1.00000000
vn 0.0000000e+0 -0.77225654 0.63531082
vn 0.77225654 0.0000000e+0 0.63531082
vn -3.1305281e-16 3.0455819e-17 1.00000000
vn 0.0000000e+0 0.0000000e+0 1.00000000
vn 0.0000000e+0 0.77225654 0.63531082
vn 0.77225654 0.0000000e+0 0.63531082
vn 0.0000000e+0 -1.00000000 0.0000000e+0
vn -3.1305281e-16 -1.00000000 3.0455819e-17
vn 0.0000000e+0 -0.63531082 0.77225654
vn 0.77225654 -0.63531082 0.0000000e+0
vn 0.0000000e+0 -1.00000000 0.0000000e+0
vn 3.1305281e-16 -1.00000000 3.0455819e-17
vn 0.0000000e+0 -0.63531082 0.77225654
vn -0.77225654 -0.63531082 0.0000000e+0
vn 3.1305281e-16 -1.00000000 3.0455819e-17
vn 0.0000000e+0 -1.00000000 6.2610563e-16
vn -0.77225654 -0.63531082 0.0000000e+0
vn 0.0000000e+0 -0.63531082 -0.77225654
vn 0.0000000e+0 -1.00000000 6.2610563e-16
vn -3.1305281e-16 -1.00000000 3.0455819e-17
vn 0.77225654 -0.63531082 0.0000000e+0
vn 0.0000000e+0 -0.63531082 -0.77225654
vn 0.0000000e+0 1.00000000 -6.2610563e-16
vn 3.1305281e-16 1.00000000 -3.0455819e-17
vn 0.0000000e+0 0.63531082 0.77225654
vn -0.77225654 0.63531082 0.0000000e+0
vn 0.0000000e+0 1.00000000 -6.2610563e-16
vn -3.1305281e-16 1.00000000 -3.0455819e-17
vn 0.0000000e+0 0.63531082 0.77225654
vn 0.77225654 0.63531082 0.0000000e+0
vn 0.0000000e+0 0.63531082 -0.77225654
vn -3.1305281e-16 1.00000000 -3.0455819e-17
vn 0.0000000e+0 1.00000000 0.0000000e+0
vn 0.77225654 0.63531082 0.0000000e+0
vn 0.0000000e+0 0.63531082 -0.77225654
vn 0.0000000e+0 1.00000000 0.0000000e+0
vn 3.1305281e-16 1.00000000 -3.0455819e-17
vn -0.77225654 0.63531082 0.0000000e+0
vn -0.63531082 0.77225654 0.0000000e+0
vn -0.63531082 0.0000000e+0 -0.77225654
vn -1.00000000 0.0000000e+0 0.0000000e+0
vn -0.63531082 0.0000000e+0 -0.77225654
vn -1.00000000 0.0000000e+0 0.0000000e+0
vn -0.63531082 -0.77225654 0.0000000e+0
vn -0.63531082 0.77225654 0.0000000e+0
vn -1.00000000 0.0000000e+0 0.0000000e+0
vn -0.63531082 0.0000000e+0 0.77225654
vn -1.00000000 0.0000000e+0 0.0000000e+0
vn -0.63531082 -0.77225654 0.0000000e+0
vn -0.63531082 0.0000000e+0 0.77225654
vn 0.77225654 0.0000000e+0 -0.63531082
vn 0.0000000e+0 0.0000000e+0 -1.00000000
vn 0.0000000e+0 -0.77225654 -0.63531082
vn 0.0000000e+0 0.77225654 -0.63531082
vn 0.77225654 0.0000000e+0 -0.63531082
vn 0.0000000e+0 0.0000000e+0 -1.00000000
vn 0.0000000e+0 0.77225654 -0.63531082
vn 0.0000000e+0 0.0000000e+0 -1.00000000
vn -0.77225654 0.0000000e+0 -0.63531082
vn 0.0000000e+0 0.0000000e+0 -1.00000000
vn 0.0000000e+0 -0.77225654 -0.63531082
vn -0.77225654 0.0000000e+0 -0.63531082
vn 0.63531082 0.0000000e+0 0.77225654
vn 1.00000000 0.0000000e+0 0.0000000e+0
vn 0.63531082 -0.77225654 0.0000000e+0
vn 0.63531082 0.0000000e+0 0.77225654
vn 1.00000000 0.0000000e+0 0.0000000e+0
vn 0.63531082 0.77225654 0.0000000e+0
vn 1.00000000 0.0000000e+0 0.0000000e+0
vn 0.63531082 0.77225654 0.0000000e+0
vn 0.63531082 0.0000000e+0 -0.77225654
vn 1.00000000 0.0000000e+0 0.0000000e+0
vn 0.63531082 -0.77225654 0.0000000e+0
vn 0.63531082 0.0000000e+0 -0.77225654
vn 0.0000000e+0 0.0000000e+0 1.00000000
vn -0.77225654 0.0000000e+0 0.63531082
vn 0.0000000e+0 -0.77225654 0.63531082
vn 0.0000000e+0 0.0000000e+0 1.00000000
vn -0.77225654 0.0000000e+0 0.63531082
vn 0.0000000e+0 0.77225654 0.63531082
vn 0.0000000e+0 0.0000000e+0 1.00000000
vn 0.0000000e+0 0.77225654 0.63531082
vn 0.77225654 0.0000000e+0 0.63531082
vn 0.0000000e+0 0.0000000e+0 1.00000000
vn 0.0000000e+0 -0.77225654 0.63531082
vn 0.77225654 0.0000000e+0 0.63531082
vn 0.0000000e+0 -1.00000000 0.0000000e+0
vn 0.0000000e+0 -0.63531082 0.77225654
vn -0.77225654 -0.63531082 0.0000000e+0
vn 0.0000000e+0 -1.00000000 0.0000000e+0
vn 0.0000000e+0 -0.63531082 0.77225654
vn 0.77225654 -0.63531082 0.0000000e+0
vn 0.0000000e+0 -1.00000000 0.0000000e+0
vn 0.77225654 -0.63531082 0.0000000e+0
vn 0.0000000e+0 -0.63531082 -0.77225654
vn 0.0000000e+0 -1.00000000 0.0000000e+0
vn -0.77225654 -0.63531082 0.0000000e+0
vn 0.0000000e+0 -0.63531082 -0.77225654
vn 0.0000000e+0 1.00000000 0.0000000e+0
vn 0.0000000e+0 0.63531082 0.77225654
vn 0.77225654 0.63531082 0.0000000e+0
vn 0.0000000e+0 1.00000000 0.0000000e+0
vn 0.0000000e+0 0.63531082 0.77225654
vn -0.77225654 0.63531082 0.0000000e+0
vn 0.0000000e+0 0.63531082 -0.77225654
vn 0.0000000e+0 1.00000000 0.0000000e+0
vn -0.77225654 0.63531082 0.0000000e+0
vn 0.0000000e+0 0.63531082 -0.77225654
vn 0.0000000e+0 1.00000000 0.0000000e+0
vn 0.77225654 0.63531082 0.0000000e+0
g Cube_Cube.001_Cube_Cube.001_auv
usemtl Cube_Cube.001_auv
s 1
f 2/2/7 10/14/54 9/50/51 1/63/1
f 2/67/11 31/55/138 30/54/134 4/66/24
f 4/64/21 14/53/70 13/58/67 3/72/15
f 6/65/33 22/52/101 21/49/97 5/61/27
f 7/12/37 16/22/78 15/17/74 8/4/44
f 7/11/40 17/23/83 20/24/94 5/10/26
f 7/68/41 26/56/117 25/20/113 3/9/17
f 8/6/48 29/19/130 32/18/143 6/7/36
f 18/59/85 41/47/169 42/35/172 17/23/81
f 20/24/96 43/36/177 44/48/180 19/60/92
f 24/13/112 47/25/189 48/28/192 23/16/108
f 28/21/128 51/33/201 52/45/204 27/57/124
f 30/54/135 53/42/206 54/30/209 29/19/131
f 32/18/141 55/31/211 56/43/214 31/55/137
f 34/26/149 36/27/154 35/39/152 33/38/147
f 37/41/158 40/29/166 39/34/164 38/46/162
s 2
f 1/8/5 28/21/125 27/57/122 5/69/30
f 2/5/9 23/16/105 22/52/102 6/65/34
f 3/62/13 12/51/62 11/15/58 4/3/20
f 4/66/23 30/54/133 29/19/129 8/6/47
f 5/10/25 20/24/93 19/60/90 6/71/32
f 8/70/45 18/59/86 17/23/82 7/11/39
f 9/50/49 33/38/145 35/39/151 12/51/61
f 11/15/59 36/27/155 34/26/150 10/14/56
f 13/58/65 38/46/160 39/34/163 16/22/77
f 15/17/75 40/29/167 37/41/159 14/53/72
f 17/23/84 42/35/174 43/36/176 20/24/95
f 19/60/91 44/48/179 41/47/171 18/59/88
f 25/20/116 50/32/198 51/33/200 28/21/127
f 27/57/123 52/45/203 49/44/195 26/56/120
f 29/19/132 54/30/210 55/31/213 32/18/144
f 31/55/140 56/43/216 53/42/207 30/54/136
f 45/40/181 48/28/190 47/25/187 46/37/184
s 3
f 1/63/2 9/50/52 12/51/63 3/62/14
f 1/1/3 24/13/109 23/16/106 2/5/10
f 3/72/16 13/58/68 16/22/79 7/12/38
f 4/3/19 11/15/57 10/14/55 2/2/8
f 5/69/29 27/57/121 26/56/118 7/68/42
f 6/71/31 19/60/89 18/59/87 8/70/46
f 6/7/35 32/18/142 31/55/139 2/67/12
f 8/4/43 15/17/73 14/53/71 4/64/22
f 10/14/53 34/26/148 33/38/146 9/50/50
f 12/51/64 35/39/153 36/27/156 11/15/60
f 14/53/69 37/41/157 38/46/161 13/58/66
f 16/22/80 39/34/165 40/29/168 15/17/76
f 22/52/103 45/40/182 46/37/185 21/49/99
f 41/47/170 44/48/178 43/36/175 42/35/173
f 49/44/193 52/45/202 51/33/199 50/32/196
f 53/42/205 56/43/215 55/31/212 54/30/208
s 4
f 3/9/18 25/20/114 28/21/126 1/8/6
f 21/49/100 46/37/186 47/25/188 24/13/111
f 23/16/107 48/28/191 45/40/183 22/52/104
f 26/56/119 49/44/194 50/32/197 25/20/115
s 5
f 5/61/28 21/49/98 24/13/110 1/1/4
