# Exported from Wings 3D 2.2.6.1
mtllib Plant 1.mtl
o Cube2_sep4
#56 vertices, 50 faces
v -0.58650000 0.58650000 -0.55911111
v -0.58650000 -0.58650000 -0.55911111
v -0.75000000 0.75000000 1.00000000
v -0.75000000 -0.75000000 1.00000000
v 0.58650000 0.58650000 -0.55911111
v 0.58650000 -0.58650000 -0.55911111
v 0.75000000 0.75000000 1.00000000
v 0.75000000 -0.75000000 1.00000000
v -0.78200000 -3.4235682e-17 -0.55911111
v 0.0000000e+0 0.78200000 -0.55911111
v 0.0000000e+0 -0.78200000 -0.55911111
v 0.78200000 -3.4235682e-17 -0.55911111
v -1.00000000 6.1232340e-17 1.00000000
v 0.0000000e+0 1.00000000 1.00000000
v 0.0000000e+0 -1.00000000 1.00000000
v 1.00000000 6.1232340e-17 1.00000000
v 0.0000000e+0 1.08200000 1.00000000
v -0.81150000 0.81150000 1.00000000
v -1.08200000 6.1232340e-17 1.00000000
v -0.81150000 -0.81150000 1.00000000
v 0.0000000e+0 -1.08200000 1.00000000
v 0.81150000 -0.81150000 1.00000000
v 1.08200000 6.1232340e-17 1.00000000
v 0.81150000 0.81150000 1.00000000
v 1.4988011e-18 1.14042800 1.31822222
v -0.85532100 0.85532100 1.31822222
v -1.14042800 8.0717831e-17 1.31822222
v -0.85532100 -0.85532100 1.31822222
v 1.4988011e-18 -1.14042800 1.31822222
v 0.85532100 -0.85532100 1.31822222
v 1.14042800 8.0717831e-17 1.31822222
v 0.85532100 0.85532100 1.31822222
v 1.4988011e-18 1.01041921 1.31822222
v -0.75781441 0.75781441 1.31822222
v -1.01041921 8.0717831e-17 1.31822222
v -0.75781441 -0.75781441 1.31822222
v 1.4988011e-18 -1.01041921 1.31822222
v 0.75781441 -0.75781441 1.31822222
v 1.01041921 8.0717831e-17 1.31822222
v 0.75781441 0.75781441 1.31822222
v 1.4279827e-18 0.95585657 1.03911111
v -0.71689243 0.71689243 1.03911111
v -0.95585657 6.3627205e-17 1.03911111
v -0.71689243 -0.71689243 1.03911111
v 1.4279827e-18 -0.95585657 1.03911111
v 0.71689243 -0.71689243 1.03911111
v 0.95585657 6.3627205e-17 1.03911111
v 0.71689243 0.71689243 1.03911111
v 2.3041517e-18 0.44961199 1.18844444
v -0.33720899 0.33720899 1.18844444
v -0.44961199 7.0634055e-17 1.18844444
v -0.33720899 -0.33720899 1.18844444
v 2.3041517e-18 -0.44961199 1.18844444
v 0.33720899 -0.33720899 1.18844444
v 0.44961199 7.0634055e-17 1.18844444
v 0.33720899 0.33720899 1.18844444
vt 2.9033333e-2 0.39175416
vt 2.9466667e-2 0.39262551
vt 3.9543887e-2 0.35894962
vt 4.0016627e-2 0.35982285
vt 4.4228859e-2 0.35160771
vt 4.4767002e-2 0.35249441
vt 9.0587947e-2 0.18275270
vt 9.1217365e-2 0.18373333
vt 0.12197053 0.41577489
vt 0.12239881 0.41676202
vt 0.12799030 0.38189027
vt 0.12845659 0.38287372
vt 0.12955216 0.37312023
vt 0.13004502 0.37410490
vt 0.15762311 0.19805014
vt 0.15822573 0.19905498
vt 0.21649663 0.42475953
vt 0.21696696 0.42585270
vt 0.21805642 0.39006297
vt 0.21844840 0.38134366
vt 0.21854552 0.39112770
vt 0.21894243 0.38239639
vt 0.22642638 0.20387850
vt 0.22701086 0.20490758
vt 0.29547508 0.20424730
vt 0.29604331 0.20532000
vt 0.30337999 0.63994741
vt 0.30772393 0.38112997
vt 0.30822547 0.38220478
vt 0.30849256 0.39000479
vt 0.30901175 0.39108155
vt 0.31144762 0.42429287
vt 0.31196986 0.42537970
vt 0.32505498 0.70497241
vt 0.32505498 0.57492242
vt 0.36361246 0.19502657
vt 0.36416543 0.19614123
vt 0.39007998 0.72664741
vt 0.39007998 0.55324742
vt 0.39463335 0.36736020
vt 0.39511249 0.36842071
vt 0.39864064 0.37509288
vt 0.39917836 0.37614992
vt 0.40616528 0.40870819
vt 0.40670862 0.40977448
vt 0.45510497 0.70497241
vt 0.45510497 0.57492242
vt 0.47677997 0.63994741
vt 0.57140023 0.47077139
vt 0.59841847 0.55164015
vt 0.59889602 0.39002119
vt 0.60086690 0.19305973
vt 0.61236127 8.7136845e-2
vt 0.61635143 0.18944265
vt 0.62571232 9.7901768e-2
vt 0.63015799 0.47095103
vt 0.64240073 0.50794022
vt 0.64262833 0.43403605
vt 0.64521970 0.18111021
vt 0.64605167 0.11430136
vt 0.66075155 0.29052170
vt 0.67184790 0.27675961
vt 0.67911155 0.57917861
vt 0.67931031 0.52042091
vt 0.67962286 0.42180370
vt 0.67982161 0.36304600
vt 0.69286132 0.25069802
vt 0.71116502 9.9322479e-2
vt 0.71318690 6.9343836e-2
vt 0.71343847 5.3444444e-2
vt 0.71630483 0.50818856
vt 0.71653243 0.43428439
vt 0.72877517 0.47127357
vt 0.76003714 0.55220341
vt 0.76051470 0.39058446
vt 0.76869509 0.32837933
vt 0.76894666 0.31247994
vt 0.77096855 0.28250130
vt 0.78753293 0.47145321
vt 0.78927224 0.13112576
vt 0.81028566 0.10506416
vt 0.82138201 9.1302074e-2
vt 0.83608189 0.26752241
vt 0.83691386 0.20071357
vt 0.85642125 0.28392201
vt 0.86578214 0.19238113
vt 0.86977229 0.29468693
vt 0.88126667 0.18876404
vn -0.57595902 0.57595902 -0.58012275
vn -0.57595902 -0.57595902 -0.58012275
vn -0.43614399 0.43614399 -0.78711933
vn -0.43614399 -0.43614399 -0.78711933
vn 0.57595902 0.57595902 -0.58012275
vn 0.57595902 -0.57595902 -0.58012275
vn 0.43614399 0.43614399 -0.78711933
vn 0.43614399 -0.43614399 -0.78711933
vn -0.83019901 0.0000000e+0 -0.55746713
vn 0.0000000e+0 0.83019901 -0.55746713
vn 0.0000000e+0 -0.83019901 -0.55746713
vn 0.83019901 0.0000000e+0 -0.55746713
vn -0.63919395 0.0000000e+0 -0.76904557
vn 0.0000000e+0 0.63919395 -0.76904557
vn 0.0000000e+0 -0.63919395 -0.76904557
vn 0.63919395 0.0000000e+0 -0.76904557
vn 0.0000000e+0 0.62360800 -0.78173721
vn -0.42502260 0.42502260 -0.79919433
vn -0.62360800 0.0000000e+0 -0.78173721
vn -0.42502260 -0.42502260 -0.79919433
vn 0.0000000e+0 -0.62360800 -0.78173721
vn 0.42502260 -0.42502260 -0.79919433
vn 0.62360800 0.0000000e+0 -0.78173721
vn 0.42502260 0.42502260 -0.79919433
vn 0.0000000e+0 0.74834963 0.66330448
vn -0.51518596 0.51518596 0.68495756
vn -0.74834963 0.0000000e+0 0.66330448
vn -0.51518596 -0.51518596 0.68495756
vn 0.0000000e+0 -0.74834963 0.66330448
vn 0.51518596 -0.51518596 0.68495756
vn 0.74834963 0.0000000e+0 0.66330448
vn 0.51518596 0.51518596 0.68495756
vn 0.0000000e+0 -0.61937710 0.78509363
vn 0.42201017 -0.42201017 0.80238073
vn 0.61937710 0.0000000e+0 0.78509363
vn 0.42201017 0.42201017 0.80238073
vn 0.0000000e+0 0.61937710 0.78509363
vn -0.42201017 0.42201017 0.80238073
vn -0.61937710 0.0000000e+0 0.78509363
vn -0.42201017 -0.42201017 0.80238073
vn 0.0000000e+0 -0.49685285 0.86783480
vn 0.33587363 -0.33587363 0.87998739
vn 0.49685285 0.0000000e+0 0.86783480
vn 0.33587363 0.33587363 0.87998739
vn 0.0000000e+0 0.49685285 0.86783480
vn -0.33587363 0.33587363 0.87998739
vn -0.49685285 0.0000000e+0 0.86783480
vn -0.33587363 -0.33587363 0.87998739
vn -6.0870768e-17 0.19007762 0.98176906
vn -0.12697353 0.12697353 0.98374562
vn -0.19007762 0.0000000e+0 0.98176906
vn -0.12697353 -0.12697353 0.98374562
vn -6.0870768e-17 -0.19007762 0.98176906
vn 0.12697353 -0.12697353 0.98374562
vn 0.19007762 0.0000000e+0 0.98176906
vn 0.12697353 0.12697353 0.98374562
g Cube2_sep4_Cube2_auv
usemtl Cube2_auv
s 1
f 1/46/1 10/38/10 5/34/5 12/27/12 6/35/6 11/39/11 2/47/2 9/48/9
f 2/15/2 11/23/11 15/20/15 4/13/4
f 3/29/3 14/22/14 10/24/10 1/26/1
f 3/29/3 18/31/18 17/21/17 14/22/14
f 4/13/4 13/5/13 9/7/9 2/15/2
f 4/13/4 20/11/20 19/3/19 13/5/13
f 5/16/5 7/14/7 16/6/16 12/8/12
f 5/16/5 10/24/10 14/22/14 7/14/7
f 6/25/6 12/36/12 16/40/16 8/28/8
f 7/14/7 24/12/24 23/4/23 16/6/16
f 8/28/8 15/20/15 11/23/11 6/25/6
f 8/28/8 22/30/22 21/19/21 15/20/15
f 9/37/9 13/41/13 3/29/3 1/26/1
f 13/41/13 19/43/19 18/31/18 3/29/3
f 14/22/14 17/21/17 24/12/24 7/14/7
f 15/20/15 21/19/21 20/11/20 4/13/4
f 16/40/16 23/42/23 22/30/22 8/28/8
f 17/21/17 25/18/25 32/10/32 24/12/24
f 18/31/18 26/33/26 25/18/25 17/21/17
f 19/43/19 27/45/27 26/33/26 18/31/18
f 20/11/20 28/9/28 27/1/27 19/3/19
f 21/19/21 29/17/29 28/9/28 20/11/20
f 22/30/22 30/32/30 29/17/29 21/19/21
f 23/42/23 31/44/31 30/32/30 22/30/22
f 24/12/24 32/10/32 31/2/31 23/4/23
f 25/76/25 33/77/33 40/85/40 32/87/32
f 26/61/26 34/62/34 33/77/33 25/76/25
f 27/52/27 35/54/35 34/62/34 26/61/26
f 28/53/28 36/55/36 35/54/35 27/52/27
f 29/70/29 37/69/37 36/55/36 28/53/28
f 30/82/30 38/81/38 37/69/37 29/70/29
f 31/88/31 39/86/39 38/81/38 30/82/30
f 32/87/32 40/85/40 39/86/39 31/88/31
f 33/77/33 41/78/41 48/83/48 40/85/40
f 34/62/34 42/67/42 41/78/41 33/77/33
f 35/54/35 43/59/43 42/67/42 34/62/34
f 36/55/36 44/60/44 43/59/43 35/54/35
f 37/69/37 45/68/45 44/60/44 36/55/36
f 38/81/38 46/80/46 45/68/45 37/69/37
f 39/86/39 47/84/47 46/80/46 38/81/38
f 40/85/40 48/83/48 47/84/47 39/86/39
f 41/63/41 49/64/49 56/71/56 48/74/48
f 42/50/42 50/57/50 49/64/49 41/63/41
f 43/49/43 51/56/51 50/57/50 42/50/42
f 44/51/44 52/58/52 51/56/51 43/49/43
f 45/66/45 53/65/53 52/58/52 44/51/44
f 46/75/46 54/72/54 53/65/53 45/66/45
f 47/79/47 55/73/55 54/72/54 46/75/46
f 48/74/48 56/71/56 55/73/55 47/79/47
f 50/57/50 51/56/51 52/58/52 53/65/53 54/72/54 55/73/55 56/71/56 49/64/49
o Cube2
#80 vertices, 72 faces
v -0.40293064 1.10441996 2.14670945
v -0.40293064 1.13761859 2.22740046
v 0.40293064 1.10441996 2.14670945
v 0.40293064 1.13761859 2.22740046
v -0.14653532 0.26348411 1.01114044
v -0.34916000 0.42021260 1.60518055
v -0.14917295 -0.17254166 1.05120821
v -0.34916000 0.36852108 1.65288194
v 0.14653532 0.26348411 1.01114044
v 0.34916000 0.42021260 1.60518055
v 0.14917295 -0.17254166 1.05120821
v 0.34916000 0.36852108 1.65288194
v -0.33604415 1.81253290 2.06478143
v -0.33604415 1.87808584 2.08275364
v 0.33604415 1.87808584 2.08275364
v 0.33604415 1.81253290 2.06478143
v -7.2585537e-2 2.25176215 1.43666138
v -7.2585537e-2 2.30422768 1.47334926
v 7.2585537e-2 2.30422768 1.47334926
v 7.2585537e-2 2.25176215 1.43666138
v 0.40293064 -1.15927619 2.14670945
v 0.40293064 -1.19247482 2.22740046
v -0.40293064 -1.15927619 2.14670945
v -0.40293064 -1.19247482 2.22740046
v 0.14653532 -0.31834034 1.01114044
v 0.34916000 -0.47506883 1.60518055
v 0.14917295 0.11768543 1.05120821
v 0.34916000 -0.42337731 1.65288194
v -0.14653532 -0.31834034 1.01114044
v -0.34916000 -0.47506883 1.60518055
v -0.14917295 0.11768543 1.05120821
v -0.34916000 -0.42337731 1.65288194
v 0.33604415 -1.86738914 2.06478143
v 0.33604415 -1.93294208 2.08275364
v -0.33604415 -1.93294208 2.08275364
v -0.33604415 -1.86738914 2.06478143
v 7.2585537e-2 -2.30661839 1.43666138
v 7.2585537e-2 -2.35908391 1.47334926
v -7.2585537e-2 -2.35908391 1.47334926
v -7.2585537e-2 -2.30661839 1.43666138
v 1.13184807 0.37550252 2.14670945
v 1.16504671 0.37550252 2.22740046
v 1.13184807 -0.43035876 2.14670945
v 1.16504671 -0.43035876 2.22740046
v 0.29091223 0.11910720 1.01114044
v 0.44764071 0.32173188 1.60518055
v -0.14511355 0.12174484 1.05120821
v 0.39594919 0.32173188 1.65288194
v 0.29091223 -0.17396344 1.01114044
v 0.44764071 -0.37658812 1.60518055
v -0.14511355 -0.17660107 1.05120821
v 0.39594919 -0.37658812 1.65288194
v 1.83996102 0.30861604 2.06478143
v 1.90551396 0.30861604 2.08275364
v 1.90551396 -0.36347227 2.08275364
v 1.83996102 -0.36347227 2.06478143
v 2.27919027 4.5157421e-2 1.43666138
v 2.33165579 4.5157421e-2 1.47334926
v 2.33165579 -0.10001365 1.47334926
v 2.27919027 -0.10001365 1.43666138
v -1.13184807 -0.43035876 2.14670945
v -1.16504671 -0.43035876 2.22740046
v -1.13184807 0.37550252 2.14670945
v -1.16504671 0.37550252 2.22740046
v -0.29091223 -0.17396344 1.01114044
v -0.44764071 -0.37658812 1.60518055
v 0.14511355 -0.17660107 1.05120821
v -0.39594919 -0.37658812 1.65288194
v -0.29091223 0.11910720 1.01114044
v -0.44764071 0.32173188 1.60518055
v 0.14511355 0.12174484 1.05120821
v -0.39594919 0.32173188 1.65288194
v -1.83996102 -0.36347227 2.06478143
v -1.90551396 -0.36347227 2.08275364
v -1.90551396 0.30861604 2.08275364
v -1.83996102 0.30861604 2.06478143
v -2.27919027 -0.10001365 1.43666138
v -2.33165579 -0.10001365 1.47334926
v -2.33165579 4.5157421e-2 1.47334926
v -2.27919027 4.5157421e-2 1.43666138
vt 0.54376955 0.90569633
vt 0.54513716 0.90454217
vt 0.54927830 0.89454451
vt 0.55045063 0.89635843
vt 0.55616733 0.89844804
vt 0.55715093 0.90029878
vt 0.55757425 0.81932634
vt 0.55790212 0.91339836
vt 0.55929120 0.91220467
vt 0.55990576 0.81590729
vt 0.59100972 0.74287595
vt 0.59109075 0.74232989
vt 0.59735109 0.80964489
vt 0.60364955 0.80781942
vt 0.60381356 0.81035016
vt 0.60584819 0.81665807
vt 0.62300278 0.85498393
vt 0.62543373 0.85138181
vt 0.63353205 0.74779048
vt 0.63518712 0.75494838
vt 0.63729335 0.75538604
vt 0.64230921 0.66063854
vt 0.64423446 0.75399455
vt 0.64725760 0.65172652
vt 0.65674195 0.68585205
vt 0.65674195 0.70001362
vt 0.66849483 0.67695953
vt 0.66849483 0.68405746
vt 0.66954222 0.78508478
vt 0.66958042 0.78541135
vt 0.67321371 0.67799580
vt 0.67856277 0.68191632
vt 0.67973242 0.68476076
vt 0.68458989 0.67695953
vt 0.68458989 0.68405746
vt 0.68572103 0.68696753
vt 0.68923456 0.68585205
vt 0.68923456 0.70001362
vt 0.69449279 0.61143333
vt 0.69729906 0.60685006
vt 0.70499270 0.62569775
vt 0.71039474 0.69749763
vt 0.71052403 0.61396550
vt 0.71523982 0.68877582
vt 0.71663463 0.62725971
vt 0.71860984 0.62430587
vt 0.72306690 0.62690234
vt 0.72582981 0.62239889
vn -0.71680232 0.18664607 -0.67183159
vn -0.75326689 -0.14898588 0.64061861
vn 0.71680232 0.18664607 -0.67183159
vn 0.75326689 -0.14898588 0.64061861
vn -0.47842404 0.41478280 -0.77399332
vn -0.69976486 0.52805368 -0.48113247
vn -0.66259951 -0.61265034 -0.43083808
vn -0.72295988 -0.53919719 0.43196691
vn 0.47842404 0.41478280 -0.77399332
vn 0.69976486 0.52805368 -0.48113247
vn 0.66259951 -0.61265034 -0.43083808
vn 0.72295988 -0.53919719 0.43196691
vn -0.68207648 -0.25176844 -0.68657434
vn -0.75152834 0.47779175 0.45488481
vn 0.75152834 0.47779175 0.45488481
vn 0.68207648 -0.25176844 -0.68657434
vn -0.48510822 -5.4579968e-2 -0.87274913
vn -0.50092558 0.81471483 -0.29208444
vn 0.50092558 0.81471483 -0.29208444
vn 0.48510822 -5.4579968e-2 -0.87274913
vn 0.71680232 -0.18664607 -0.67183159
vn 0.75326689 0.14898588 0.64061861
vn -0.71680232 -0.18664607 -0.67183159
vn -0.75326689 0.14898588 0.64061861
vn 0.47842404 -0.41478280 -0.77399332
vn 0.69976486 -0.52805368 -0.48113247
vn 0.66259951 0.61265034 -0.43083808
vn 0.72295988 0.53919719 0.43196691
vn -0.47842404 -0.41478280 -0.77399332
vn -0.69976486 -0.52805368 -0.48113247
vn -0.66259951 0.61265034 -0.43083808
vn -0.72295988 0.53919719 0.43196691
vn 0.68207648 0.25176844 -0.68657434
vn 0.75152834 -0.47779175 0.45488481
vn -0.75152834 -0.47779175 0.45488481
vn -0.68207648 0.25176844 -0.68657434
vn 0.48510822 5.4579968e-2 -0.87274913
vn 0.50092558 -0.81471483 -0.29208444
vn -0.50092558 -0.81471483 -0.29208444
vn -0.48510822 5.4579968e-2 -0.87274913
vn 0.18664607 0.71680232 -0.67183159
vn -0.14898588 0.75326689 0.64061861
vn 0.18664607 -0.71680232 -0.67183159
vn -0.14898588 -0.75326689 0.64061861
vn 0.41478280 0.47842404 -0.77399332
vn 0.52805368 0.69976486 -0.48113247
vn -0.61265034 0.66259951 -0.43083808
vn -0.53919719 0.72295988 0.43196691
vn 0.41478280 -0.47842404 -0.77399332
vn 0.52805368 -0.69976486 -0.48113247
vn -0.61265034 -0.66259951 -0.43083808
vn -0.53919719 -0.72295988 0.43196691
vn -0.25176844 0.68207648 -0.68657434
vn 0.47779175 0.75152834 0.45488481
vn 0.47779175 -0.75152834 0.45488481
vn -0.25176844 -0.68207648 -0.68657434
vn -5.4579968e-2 0.48510822 -0.87274913
vn 0.81471483 0.50092558 -0.29208444
vn 0.81471483 -0.50092558 -0.29208444
vn -5.4579968e-2 -0.48510822 -0.87274913
vn -0.18664607 -0.71680232 -0.67183159
vn 0.14898588 -0.75326689 0.64061861
vn -0.18664607 0.71680232 -0.67183159
vn 0.14898588 0.75326689 0.64061861
vn -0.41478280 -0.47842404 -0.77399332
vn -0.52805368 -0.69976486 -0.48113247
vn 0.61265034 -0.66259951 -0.43083808
vn 0.53919719 -0.72295988 0.43196691
vn -0.41478280 0.47842404 -0.77399332
vn -0.52805368 0.69976486 -0.48113247
vn 0.61265034 0.66259951 -0.43083808
vn 0.53919719 0.72295988 0.43196691
vn 0.25176844 -0.68207648 -0.68657434
vn -0.47779175 -0.75152834 0.45488481
vn -0.47779175 0.75152834 0.45488481
vn 0.25176844 0.68207648 -0.68657434
vn 5.4579968e-2 -0.48510822 -0.87274913
vn -0.81471483 -0.50092558 -0.29208444
vn -0.81471483 0.50092558 -0.29208444
vn 5.4579968e-2 0.48510822 -0.87274913
g Cube2_Cube2_auv
usemtl Cube2_auv
s 1
f 57/107/57 62/119/62 64/120/64 58/108/58
f 57/118/57 69/106/69 72/98/72 59/99/59
f 58/117/58 64/132/64 68/112/68 60/100/60
f 58/108/58 70/104/70 69/103/69 57/107/57
f 59/99/59 66/110/66 62/130/62 57/118/57
f 59/111/59 72/102/72 71/101/71 60/109/60
f 60/109/60 68/121/68 66/124/66 59/111/59
f 60/100/60 71/95/71 70/105/70 58/117/58
f 61/135/61 62/130/62 66/110/66 65/127/65
f 63/133/63 64/120/64 62/119/62 61/131/61
f 65/125/65 67/126/67 63/114/63 61/113/61
f 67/128/67 68/112/68 64/132/64 63/136/63
f 68/121/68 67/129/67 65/134/65 66/124/66
f 69/106/69 73/97/73 76/90/76 72/98/72
f 70/104/70 74/94/74 73/92/73 69/103/69
f 71/95/71 75/89/75 74/96/74 70/105/70
f 72/102/72 76/93/76 75/91/75 71/101/71
f 74/123/74 75/116/75 76/115/76 73/122/73
f 77/107/77 82/119/82 84/120/84 78/108/78
f 77/118/77 89/106/89 92/98/92 79/99/79
f 78/117/78 84/132/84 88/112/88 80/100/80
f 78/108/78 90/104/90 89/103/89 77/107/77
f 79/99/79 86/110/86 82/130/82 77/118/77
f 79/111/79 92/102/92 91/101/91 80/109/80
f 80/109/80 88/121/88 86/124/86 79/111/79
f 80/100/80 91/95/91 90/105/90 78/117/78
f 81/135/81 82/130/82 86/110/86 85/127/85
f 83/133/83 84/120/84 82/119/82 81/131/81
f 85/125/85 87/126/87 83/114/83 81/113/81
f 87/128/87 88/112/88 84/132/84 83/136/83
f 88/121/88 87/129/87 85/134/85 86/124/86
f 89/106/89 93/97/93 96/90/96 92/98/92
f 90/104/90 94/94/94 93/92/93 89/103/89
f 91/95/91 95/89/95 94/96/94 90/105/90
f 92/102/92 96/93/96 95/91/95 91/101/91
f 94/123/94 95/116/95 96/115/96 93/122/93
f 97/107/97 102/119/102 104/120/104 98/108/98
f 97/118/97 109/106/109 112/98/112 99/99/99
f 98/117/98 104/132/104 108/112/108 100/100/100
f 98/108/98 110/104/110 109/103/109 97/107/97
f 99/99/99 106/110/106 102/130/102 97/118/97
f 99/111/99 112/102/112 111/101/111 100/109/100
f 100/109/100 108/121/108 106/124/106 99/111/99
f 100/100/100 111/95/111 110/105/110 98/117/98
f 101/135/101 102/130/102 106/110/106 105/127/105
f 103/133/103 104/120/104 102/119/102 101/131/101
f 105/125/105 107/126/107 103/114/103 101/113/101
f 107/128/107 108/112/108 104/132/104 103/136/103
f 108/121/108 107/129/107 105/134/105 106/124/106
f 109/106/109 113/97/113 116/90/116 112/98/112
f 110/104/110 114/94/114 113/92/113 109/103/109
f 111/95/111 115/89/115 114/96/114 110/105/110
f 112/102/112 116/93/116 115/91/115 111/101/111
f 114/123/114 115/116/115 116/115/116 113/122/113
f 117/107/117 122/119/122 124/120/124 118/108/118
f 117/118/117 129/106/129 132/98/132 119/99/119
f 118/117/118 124/132/124 128/112/128 120/100/120
f 118/108/118 130/104/130 129/103/129 117/107/117
f 119/99/119 126/110/126 122/130/122 117/118/117
f 119/111/119 132/102/132 131/101/131 120/109/120
f 120/109/120 128/121/128 126/124/126 119/111/119
f 120/100/120 131/95/131 130/105/130 118/117/118
f 121/135/121 122/130/122 126/110/126 125/127/125
f 123/133/123 124/120/124 122/119/122 121/131/121
f 125/125/125 127/126/127 123/114/123 121/113/121
f 127/128/127 128/112/128 124/132/124 123/136/123
f 128/121/128 127/129/127 125/134/125 126/124/126
f 129/106/129 133/97/133 136/90/136 132/98/132
f 130/104/130 134/94/134 133/92/133 129/103/129
f 131/95/131 135/89/135 134/96/134 130/105/130
f 132/102/132 136/93/136 135/91/135 131/101/131
f 134/123/134 135/116/135 136/115/136 133/122/133
