# Exported from Wings 3D 2.2.6.1
mtllib Trash.mtl
o Cylinder1_sep8
#60 vertices, 41 faces
v -0.11000000 1.88782171 0.34080027
v -0.11000000 1.88782171 -0.33239973
v 0.11000000 1.88782171 0.34080027
v 0.11000000 1.88782171 -0.33239973
v -0.11000000 2.10782171 0.27953491
v -0.11000000 2.04655635 0.34080027
v -0.11000000 2.10782171 -0.27113438
v -0.11000000 2.04655635 -0.33239973
v 0.11000000 2.10782171 0.27953491
v 0.11000000 2.04655635 0.34080027
v 0.11000000 2.10782171 -0.27113438
v 0.11000000 2.04655635 -0.33239973
v 1.00000000 1.70977290 4.2002686e-3
v 0.92387953 1.70977290 -0.37848316
v 0.70710678 1.70977290 -0.70290651
v 0.38268343 1.70977290 -0.91967926
v 6.1232340e-17 1.70977290 -0.99579973
v -0.38268343 1.70977290 -0.91967926
v -0.70710678 1.70977290 -0.70290651
v -0.92387953 1.70977290 -0.37848316
v -1.00000000 1.70977290 4.2002686e-3
v -0.92387953 1.70977290 0.38688370
v -0.70710678 1.70977290 0.71130705
v -0.38268343 1.70977290 0.92807980
v -1.8369702e-16 1.70977290 1.00420027
v 0.38268343 1.70977290 0.92807980
v 0.70710678 1.70977290 0.71130705
v 0.92387953 1.70977290 0.38688370
v 0.89246763 1.80029500 -0.36547193
v 0.96600000 1.80029500 4.2002686e-3
v 0.89246763 1.80029500 0.37387246
v 0.68306515 1.80029500 0.68726542
v 0.36967220 1.80029500 0.89666790
v -1.7840504e-16 1.80029500 0.97020027
v -0.36967220 1.80029500 0.89666790
v -0.68306515 1.80029500 0.68726542
v -0.89246763 1.80029500 0.37387246
v -0.96600000 1.80029500 4.2002686e-3
v -0.89246763 1.80029500 -0.36547193
v -0.68306515 1.80029500 -0.67886488
v -0.36967220 1.80029500 -0.88826736
v 6.1232340e-17 1.80029500 -0.96179973
v 0.36967220 1.80029500 -0.88826736
v 0.68306515 1.80029500 -0.67886488
v 0.39804056 1.91627644 -0.16067353
v 0.43083600 1.91627644 4.2002686e-3
v 0.39804056 1.91627644 0.16907407
v 0.30464706 1.91627644 0.30884733
v 0.16487380 1.91627644 0.40224083
v -1.0268110e-16 1.91627644 0.43503627
v -0.16487380 1.91627644 0.40224083
v -0.30464706 1.91627644 0.30884733
v -0.39804056 1.91627644 0.16907407
v -0.43083600 1.91627644 4.2002686e-3
v -0.39804056 1.91627644 -0.16067353
v -0.30464706 1.91627644 -0.30044679
v -0.16487380 1.91627644 -0.39384029
v 6.1232340e-17 1.91627644 -0.42663573
v 0.16487380 1.91627644 -0.39384029
v 0.30464706 1.91627644 -0.30044679
vt 0.14812364 0.78755665
vt 0.16100537 0.72063372
vt 0.16164326 0.85443843
vt 0.16435427 0.78747736
vt 0.17603714 0.72672497
vt 0.17665341 0.84818130
vt 0.19834517 0.66362182
vt 0.19967837 0.91136200
vt 0.20994206 0.67497753
vt 0.21123127 0.89979321
vt 0.25349016 0.78690582
vt 0.25461004 0.62501849
vt 0.25696296 0.94976220
vt 0.25860323 0.76018285
vt 0.25895986 0.81356093
vt 0.26103009 0.63995968
vt 0.26318294 0.93441277
vt 0.27353543 0.73743885
vt 0.27421651 0.83610178
vt 0.29601784 0.72211064
vt 0.29695117 0.85108080
vt 0.32154244 0.61063042
vt 0.32178285 0.62697816
vt 0.32266227 0.71654917
vt 0.32370002 0.85615375
vt 0.32457944 0.94572476
vt 0.32481985 0.96207250
vt 0.34941111 0.72162212
vt 0.35034445 0.85059228
vt 0.37214577 0.73660114
vt 0.37282685 0.83526407
vt 0.38317934 0.63829015
vt 0.38533220 0.93274324
vt 0.38740242 0.75914200
vt 0.38775905 0.81252007
vt 0.38939932 0.62294072
vt 0.39175225 0.94768443
vt 0.39287213 0.78579710
vt 0.43513102 0.67290971
vt 0.43642023 0.89772539
vt 0.44668392 0.66134092
vt 0.44801711 0.90908110
vt 0.46970888 0.72452162
vt 0.47032515 0.84597795
vt 0.48200802 0.78522556
vt 0.48471903 0.71826449
vt 0.48535692 0.85206920
vt 0.49823865 0.78514627
vt 0.65780148 0.52706331
vt 0.65780148 0.56847540
vt 0.65862531 0.52691887
vt 0.65862531 0.56833096
vt 0.67378493 0.58445885
vt 0.67460875 0.58431440
vt 0.68372631 0.81405907
vt 0.69343279 0.76526133
vt 0.69343279 0.86285680
vt 0.72107448 0.90422552
vt 0.72107448 0.72389261
vt 0.75884497 0.17013087
vt 0.75884497 0.20563356
vt 0.75884497 0.22501203
vt 0.75884497 0.34817508
vt 0.75884497 0.36755355
vt 0.75884497 0.40305624
vt 0.76244320 0.93186721
vt 0.76244320 0.69625092
vt 0.80805031 0.17013087
vt 0.80805031 0.20563356
vt 0.80805031 0.22501203
vt 0.80805031 0.34817508
vt 0.80805031 0.36755355
vt 0.80805031 0.40305624
vt 0.81124093 0.94157369
vt 0.81124093 0.68654444
vt 0.81744837 0.58445885
vt 0.81827220 0.58431440
vt 0.83343182 0.52706331
vt 0.83343182 0.56847540
vt 0.83425564 0.52691887
vt 0.83425564 0.56833096
vt 0.86003867 0.93186721
vt 0.86003867 0.69625092
vt 0.90140739 0.90422552
vt 0.90140739 0.72389261
vt 0.92904908 0.86285680
vt 0.92904908 0.76526133
vt 0.93875556 0.81405907
vn -0.70710678 0.0000000e+0 0.70710678
vn -0.70710678 0.0000000e+0 -0.70710678
vn 0.70710678 0.0000000e+0 0.70710678
vn 0.70710678 0.0000000e+0 -0.70710678
vn -0.47596315 0.81251992 0.33655677
vn -0.47596315 0.33655677 0.81251992
vn -0.47596315 0.81251992 -0.33655677
vn -0.47596315 0.33655677 -0.81251992
vn 0.47596315 0.81251992 0.33655677
vn 0.47596315 0.33655677 0.81251992
vn 0.47596315 0.81251992 -0.33655677
vn 0.47596315 0.33655677 -0.81251992
vn 0.98623017 -0.16537853 1.1897272e-16
vn 0.91115787 -0.16537853 -0.37741395
vn 0.69737004 -0.16537853 -0.69737004
vn 0.37741395 -0.16537853 -0.91115787
vn 0.0000000e+0 -0.16537853 -0.98623017
vn -0.37741395 -0.16537853 -0.91115787
vn -0.69737004 -0.16537853 -0.69737004
vn -0.91115787 -0.16537853 -0.37741395
vn -0.98623017 -0.16537853 -1.7845908e-16
vn -0.91115787 -0.16537853 0.37741395
vn -0.69737004 -0.16537853 0.69737004
vn -0.37741395 -0.16537853 0.91115787
vn 0.0000000e+0 -0.16537853 0.98623017
vn 0.37741395 -0.16537853 0.91115787
vn 0.69737004 -0.16537853 0.69737004
vn 0.91115787 -0.16537853 0.37741395
vn 0.60085392 0.75962648 -0.24888184
vn 0.65035960 0.75962648 1.1162922e-16
vn 0.60085392 0.75962648 0.24888184
vn 0.45987368 0.75962648 0.45987368
vn 0.24888184 0.75962648 0.60085392
vn -2.5913925e-17 0.75962648 0.65035960
vn -0.24888184 0.75962648 0.60085392
vn -0.45987368 0.75962648 0.45987368
vn -0.60085392 0.75962648 0.24888184
vn -0.65035960 0.75962648 -8.9702048e-17
vn -0.60085392 0.75962648 -0.24888184
vn -0.45987368 0.75962648 -0.45987368
vn -0.24888184 0.75962648 -0.60085392
vn 0.0000000e+0 0.75962648 -0.65035960
vn 0.24888184 0.75962648 -0.60085392
vn 0.45987368 0.75962648 -0.45987368
vn 0.13107864 0.98988408 -5.4294551e-2
vn 0.14187850 0.98988408 8.6065438e-17
vn 0.13107864 0.98988408 5.4294551e-2
vn 0.10032325 0.98988408 0.10032325
vn 5.4294551e-2 0.98988408 0.13107864
vn -3.0239208e-17 0.98988408 0.14187850
vn -5.4294551e-2 0.98988408 0.13107864
vn -0.10032325 0.98988408 0.10032325
vn -0.13107864 0.98988408 5.4294551e-2
vn -0.14187850 0.98988408 3.7217486e-17
vn -0.13107864 0.98988408 -5.4294551e-2
vn -0.10032325 0.98988408 -0.10032325
vn -5.4294551e-2 0.98988408 -0.13107864
vn 0.0000000e+0 0.98988408 -0.14187850
vn 5.4294551e-2 0.98988408 -0.13107864
vn 0.10032325 0.98988408 -0.10032325
g Cylinder1_sep8_Cylinder1_auv
usemtl Cylinder1_auv
s 1
f 1/65/1 3/73/3 10/72/10 6/64/6
f 1/49/1 6/50/6 5/53/5 7/76/7 8/79/8 2/78/2
f 4/51/4 12/52/12 11/54/11 9/77/9 10/81/10 3/80/3
f 5/63/5 9/71/9 11/70/11 7/62/7
f 7/62/7 11/70/11 12/69/12 8/61/8
f 8/61/8 12/69/12 4/68/4 2/60/2
f 10/72/10 9/71/9 5/63/5 6/64/6
f 13/55/13 28/57/28 27/58/27 26/66/26 25/74/25 24/82/24 23/84/23 22/86/22 21/88/21 20/87/20 19/85/19 18/83/18 17/75/17 16/67/16 15/59/15 14/56/14
f 13/48/13 30/45/30 31/44/31 28/47/28
f 14/46/14 29/43/29 30/45/30 13/48/13
f 15/41/15 44/39/44 29/43/29 14/46/14
f 16/36/16 43/32/43 44/39/44 15/41/15
f 17/22/17 42/23/42 43/32/43 16/36/16
f 18/12/18 41/16/41 42/23/42 17/22/17
f 19/7/19 40/9/40 41/16/41 18/12/18
f 20/2/20 39/5/39 40/9/40 19/7/19
f 21/1/21 38/4/38 39/5/39 20/2/20
f 22/3/22 37/6/37 38/4/38 21/1/21
f 23/8/23 36/10/36 37/6/37 22/3/22
f 24/13/24 35/17/35 36/10/36 23/8/23
f 25/27/25 34/26/34 35/17/35 24/13/24
f 26/37/26 33/33/33 34/26/34 25/27/25
f 27/42/27 32/40/32 33/33/33 26/37/26
f 28/47/28 31/44/31 32/40/32 27/42/27
f 29/43/29 45/34/45 46/38/46 30/45/30
f 30/45/30 46/38/46 47/35/47 31/44/31
f 31/44/31 47/35/47 48/31/48 32/40/32
f 32/40/32 48/31/48 49/29/49 33/33/33
f 33/33/33 49/29/49 50/25/50 34/26/34
f 34/26/34 50/25/50 51/21/51 35/17/35
f 35/17/35 51/21/51 52/19/52 36/10/36
f 36/10/36 52/19/52 53/15/53 37/6/37
f 37/6/37 53/15/53 54/11/54 38/4/38
f 38/4/38 54/11/54 55/14/55 39/5/39
f 39/5/39 55/14/55 56/18/56 40/9/40
f 40/9/40 56/18/56 57/20/57 41/16/41
f 41/16/41 57/20/57 58/24/58 42/23/42
f 42/23/42 58/24/58 59/28/59 43/32/43
f 43/32/43 59/28/59 60/30/60 44/39/44
f 44/39/44 60/30/60 45/34/45 29/43/29
f 45/34/45 60/30/60 59/28/59 58/24/58 57/20/57 56/18/56 55/14/55 54/11/54 53/15/53 52/19/52 51/21/51 50/25/50 49/29/49 48/31/48 47/35/47 46/38/46
o Cylinder1
#64 vertices, 50 faces
v 1.00000000 0.54502558 4.2002686e-3
v 0.92387953 0.54502558 -0.37848316
v 0.70710678 0.54502558 -0.70290651
v 0.38268343 0.54502558 -0.91967926
v 6.1232340e-17 0.54502558 -0.99579973
v -0.38268343 0.54502558 -0.91967926
v -0.70710678 0.54502558 -0.70290651
v -0.92387953 0.54502558 -0.37848316
v -1.00000000 0.54502558 4.2002686e-3
v -0.92387953 0.54502558 0.38688370
v -0.70710678 0.54502558 0.71130705
v -0.38268343 0.54502558 0.92807980
v -1.8369702e-16 0.54502558 1.00420027
v 0.38268343 0.54502558 0.92807980
v 0.70710678 0.54502558 0.71130705
v 0.92387953 0.54502558 0.38688370
v 0.75200000 -1.41586331 4.2002686e-3
v 0.69475741 -1.41586331 -0.28357767
v 0.53174430 -1.41586331 -0.52754403
v 0.28777794 -1.41586331 -0.69055714
v 3.5721646e-17 -1.41586331 -0.74779973
v -0.28777794 -1.41586331 -0.69055714
v -0.53174430 -1.41586331 -0.52754403
v -0.69475741 -1.41586331 -0.28357767
v -0.75200000 -1.41586331 4.2002686e-3
v -0.69475741 -1.41586331 0.29197821
v -0.53174430 -1.41586331 0.53594457
v -0.28777794 -1.41586331 0.69895768
v -1.4846523e-16 -1.41586331 0.75620027
v 0.28777794 -1.41586331 0.69895768
v 0.53174430 -1.41586331 0.53594457
v 0.69475741 -1.41586331 0.29197821
v 0.81486175 0.54502558 -0.33332652
v 0.88200000 0.54502558 4.2002686e-3
v 0.81486175 0.54502558 0.34172706
v 0.62366818 0.54502558 0.62786845
v 0.33752679 0.54502558 0.81906202
v -1.6533075e-16 0.54502558 0.88620027
v -0.33752679 0.54502558 0.81906202
v -0.62366818 0.54502558 0.62786845
v -0.81486175 0.54502558 0.34172706
v -0.88200000 0.54502558 4.2002686e-3
v -0.81486175 0.54502558 -0.33332652
v -0.62366818 0.54502558 -0.61946791
v -0.33752679 0.54502558 -0.81066148
v 6.1232340e-17 0.54502558 -0.87779973
v 0.33752679 0.54502558 -0.81066148
v 0.62366818 0.54502558 -0.61946791
v 0.63559216 -1.24840453 -0.25907063
v 0.68796000 -1.24840453 4.2002686e-3
v 0.63559216 -1.24840453 0.26747116
v 0.48646118 -1.24840453 0.49066145
v 0.26327089 -1.24840453 0.63979243
v -1.3964388e-16 -1.24840453 0.69216027
v -0.26327089 -1.24840453 0.63979243
v -0.48646118 -1.24840453 0.49066145
v -0.63559216 -1.24840453 0.26747116
v -0.68796000 -1.24840453 4.2002686e-3
v -0.63559216 -1.24840453 -0.25907063
v -0.48646118 -1.24840453 -0.48226091
v -0.26327089 -1.24840453 -0.63139189
v 3.7075329e-17 -1.24840453 -0.68375973
v 0.26327089 -1.24840453 -0.63139189
v 0.48646118 -1.24840453 -0.48226091
vt 7.5030412e-2 0.52698555
vt 7.5174856e-2 0.52814171
vt 7.6667707e-2 0.52786334
vt 7.6667707e-2 0.52813178
vt 0.12484631 0.25322296
vt 0.12484631 0.25295451
vt 0.12984032 0.53647126
vt 0.12986349 0.25059845
vt 0.12998477 0.53762741
vt 0.13000794 0.25175461
vt 0.13107768 0.53564986
vt 0.13107768 0.53591830
vt 0.16728609 0.25929644
vt 0.16728609 0.25902800
vt 0.17108054 0.25773170
vt 0.17122499 0.25888786
vt 0.18504880 0.54326305
vt 0.18519325 0.54441921
vt 0.18577758 0.54122148
vt 0.18577758 0.54148992
vt 0.20995201 0.26364230
vt 0.20995201 0.26337386
vt 0.21259732 0.26283913
vt 0.21274177 0.26399529
vt 0.24052353 0.54734464
vt 0.24066797 0.54850080
vt 0.24067104 0.54456838
vt 0.24067104 0.54483682
vt 0.25276891 0.26598444
vt 0.25276891 0.26625289
vt 0.25431432 0.26590849
vt 0.25445876 0.26706465
vt 0.29566136 0.26712359
vt 0.29566136 0.26685515
vt 0.29566136 0.54568467
vt 0.29566136 0.54595311
vt 0.29613154 0.26693243
vt 0.29613154 0.54870627
vt 0.29627598 0.26808859
vt 0.29627598 0.54986242
vt 0.33794876 0.26590849
vt 0.33809321 0.26706465
vt 0.33855382 0.26625289
vt 0.33855382 0.26598444
vt 0.35065169 0.54456838
vt 0.35065169 0.54483682
vt 0.35173955 0.54734464
vt 0.35188399 0.54850080
vt 0.37966576 0.26283913
vt 0.37981020 0.26399529
vt 0.38137071 0.26364230
vt 0.38137071 0.26337386
vt 0.40554515 0.54122148
vt 0.40554515 0.54148992
vt 0.40721428 0.54326305
vt 0.40735872 0.54441921
vt 0.42118254 0.25773170
vt 0.42132698 0.25888786
vt 0.42403663 0.25929644
vt 0.42403663 0.25902800
vt 0.46024504 0.53564986
vt 0.46024504 0.53591830
vt 0.46239959 0.25059845
vt 0.46242276 0.53647126
vt 0.46254403 0.25175461
vt 0.46256720 0.53762741
vt 0.46647641 0.25322296
vt 0.46647641 0.25295451
vt 0.51465502 0.52786334
vt 0.51465502 0.52813178
vt 0.51723267 0.52698555
vt 0.51737711 0.52814171
vt 0.68348451 0.81521342
vt 0.68402851 0.81435645
vt 0.68459167 0.81479865
vt 0.69319098 0.76641568
vt 0.69319098 0.86401115
vt 0.69364579 0.76600712
vt 0.69364579 0.86270579
vt 0.69419415 0.76652371
vt 0.69419415 0.86307358
vt 0.69853123 0.81521341
vt 0.70709234 0.77217381
vt 0.70709234 0.85825302
vt 0.72083268 0.72504696
vt 0.72083268 0.90537987
vt 0.72103349 0.72501853
vt 0.72103349 0.90369438
vt 0.72153971 0.72559819
vt 0.72153971 0.90399910
vt 0.73147232 0.73568660
vt 0.73147232 0.89474023
vt 0.76202208 0.69763083
vt 0.76202208 0.93108208
vt 0.76220140 0.69740527
vt 0.76220140 0.93302156
vt 0.76246522 0.69825264
vt 0.76246522 0.93134465
vt 0.76795953 0.91912020
vt 0.76795953 0.71130663
vt 0.81037141 0.68801355
vt 0.81037141 0.94069936
vt 0.81074016 0.68865015
vt 0.81074016 0.94094714
vt 0.81099913 0.68769879
vt 0.81099913 0.94272804
vt 0.81099913 0.70274552
vt 0.81099913 0.92768131
vt 0.85403873 0.91912020
vt 0.85403873 0.71130662
vt 0.85872075 0.69763083
vt 0.85872075 0.93108208
vt 0.85901510 0.69825264
vt 0.85901510 0.93134465
vt 0.85979686 0.69740527
vt 0.85979686 0.93302156
vt 0.89052594 0.73568660
vt 0.89052594 0.89474023
vt 0.89970934 0.72501853
vt 0.89970934 0.90369438
vt 0.89994061 0.90399910
vt 0.89994061 0.72559819
vt 0.90116558 0.90537987
vt 0.90116558 0.72504696
vt 0.91490592 0.85825302
vt 0.91490592 0.77217381
vt 0.92346703 0.81521341
vt 0.92709704 0.76600712
vt 0.92709704 0.86270579
vt 0.92728617 0.76652371
vt 0.92728617 0.86307358
vt 0.92880728 0.76641568
vt 0.92880728 0.86401115
vt 0.93671432 0.81435645
vt 0.93688865 0.81479865
vt 0.93851375 0.81521341
vn 0.74294974 0.66934721 1.2711673e-16
vn 0.68639605 0.66934721 -0.28431455
vn 0.52534480 0.66934721 -0.52534480
vn 0.28431455 0.66934721 -0.68639605
vn 1.0593061e-17 0.66934721 -0.74294974
vn -0.28431455 0.66934721 -0.68639605
vn -0.52534480 0.66934721 -0.52534480
vn -0.68639605 0.66934721 -0.28431455
vn -0.74294974 0.66934721 -1.2711673e-16
vn -0.68639605 0.66934721 0.28431455
vn -0.52534480 0.66934721 0.52534480
vn -0.28431455 0.66934721 0.68639605
vn -1.0593061e-17 0.66934721 0.74294974
vn 0.28431455 0.66934721 0.68639605
vn 0.52534480 0.66934721 0.52534480
vn 0.68639605 0.66934721 0.28431455
vn 0.84220413 -0.53915879 7.2049448e-17
vn 0.77809516 -0.53915879 -0.32229757
vn 0.59552825 -0.53915879 -0.59552825
vn 0.32229757 -0.53915879 -0.77809516
vn 1.2008241e-17 -0.53915879 -0.84220413
vn -0.32229757 -0.53915879 -0.77809516
vn -0.59552825 -0.53915879 -0.59552825
vn -0.77809516 -0.53915879 -0.32229757
vn -0.84220413 -0.53915879 -2.1614834e-16
vn -0.77809516 -0.53915879 0.32229757
vn -0.59552825 -0.53915879 0.59552825
vn -0.32229757 -0.53915879 0.77809516
vn -1.2008241e-17 -0.53915879 0.84220413
vn 0.32229757 -0.53915879 0.77809516
vn 0.59552825 -0.53915879 0.59552825
vn 0.77809516 -0.53915879 0.32229757
vn -0.61120494 0.74988919 0.25316937
vn -0.66156346 0.74988919 -8.4721154e-17
vn -0.61120494 0.74988919 -0.25316937
vn -0.46779601 0.74988919 -0.46779601
vn -0.25316937 0.74988919 -0.61120494
vn 1.3178846e-16 0.74988919 -0.66156346
vn 0.25316937 0.74988919 -0.61120494
vn 0.46779601 0.74988919 -0.46779601
vn 0.61120494 0.74988919 -0.25316937
vn 0.66156346 0.74988919 1.5061539e-16
vn 0.61120494 0.74988919 0.25316937
vn 0.46779601 0.74988919 0.46779601
vn 0.25316937 0.74988919 0.61120494
vn -9.4134616e-18 0.74988919 0.66156346
vn -0.25316937 0.74988919 0.61120494
vn -0.46779601 0.74988919 0.46779601
vn -0.78490779 0.52746288 0.32511945
vn -0.84957807 0.52746288 -1.5715366e-16
vn -0.78490779 0.52746288 -0.32511945
vn -0.60074242 0.52746288 -0.60074242
vn -0.32511945 0.52746288 -0.78490779
vn 1.6924240e-16 0.52746288 -0.84957807
vn 0.32511945 0.52746288 -0.78490779
vn 0.60074242 0.52746288 -0.60074242
vn 0.78490779 0.52746288 -0.32511945
vn 0.84957807 0.52746288 1.4506492e-16
vn 0.78490779 0.52746288 0.32511945
vn 0.60074242 0.52746288 0.60074242
vn 0.32511945 0.52746288 0.78490779
vn -1.2088743e-17 0.52746288 0.84957807
vn -0.32511945 0.52746288 0.78490779
vn -0.60074242 0.52746288 0.60074242
g Cylinder1_Cylinder1_auv
usemtl Cylinder1_auv
s 1
f 61/160/61 77/153/77 78/146/78 62/154/62
f 61/224/61 94/215/94 95/213/95 76/221/76
f 62/154/62 78/146/78 79/138/79 63/144/63
f 62/220/62 93/214/93 94/215/94 61/224/61
f 63/144/63 79/138/79 80/130/80 64/136/64
f 63/212/63 108/205/108 93/214/93 62/220/62
f 64/136/64 80/130/80 81/127/81 65/128/65
f 64/203/64 107/198/107 108/205/108 63/212/63
f 65/128/65 81/127/81 82/120/82 66/114/66
f 65/193/65 106/195/106 107/198/107 64/203/64
f 66/114/66 82/120/82 83/112/83 67/106/67
f 66/183/66 105/188/105 106/195/106 65/193/65
f 67/106/67 83/112/83 84/104/84 68/97/68
f 67/173/67 104/179/104 105/188/105 66/183/66
f 68/97/68 84/104/84 85/98/85 69/90/69
f 68/164/68 103/171/103 104/179/104 67/173/67
f 69/159/69 85/151/85 86/145/86 70/152/70
f 69/161/69 102/170/102 103/171/103 68/164/68
f 70/152/70 86/145/86 87/137/87 71/143/71
f 70/165/70 101/172/101 102/170/102 69/161/69
f 71/143/71 87/137/87 88/129/88 72/135/72
f 71/174/71 100/180/100 101/172/101 70/165/70
f 72/135/72 88/129/88 89/125/89 73/126/73
f 72/184/72 99/187/99 100/180/100 71/174/71
f 73/126/73 89/125/89 90/119/90 74/113/74
f 73/194/73 98/196/98 99/187/99 72/184/72
f 74/113/74 90/119/90 91/111/91 75/105/75
f 74/204/74 97/197/97 98/196/98 73/194/73
f 75/105/75 91/111/91 92/103/92 76/95/76
f 75/211/75 96/206/96 97/197/97 74/204/74
f 76/95/76 92/103/92 77/96/77 61/89/61
f 76/221/76 95/213/95 96/206/96 75/211/75
f 77/162/77 92/167/92 91/176/91 90/182/90 89/190/89 88/200/88 87/208/87 86/217/86 85/222/85 84/216/84 83/207/83 82/199/82 81/189/81 80/181/80 79/175/79 78/166/78
f 93/100/93 109/101/109 110/93/110 94/92/94
f 94/157/94 110/156/110 111/148/111 95/149/95
f 95/149/95 111/148/111 112/140/112 96/141/96
f 96/141/96 112/140/112 113/132/113 97/133/97
f 97/133/97 113/132/113 114/122/114 98/123/98
f 98/123/98 114/122/114 115/117/115 99/115/99
f 99/115/99 115/117/115 116/110/116 100/107/100
f 100/107/100 116/110/116 117/102/117 101/99/101
f 101/99/101 117/102/117 118/94/118 102/91/102
f 102/158/102 118/155/118 119/147/119 103/150/103
f 103/150/103 119/147/119 120/139/120 104/142/104
f 104/142/104 120/139/120 121/131/121 105/134/105
f 105/134/105 121/131/121 122/121/122 106/124/106
f 106/124/106 122/121/122 123/118/123 107/116/107
f 107/116/107 123/118/123 124/109/124 108/108/108
f 108/108/108 124/109/124 109/101/109 93/100/93
f 109/218/109 124/210/124 123/201/123 122/191/122 121/185/121 120/177/120 119/168/119 118/163/118 117/169/117 116/178/116 115/186/115 114/192/114 113/202/113 112/209/112 111/219/111 110/223/110
