# Exported from Wings 3D 2.2.6.1
mtllib Pillow.mtl
o Cube1
#50 vertices, 48 faces
v -1.30000000 1.00000000 -1.9555556e-2
v -1.30000000 -1.00000000 -1.9555556e-2
v -1.30000000 1.00000000 1.9555556e-2
v -1.30000000 -1.00000000 1.9555556e-2
v 1.30000000 1.00000000 -1.9555556e-2
v 1.30000000 -1.00000000 -1.9555556e-2
v 1.30000000 1.00000000 1.9555556e-2
v 1.30000000 -1.00000000 1.9555556e-2
v -1.14695815 0.88349086 0.15463276
v -1.14695815 -0.88349086 0.15463276
v 1.14695815 -0.88349086 0.15463276
v 1.14695815 0.88349086 0.15463276
v -1.14695815 -0.88349086 -0.15463276
v -1.14695815 0.88349086 -0.15463276
v 1.14695815 0.88349086 -0.15463276
v 1.14695815 -0.88349086 -0.15463276
v -0.59038407 0.45535695 0.31134065
v -0.59038407 -0.45535695 0.31134065
v 0.59038407 -0.45535695 0.31134065
v 0.59038407 0.45535695 0.31134065
v -0.59038407 -0.45535695 -0.31134065
v -0.59038407 0.45535695 -0.31134065
v 0.59038407 0.45535695 -0.31134065
v 0.59038407 -0.45535695 -0.31134065
v 0.54607791 -1.9073441e-17 -0.31149293
v -0.54607791 -1.9073441e-17 -0.31149293
v 0.54607791 1.9073441e-17 0.31149293
v -0.54607791 1.9073441e-17 0.31149293
v 1.06458332 -9.4198021e-18 -0.15383704
v 1.06458332 9.4198021e-18 0.15383704
v -1.06458332 9.4198021e-18 0.15383704
v -1.06458332 -9.4198021e-18 -0.15383704
v -1.20380000 -1.1974324e-18 -1.9555556e-2
v 1.20380000 1.1974324e-18 1.9555556e-2
v 1.20380000 -1.1974324e-18 -1.9555556e-2
v -1.20380000 1.1974324e-18 1.9555556e-2
v 0.0000000e+0 -2.0944903e-17 -0.34205623
v 0.0000000e+0 2.0944903e-17 0.34205623
v 0.0000000e+0 -0.41059579 -0.31144424
v 0.0000000e+0 0.41059579 -0.31144424
v 0.0000000e+0 0.41059579 0.31144424
v 0.0000000e+0 -0.41059579 0.31144424
v 0.0000000e+0 -0.80014315 -0.15336860
v 0.0000000e+0 0.80014315 -0.15336860
v 0.0000000e+0 -0.80014315 0.15336860
v 0.0000000e+0 0.80014315 0.15336860
v 0.0000000e+0 -0.90200000 1.9555556e-2
v 0.0000000e+0 0.90200000 -1.9555556e-2
v 0.0000000e+0 0.90200000 1.9555556e-2
v 0.0000000e+0 -0.90200000 -1.9555556e-2
vt 7.0932475e-2 0.25166568
vt 7.0932475e-2 0.22362676
vt 7.1122868e-2 0.23631946
vt 7.1122868e-2 0.23897298
vt 0.19082624 0.29998149
vt 0.19082624 0.75050815
vt 0.19123498 0.29548774
vt 0.19435706 0.52412677
vt 0.19461130 0.74600174
vt 0.19646224 0.52183630
vt 0.22862238 0.33313927
vt 0.22886702 0.71656130
vt 0.22952910 0.32914855
vt 0.23215790 0.71256164
vt 0.23819216 0.52410494
vt 0.24029628 0.52152962
vt 0.34978028 0.42627763
vt 0.35018956 0.62154435
vt 0.35156031 0.42325362
vt 0.35261440 0.61851792
vt 0.35748564 0.52368042
vt 0.35958959 0.52106012
vt 0.47593024 0.30230357
vt 0.47620857 0.33973063
vt 0.47671364 0.43196550
vt 0.47721535 0.52309852
vt 0.47771705 0.61423153
vt 0.47822212 0.70646640
vt 0.47850045 0.74389346
vt 0.47895070 0.29994636
vt 0.47895286 0.33737446
vt 0.47913902 0.42961052
vt 0.47932030 0.52074474
vt 0.47950157 0.61187895
vt 0.47968773 0.70411502
vt 0.47968989 0.74154311
vt 0.49410037 0.25248602
vt 0.49410037 0.22280643
vt 0.49420787 0.24531933
vt 0.49420787 0.22997311
vt 0.49420787 0.22997311
vt 0.49431537 0.23815265
vt 0.49431537 0.23713980
vt 0.59694506 0.52251662
vt 0.59905100 0.52042935
vt 0.60424113 0.42465269
vt 0.60465041 0.61991940
vt 0.60602619 0.42297155
vt 0.60708028 0.61823585
vt 0.71623854 0.52209209
vt 0.71834431 0.51995986
vt 0.72556368 0.32963574
vt 0.72580831 0.71305776
vt 0.72648269 0.32892784
vt 0.72911149 0.71234092
vt 0.76007364 0.52207027
vt 0.76217835 0.51965317
vt 0.76360446 0.29568889
vt 0.76360446 0.74621554
vt 0.76402929 0.29548774
vt 0.76740561 0.74600174
vt 0.91729288 0.25166568
vt 0.91729288 0.22362676
vt 0.91748327 0.23897298
vt 0.91748327 0.23631946
vn -0.59408772 0.62286099 -0.50902256
vn -0.59408772 -0.62286099 -0.50902256
vn -0.59408772 0.62286099 0.50902256
vn -0.59408772 -0.62286099 0.50902256
vn 0.59408772 0.62286099 -0.50902256
vn 0.59408772 -0.62286099 -0.50902256
vn 0.59408772 0.62286099 0.50902256
vn 0.59408772 -0.62286099 0.50902256
vn -0.25518842 0.30640720 0.91705698
vn -0.25518842 -0.30640720 0.91705698
vn 0.25518842 -0.30640720 0.91705698
vn 0.25518842 0.30640720 0.91705698
vn -0.25518842 -0.30640720 -0.91705698
vn -0.25518842 0.30640720 -0.91705698
vn 0.25518842 0.30640720 -0.91705698
vn 0.25518842 -0.30640720 -0.91705698
vn -9.8616032e-2 0.13079442 0.98649262
vn -9.8616032e-2 -0.13079442 0.98649262
vn 9.8616032e-2 -0.13079442 0.98649262
vn 9.8616032e-2 0.13079442 0.98649262
vn -9.8616032e-2 -0.13079442 -0.98649262
vn -9.8616032e-2 0.13079442 -0.98649262
vn 9.8616032e-2 0.13079442 -0.98649262
vn 9.8616032e-2 -0.13079442 -0.98649262
vn 0.15972955 -7.5312457e-17 -0.98716081
vn -0.15972955 -7.5312457e-17 -0.98716081
vn 0.15972955 7.5312457e-17 0.98716081
vn -0.15972955 7.5312457e-17 0.98716081
vn 0.50497900 -7.1430962e-17 -0.86313163
vn 0.50497900 7.1430962e-17 0.86313163
vn -0.50497900 6.9645188e-17 0.86313163
vn -0.50497900 -6.9645188e-17 -0.86313163
vn -0.91952064 -2.6495396e-17 -0.39304171
vn 0.91952064 2.2710340e-17 0.39304171
vn 0.91952064 -2.6495396e-17 -0.39304171
vn -0.91952064 2.6495396e-17 0.39304171
vn 0.0000000e+0 -6.2507095e-17 -1.00000000
vn 0.0000000e+0 6.2507095e-17 1.00000000
vn 0.0000000e+0 -0.20830286 -0.97806437
vn 0.0000000e+0 0.20830286 -0.97806437
vn 0.0000000e+0 0.20830286 0.97806437
vn 0.0000000e+0 -0.20830286 0.97806437
vn 0.0000000e+0 -0.60516172 -0.79610256
vn 0.0000000e+0 0.60516172 -0.79610256
vn -1.7992281e-18 -0.60516172 0.79610256
vn 0.0000000e+0 0.60516172 0.79610256
vn 0.0000000e+0 -0.94663085 0.32231978
vn 0.0000000e+0 0.94663085 -0.32231978
vn 0.0000000e+0 0.94663085 0.32231978
vn 0.0000000e+0 -0.94663085 -0.32231978
g Cube1_Cube1_auv
usemtl Cube1_auv
s 1
f 1/39/1 33/39/33 36/39/36 3/37/3
f 2/42/2 50/64/50 47/62/47 4/39/4
f 3/37/3 49/1/49 48/4/48 1/39/1
f 4/39/4 36/39/36 33/39/33 2/42/2
f 4/5/4 47/23/47 45/24/45 10/11/10
f 5/41/5 48/63/48 49/65/49 7/43/7
f 6/38/6 35/41/35 34/41/34 8/40/8
f 7/43/7 34/41/34 35/41/35 5/41/5
f 8/58/8 34/56/34 30/50/30 11/52/11
f 8/40/8 47/3/47 50/2/50 6/38/6
f 9/12/9 46/28/46 49/29/49 3/6/3
f 10/11/10 31/15/31 36/8/36 4/5/4
f 10/11/10 45/24/45 42/25/42 18/17/18
f 11/52/11 30/50/30 27/44/27 19/46/19
f 11/52/11 45/24/45 47/23/47 8/58/8
f 12/53/12 30/50/30 34/56/34 7/59/7
f 12/53/12 46/28/46 41/27/41 20/47/20
f 13/54/13 43/31/43 50/30/50 2/60/2
f 14/55/14 32/51/32 33/57/33 1/61/1
f 14/55/14 44/35/44 40/34/40 22/49/22
f 15/14/15 29/16/29 25/22/25 23/20/23
f 15/14/15 44/35/44 48/36/48 5/9/5
f 16/13/16 29/16/29 35/10/35 6/7/6
f 16/13/16 43/31/43 39/32/39 24/19/24
f 17/18/17 28/21/28 38/26/38 41/27/41
f 17/18/17 41/27/41 46/28/46 9/12/9
f 18/17/18 28/21/28 31/15/31 10/11/10
f 18/17/18 42/25/42 38/26/38 28/21/28
f 19/46/19 27/44/27 38/26/38 42/25/42
f 19/46/19 42/25/42 45/24/45 11/52/11
f 20/47/20 27/44/27 30/50/30 12/53/12
f 20/47/20 41/27/41 38/26/38 27/44/27
f 21/48/21 26/45/26 37/33/37 39/32/39
f 21/48/21 39/32/39 43/31/43 13/54/13
f 22/49/22 26/45/26 32/51/32 14/55/14
f 22/49/22 40/34/40 37/33/37 26/45/26
f 23/20/23 25/22/25 37/33/37 40/34/40
f 23/20/23 40/34/40 44/35/44 15/14/15
f 24/19/24 25/22/25 29/16/29 16/13/16
f 24/19/24 39/32/39 37/33/37 25/22/25
f 31/15/31 28/21/28 17/18/17 9/12/9
f 32/51/32 26/45/26 21/48/21 13/54/13
f 33/57/33 32/51/32 13/54/13 2/60/2
f 35/10/35 29/16/29 15/14/15 5/9/5
f 36/8/36 31/15/31 9/12/9 3/6/3
f 48/36/48 44/35/44 14/55/14 1/61/1
f 49/29/49 46/28/46 12/53/12 7/59/7
f 50/30/50 43/31/43 16/13/16 6/7/6
