# Exported from Wings 3D 2.2.6.1
mtllib Block.mtl
o Cube1
#24 vertices, 26 faces
v -0.82400000 0.82400000 1.00000000
v -0.82400000 -0.82400000 1.00000000
v 0.82400000 -0.82400000 1.00000000
v 0.82400000 0.82400000 1.00000000
v 1.00000000 -0.82400000 -0.82400000
v 1.00000000 0.82400000 -0.82400000
v 1.00000000 0.82400000 0.82400000
v 1.00000000 -0.82400000 0.82400000
v -0.82400000 1.00000000 -0.82400000
v -0.82400000 1.00000000 0.82400000
v 0.82400000 1.00000000 0.82400000
v 0.82400000 1.00000000 -0.82400000
v -0.82400000 -0.82400000 -1.00000000
v -0.82400000 0.82400000 -1.00000000
v 0.82400000 0.82400000 -1.00000000
v 0.82400000 -0.82400000 -1.00000000
v -1.00000000 0.82400000 -0.82400000
v -1.00000000 -0.82400000 -0.82400000
v -1.00000000 -0.82400000 0.82400000
v -1.00000000 0.82400000 0.82400000
v -0.82400000 -1.00000000 0.82400000
v -0.82400000 -1.00000000 -0.82400000
v 0.82400000 -1.00000000 -0.82400000
v 0.82400000 -1.00000000 0.82400000
vt 1.1428975e-2 0.62950308
vt 1.1428975e-2 0.65236103
vt 1.1428975e-2 0.90162154
vt 1.1428975e-2 0.38024257
vt 0.19578184 0.32102712
vt 0.19641885 0.31784934
vt 0.20764431 6.8706063e-2
vt 0.20828132 6.5528286e-2
vt 0.23197814 0.35722343
vt 0.23261515 0.35404565
vt 0.23271036 0.32003759
vt 0.23334737 0.31685981
vt 0.24074655 3.5086897e-2
vt 0.24138356 3.1909119e-2
vt 0.24496076 7.2354918e-2
vt 0.24559777 6.9177140e-2
vt 0.26068948 0.62950308
vt 0.26068948 0.65236103
vt 0.26068948 0.90162154
vt 0.26068948 0.38024257
vt 0.28354743 0.65236103
vt 0.28354743 0.90162154
vt 0.28354743 0.38024257
vt 0.28354743 0.62950308
vt 0.47997266 0.30425868
vt 0.48060967 0.30108090
vt 0.48418687 0.34152670
vt 0.48482388 0.33834892
vt 0.49222306 5.6576010e-2
vt 0.49286007 5.3398232e-2
vt 0.49295528 1.9390171e-2
vt 0.49359229 1.6212393e-2
vt 0.51728911 0.30790753
vt 0.51792612 0.30472976
vt 0.52915158 5.5586477e-2
vt 0.52978859 5.2408699e-2
vt 0.53280794 0.38024257
vt 0.53280794 0.62950308
vt 0.53280794 0.65236103
vt 0.53280794 0.90162154
vt 0.66180751 0.58073146
vt 0.66180751 0.82999197
vt 0.69945395 0.82999197
vt 0.69945395 0.58073146
vt 0.70290625 0.58073146
vt 0.70290625 0.82999197
vt 0.73931052 1.1428975e-2
vt 0.73931052 0.26068948
vt 0.73931052 0.28354743
vt 0.73931052 0.53280794
vt 0.74055269 0.58073146
vt 0.74055269 0.82999197
vt 0.74400498 0.58073146
vt 0.74400498 0.82999197
vt 0.78165142 0.58073146
vt 0.78165142 0.82999197
vt 0.78510372 0.82999197
vt 0.78510372 0.58073146
vt 0.82275016 0.82999197
vt 0.82275016 0.58073146
vt 0.98857102 1.1428975e-2
vt 0.98857102 0.26068948
vt 0.98857102 0.28354743
vt 0.98857102 0.53280794
vn -0.36700100 0.36700100 0.85476344
vn -0.36700100 -0.36700100 0.85476344
vn 0.36700100 -0.36700100 0.85476344
vn 0.36700100 0.36700100 0.85476344
vn 0.85476344 -0.36700100 -0.36700100
vn 0.85476344 0.36700100 -0.36700100
vn 0.85476344 0.36700100 0.36700100
vn 0.85476344 -0.36700100 0.36700100
vn -0.36700100 0.85476344 -0.36700100
vn -0.36700100 0.85476344 0.36700100
vn 0.36700100 0.85476344 0.36700100
vn 0.36700100 0.85476344 -0.36700100
vn -0.36700100 -0.36700100 -0.85476344
vn -0.36700100 0.36700100 -0.85476344
vn 0.36700100 0.36700100 -0.85476344
vn 0.36700100 -0.36700100 -0.85476344
vn -0.85476344 0.36700100 -0.36700100
vn -0.85476344 -0.36700100 -0.36700100
vn -0.85476344 -0.36700100 0.36700100
vn -0.85476344 0.36700100 0.36700100
vn -0.36700100 -0.85476344 0.36700100
vn -0.36700100 -0.85476344 -0.36700100
vn 0.36700100 -0.85476344 -0.36700100
vn 0.36700100 -0.85476344 0.36700100
g Cube1_Cube1_auv
usemtl Cube1_auv
s 1
f 1/12/1 20/6/20 19/8/19 2/16/2
f 2/4/2 3/20/3 4/17/4 1/1/1
f 2/16/2 21/14/21 24/32/24 3/30/3
f 3/30/3 8/36/8 7/34/7 4/26/4
f 4/26/4 11/28/11 10/10/10 1/12/1
f 5/35/5 16/29/16 15/25/15 6/33/6
f 6/61/6 7/62/7 8/48/8 5/47/5
f 6/45/6 12/51/12 11/52/11 7/46/7
f 7/34/7 11/28/11 4/26/4
f 8/43/8 24/42/24 23/41/23 5/44/5
f 9/58/9 17/60/17 20/59/20 10/57/10
f 10/40/10 11/22/11 12/21/12 9/39/9
f 10/10/10 20/6/20 1/12/1
f 12/27/12 15/25/15 14/11/14 9/9/9
f 13/15/13 18/7/18 17/5/17 14/11/14
f 14/19/14 15/3/15 16/2/16 13/18/13
f 15/25/15 12/27/12 6/33/6
f 16/29/16 23/31/23 22/13/22 13/15/13
f 17/5/17 9/9/9 14/11/14
f 18/63/18 19/64/19 20/50/20 17/49/17
f 18/53/18 22/55/22 21/56/21 19/54/19
f 19/8/19 21/14/21 2/16/2
f 22/13/22 18/7/18 13/15/13
f 22/23/22 23/37/23 24/38/24 21/24/21
f 23/31/23 16/29/16 5/35/5
f 24/32/24 8/36/8 3/30/3
